<svg width="23" height="20" viewBox="0 0 23 20" fill="none" xmlns="http://www.w3.org/2000/svg">
<path d="M13.6094 15.6993C11.8192 15.6993 10.0231 15.6993 8.2328 15.6993C7.01798 15.6993 6.26816 15.0425 6.04728 13.8671C5.29165 9.83974 4.52439 5.81813 3.76876 1.79076C3.71064 1.48539 3.58276 1.37592 3.26888 1.38168C2.42606 1.39897 1.58324 1.39897 0.740422 1.38168C0.182417 1.37016 -0.148899 0.88042 0.0661653 0.413729C0.188229 0.154456 0.397481 0.0104151 0.682296 0.0104151C1.65299 0.00465351 2.61788 -0.0126314 3.58857 0.0161767C4.33839 0.0392231 4.8964 0.534722 5.06496 1.26645C5.20446 1.87142 5.32653 2.48791 5.43115 3.09864C5.47184 3.32335 5.56484 3.36944 5.77409 3.36944C8.93031 3.36368 12.0923 3.36368 15.2486 3.36368C17.1376 3.36368 19.0267 3.35792 20.9158 3.36368C22.0492 3.36944 22.8688 4.08388 22.9909 5.17283C23.0141 5.39753 22.9909 5.63376 22.9444 5.85846C22.3399 8.57218 21.7296 11.2859 21.1134 13.9996C20.8635 15.0943 20.1079 15.6878 18.9744 15.6878C17.19 15.6993 15.3997 15.6993 13.6094 15.6993ZM5.80316 4.75799C5.96591 5.60495 6.12866 6.41734 6.27397 7.22396C6.66341 9.38457 7.04704 11.5509 7.43648 13.7115C7.51205 14.1379 7.71549 14.3165 8.15143 14.3165C11.7843 14.3223 15.4171 14.3223 19.05 14.3165C19.4859 14.3165 19.6777 14.1552 19.7765 13.7231C20.381 11.0554 20.9797 8.38781 21.5726 5.72018C21.7237 5.05183 21.4796 4.76951 20.7821 4.76951C16.2018 4.76375 11.6215 4.75799 7.03542 4.75799C6.64016 4.75799 6.24491 4.75799 5.80316 4.75799Z" fill="#717171"/>
<path d="M9.0695 16.529C9.83094 16.5347 10.4529 17.1512 10.4587 17.906C10.4645 18.6665 9.82513 19.3003 9.05206 19.2946C8.27899 19.2888 7.66285 18.6665 7.67448 17.8887C7.68029 17.1282 8.30224 16.5232 9.0695 16.529Z" fill="#717171"/>
<path d="M19.6079 17.906C19.6079 18.6781 18.986 19.2946 18.2071 19.2888C17.4457 19.2831 16.8237 18.6608 16.8237 17.906C16.8237 17.1397 17.4573 16.5175 18.2304 16.5232C18.9976 16.5348 19.6079 17.1397 19.6079 17.906Z" fill="#717171"/>
</svg>
