<svg width="339" height="68" viewBox="0 0 339 68" fill="none" xmlns="http://www.w3.org/2000/svg">
<path fill-rule="evenodd" clip-rule="evenodd" d="M1 60L1 67L8 67L8 65L3 65L2 65L2 64L2 60L1 60ZM9 67L9 65L330 65L330 67L330 68L331 68L338 68L339 68L339 67L339 60L339 59L338 59L335 59L335 9L338 9L339 9L339 8L339 1L339 4.40628e-07L338 4.8434e-07L331 7.9032e-07L330 8.34031e-07L330 1L330 2.99999L9 3L9 1L9 -3.93403e-07L8 -3.49691e-07L0.999999 -4.37115e-08L-5.54545e-07 0L-4.97784e-07 1L-1.00469e-07 8L-4.37081e-08 9L1 9L2 9L2 59L1 59L-3.93402e-07 59L-3.49691e-07 60L-4.37114e-08 67L0 68L1 68L8 68L9 68L9 67ZM334 59L334 9L331 9L330 9L330 8L330 3.99999L9 4L9 8L9 9L8 9L3 9L3 59L8 59L9 59L9 60L9 64L330 64L330 60L330 59L331 59L334 59ZM331 64L331 60L334 60L334 64L331 64ZM331 65L334 65L335 65L335 64L335 60L338 60L338 67L331 67L331 65ZM8 60L3 60L3 64L8 64L8 60ZM0.999999 1L1 8L2 8L2 4L2 3L3 3L8 3L8 1L0.999999 1ZM334 8L331 8L331 3.99999L334 3.99999L334 8ZM335 8L335 3.99999L335 2.99999L334 2.99999L331 2.99999L331 1L338 1L338 8L335 8ZM8 8L8 4L3 4L3 8L8 8Z" fill="#EA3B3B"/>
</svg>
