<svg width="35" height="36" viewBox="0 0 35 36" fill="none" xmlns="http://www.w3.org/2000/svg">
<path fill-rule="evenodd" clip-rule="evenodd" d="M0 3.70302C0 2.92993 0.263392 2.18851 0.732233 1.64185C1.20107 1.09519 1.83696 0.788086 2.5 0.788086H32.5C33.163 0.788086 33.7989 1.09519 34.2678 1.64185C34.7366 2.18851 35 2.92993 35 3.70302C35 4.4761 34.7366 5.21753 34.2678 5.76418C33.7989 6.31084 33.163 6.61795 32.5 6.61795H2.5C1.83696 6.61795 1.20107 6.31084 0.732233 5.76418C0.263392 5.21753 0 4.4761 0 3.70302ZM0 18.2777C0 17.5046 0.263392 16.7632 0.732233 16.2165C1.20107 15.6698 1.83696 15.3627 2.5 15.3627H32.5C33.163 15.3627 33.7989 15.6698 34.2678 16.2165C34.7366 16.7632 35 17.5046 35 18.2777C35 19.0508 34.7366 19.7922 34.2678 20.3388C33.7989 20.8855 33.163 21.1926 32.5 21.1926H2.5C1.83696 21.1926 1.20107 20.8855 0.732233 20.3388C0.263392 19.7922 0 19.0508 0 18.2777ZM0 32.8523C0 32.0792 0.263392 31.3378 0.732233 30.7912C1.20107 30.2445 1.83696 29.9374 2.5 29.9374H32.5C33.163 29.9374 33.7989 30.2445 34.2678 30.7912C34.7366 31.3378 35 32.0792 35 32.8523C35 33.6254 34.7366 34.3668 34.2678 34.9135C33.7989 35.4601 33.163 35.7673 32.5 35.7673H2.5C1.83696 35.7673 1.20107 35.4601 0.732233 34.9135C0.263392 34.3668 0 33.6254 0 32.8523Z" fill="#85B6FF"/>
</svg>
