<svg width="55" height="56" viewBox="0 0 55 56" fill="none" xmlns="http://www.w3.org/2000/svg">
<path d="M11.5624 54.867C12.8531 54.867 13.8886 54.4351 14.6688 53.5715C15.4491 52.7079 15.8392 51.6709 15.8392 50.4607C15.8392 49.2504 15.4462 48.2106 14.66 47.3411C13.8856 46.4716 12.8531 46.0368 11.5624 46.0368C10.5182 46.0368 9.7027 46.3306 9.11604 46.9181V42.8467H6.89844V54.6378H9.11604V54.0033C9.69097 54.5791 10.5064 54.867 11.5624 54.867ZM11.3864 52.8225C10.7411 52.8225 10.1867 52.6168 9.72324 52.2056C9.25977 51.7943 9.02804 51.2127 9.02804 50.4607C9.02804 49.7087 9.2627 49.1241 9.73204 48.707C10.2014 48.2899 10.7528 48.0813 11.3864 48.0813C12.0318 48.0813 12.5656 48.3163 12.988 48.7863C13.4104 49.2563 13.6216 49.8144 13.6216 50.4607C13.6216 51.1187 13.4104 51.6768 12.988 52.1351C12.5656 52.5933 12.0318 52.8225 11.3864 52.8225ZM20.116 54.6378V50.5664C20.116 49.8849 20.3067 49.3386 20.688 48.9273C21.0694 48.5161 21.6062 48.3104 22.2984 48.3104H23.3368V46.1954H22.316C21.835 46.1954 21.395 46.2806 20.996 46.451C20.5971 46.6214 20.3038 46.8476 20.116 47.1296V46.2659H17.8984V54.6378H20.116ZM28.0888 54.867C29.3208 54.867 30.2243 54.5791 30.7992 54.0033V54.6378H33.0168V49.4384C33.0168 48.3692 32.6326 47.5349 31.864 46.9357C31.0955 46.3364 30.0718 46.0368 28.7928 46.0368C27.7838 46.0368 26.8891 46.2894 26.1088 46.7947C25.3286 47.2999 24.827 48.0402 24.604 49.0154H26.892C27.1736 48.3457 27.8248 48.0108 28.8456 48.0108C29.4206 48.0108 29.8899 48.1224 30.2536 48.3457C30.6174 48.5689 30.7992 48.9097 30.7992 49.3679H28.74C27.6019 49.3679 26.6603 49.5706 25.9152 49.976C25.1702 50.3814 24.7976 51.0658 24.7976 52.0293C24.7976 52.9341 25.088 53.6332 25.6688 54.1267C26.2496 54.6202 27.0563 54.867 28.0888 54.867ZM28.5288 53.0868C28.0478 53.0868 27.6752 52.9899 27.4112 52.796C27.1472 52.6021 27.0152 52.3524 27.0152 52.0469C27.0152 51.3654 27.5902 51.0247 28.74 51.0247H30.7992V51.3772C30.7992 51.9177 30.5792 52.3378 30.1392 52.6374C29.6992 52.937 29.1624 53.0868 28.5288 53.0868ZM37.6104 54.6378V50.3902C37.6104 49.6969 37.8128 49.1388 38.2176 48.7158C38.6224 48.2928 39.1123 48.0813 39.6872 48.0813C40.3208 48.0813 40.8048 48.2488 41.1392 48.5836C41.4736 48.9185 41.6408 49.3914 41.6408 50.0024V54.6378H43.8584V49.5971C43.8584 48.5043 43.5152 47.6377 42.8288 46.9974C42.1424 46.357 41.2478 46.0368 40.1448 46.0368C38.995 46.0368 38.1502 46.3247 37.6104 46.9004V46.2659H35.3928V54.6378H37.6104Z" fill="#77AEEA"/>
<mask id="mask0_277_3306" style="mask-type:alpha" maskUnits="userSpaceOnUse" x="0" y="0" width="55" height="56">
<path d="M54.9999 0V2.16338L55 26.3494C55 42.2159 42.1559 55.0782 26.312 55.0782L0 55.0782L2.47234e-05 28.7288C2.47234e-05 12.8623 12.8441 0 28.688 0H54.9999ZM52.8884 2.16336L28.7363 2.16338C14.2056 2.16338 2.39858 13.8417 2.1639 28.3371L2.16034 28.7772L2.16034 52.9637L26.2246 52.9638C40.8034 52.9638 52.6495 41.2468 52.885 26.7034L52.8886 26.2619L52.8884 2.16336ZM38.8564 9.54836C39.2172 9.54836 39.4929 9.69376 39.6836 9.98458V9.60564H40.062V11.7162L40.0616 11.7497C40.0543 12.0597 39.9444 12.3019 39.732 12.4763C39.512 12.657 39.248 12.7473 38.94 12.7473C38.6936 12.7473 38.4809 12.701 38.302 12.6085C38.1231 12.516 37.9881 12.383 37.8972 12.2097L38.2316 12.0203L38.2429 12.0424C38.3665 12.2744 38.6018 12.3904 38.9488 12.3904C39.1776 12.3904 39.3573 12.3302 39.4878 12.2097C39.6183 12.0893 39.6836 11.9248 39.6836 11.7162V11.4034L39.6658 11.4297C39.4732 11.7059 39.2034 11.844 38.8564 11.844C38.5425 11.844 38.2771 11.7324 38.06 11.5091C37.8429 11.2859 37.7344 11.0142 37.7344 10.694C37.7344 10.3738 37.8429 10.1028 38.06 9.88103C38.2771 9.65925 38.5425 9.54836 38.8564 9.54836ZM48.9544 9.60564L49.7024 11.3329L50.336 9.60564H50.7452L49.8476 11.9454L49.8325 11.9843C49.7398 12.2149 49.6136 12.3921 49.4538 12.516C49.2851 12.6467 49.0908 12.7047 48.8708 12.69V12.3331L48.8938 12.3345C49.1519 12.345 49.3423 12.1947 49.4648 11.8837L49.5044 11.8L48.5452 9.60564H48.9544ZM47.2516 9.54836C47.4687 9.54836 47.6637 9.6005 47.8368 9.70478C48.0099 9.80906 48.1389 9.94932 48.224 10.1256L47.9028 10.3106L47.8904 10.2858C47.8347 10.1798 47.753 10.0941 47.6454 10.0286C47.5295 9.95814 47.3983 9.92289 47.2516 9.92289C47.0316 9.92289 46.8475 9.99779 46.6994 10.1476C46.5513 10.2974 46.4772 10.484 46.4772 10.7072C46.4772 10.9275 46.5513 11.1126 46.6994 11.2624C46.8475 11.4122 47.0316 11.4871 47.2516 11.4871C47.3983 11.4871 47.5303 11.4526 47.6476 11.3836C47.7649 11.3145 47.8544 11.2213 47.916 11.1038L48.2416 11.2932L48.2235 11.3253C48.1307 11.4838 48.0018 11.6119 47.8368 11.7096C47.6608 11.8139 47.4657 11.866 47.2516 11.866C46.9201 11.866 46.6444 11.7552 46.4244 11.5334C46.2044 11.3116 46.0944 11.0362 46.0944 10.7072C46.0944 10.3782 46.2044 10.1028 46.4244 9.88103C46.6444 9.65925 46.9201 9.54836 47.2516 9.54836ZM41.8484 9.54836C42.1711 9.54836 42.4343 9.66218 42.6382 9.88984C42.8421 10.1175 42.944 10.3914 42.944 10.7116C42.944 10.7674 42.9396 10.8247 42.9308 10.8835H41.0872L41.0937 10.9142C41.135 11.0962 41.223 11.2387 41.3578 11.3417C41.5001 11.4504 41.6753 11.5047 41.8836 11.5047C42.174 11.5047 42.3852 11.3975 42.5172 11.1831L42.8428 11.3681L42.8252 11.3947C42.6111 11.7089 42.2943 11.866 41.8748 11.866C41.5257 11.866 41.2419 11.7566 41.0234 11.5378C40.8049 11.3189 40.6956 11.0421 40.6956 10.7072C40.6956 10.3753 40.8027 10.0991 41.0168 9.87882C41.2309 9.65851 41.5081 9.54836 41.8484 9.54836ZM35.8864 9.54836C36.2501 9.54836 36.5273 9.69376 36.718 9.98458V9.60564H37.1008V11.8088H36.718V11.4298L36.7004 11.4559C36.5105 11.7293 36.2391 11.866 35.8864 11.866C35.5784 11.866 35.3159 11.7537 35.0988 11.529C34.8817 11.3042 34.7732 11.0303 34.7732 10.7072C34.7732 10.3841 34.8817 10.1102 35.0988 9.88543C35.3159 9.66072 35.5784 9.54836 35.8864 9.54836ZM44.6556 9.54836C44.9137 9.54836 45.1205 9.62987 45.276 9.7929C45.4315 9.95593 45.5092 10.177 45.5092 10.456V11.8088H45.1264V10.4781L45.126 10.4486C45.1209 10.2836 45.0726 10.1546 44.9812 10.0617C44.8844 9.96328 44.7509 9.91407 44.5808 9.91407C44.3901 9.91407 44.2361 9.97356 44.1188 10.0925C44.0015 10.2115 43.9428 10.3944 43.9428 10.6411V11.8088H43.56V9.60564H43.9428V9.92289L43.9581 9.89911C44.1137 9.66528 44.3462 9.54836 44.6556 9.54836ZM35.9348 9.91848C35.7148 9.91848 35.53 9.99412 35.3804 10.1454C35.2308 10.2967 35.156 10.484 35.156 10.7072C35.156 10.9305 35.2308 11.1177 35.3804 11.269C35.53 11.4203 35.7148 11.4959 35.9348 11.4959C36.1577 11.4959 36.344 11.4203 36.4936 11.269C36.6432 11.1177 36.718 10.9305 36.718 10.7072C36.718 10.484 36.6432 10.2967 36.4936 10.1454C36.344 9.99412 36.1577 9.91848 35.9348 9.91848ZM38.9004 9.91407C38.6775 9.91407 38.4912 9.98898 38.3416 10.1388C38.192 10.2886 38.1172 10.4737 38.1172 10.694C38.1172 10.9172 38.192 11.1038 38.3416 11.2536C38.4912 11.4034 38.6775 11.4783 38.9004 11.4783C39.1233 11.4783 39.3096 11.4034 39.4592 11.2536C39.6088 11.1038 39.6836 10.9172 39.6836 10.694C39.6836 10.4737 39.6088 10.2886 39.4592 10.1388C39.3096 9.98898 39.1233 9.91407 38.9004 9.91407ZM41.8484 9.90967C41.6431 9.90967 41.4729 9.96768 41.338 10.0837C41.2031 10.1997 41.1195 10.3547 41.0872 10.5486H42.5568C42.5245 10.34 42.4424 10.1814 42.3104 10.0727C42.1784 9.96401 42.0244 9.90967 41.8484 9.90967ZM38.4956 5.1421C38.8183 5.1421 39.0815 5.25593 39.2854 5.48358C39.4893 5.71124 39.5912 5.98516 39.5912 6.30535C39.5912 6.36116 39.5868 6.41845 39.578 6.4772H37.7344L37.7409 6.50791C37.7822 6.68997 37.8702 6.83248 38.005 6.93545C38.1473 7.04413 38.3225 7.09848 38.5308 7.09848C38.8212 7.09848 39.0324 6.99126 39.1644 6.77682L39.49 6.96188L39.4724 6.98843C39.2584 7.30267 38.9416 7.45979 38.522 7.45979C38.1729 7.45979 37.8891 7.35037 37.6706 7.13152C37.4521 6.91268 37.3428 6.63582 37.3428 6.30095C37.3428 5.96901 37.4499 5.69288 37.664 5.47257C37.8781 5.25226 38.1553 5.1421 38.4956 5.1421ZM41.1928 5.1421C41.5565 5.1421 41.8337 5.28751 42.0244 5.57832V5.19938H42.4072V7.40251H42.0244V7.02357L42.0068 7.04961C41.8169 7.32306 41.5455 7.45979 41.1928 7.45979C40.8848 7.45979 40.6223 7.34743 40.4052 7.12271C40.1881 6.89799 40.0796 6.62407 40.0796 6.30095C40.0796 5.97782 40.1881 5.7039 40.4052 5.47918C40.6223 5.25446 40.8848 5.1421 41.1928 5.1421ZM49.5308 5.1421C49.8535 5.1421 50.1167 5.25593 50.3206 5.48358C50.5245 5.71124 50.6264 5.98516 50.6264 6.30535C50.6264 6.36116 50.622 6.41845 50.6132 6.4772H48.7696L48.7761 6.50791C48.8174 6.68997 48.9054 6.83248 49.0402 6.93545C49.1825 7.04413 49.3577 7.09848 49.566 7.09848C49.8564 7.09848 50.0676 6.99126 50.1996 6.77682L50.5252 6.96188L50.5076 6.98843C50.2935 7.30267 49.9767 7.45979 49.5572 7.45979C49.2081 7.45979 48.9243 7.35037 48.7058 7.13152C48.4873 6.91268 48.378 6.63582 48.378 6.30095C48.378 5.96901 48.4851 5.69288 48.6992 5.47257C48.9133 5.25226 49.1905 5.1421 49.5308 5.1421ZM34.4168 5.1421C34.6339 5.1421 34.8289 5.19424 35.002 5.29852C35.1751 5.4028 35.3041 5.54307 35.3892 5.71932L35.068 5.90438L35.0556 5.87956C34.9999 5.77357 34.9182 5.68785 34.8106 5.62238C34.6947 5.55188 34.5635 5.51663 34.4168 5.51663C34.1968 5.51663 34.0127 5.59154 33.8646 5.74135C33.7165 5.89116 33.6424 6.07769 33.6424 6.30095C33.6424 6.52126 33.7165 6.70632 33.8646 6.85613C34.0127 7.00595 34.1968 7.08085 34.4168 7.08085C34.5635 7.08085 34.6955 7.04634 34.8128 6.97731C34.9301 6.90827 35.0196 6.81501 35.0812 6.69751L35.4068 6.88698L35.3887 6.91907C35.2959 7.0775 35.167 7.2056 35.002 7.30337C34.826 7.40765 34.6309 7.45979 34.4168 7.45979C34.0853 7.45979 33.8096 7.3489 33.5896 7.12712C33.3696 6.90534 33.2596 6.62995 33.2596 6.30095C33.2596 5.97194 33.3696 5.69655 33.5896 5.47477C33.8096 5.25299 34.0853 5.1421 34.4168 5.1421ZM43.7756 4.58251V5.19938H44.3608V5.56951H43.7756V6.7636L43.7759 6.78641C43.7787 6.88314 43.7999 6.95265 43.8394 6.99493C43.8819 7.04046 43.9472 7.06396 44.0352 7.06543C44.1232 7.0669 44.2317 7.0647 44.3608 7.05882V7.40251L44.324 7.40711C44.0084 7.44446 43.7757 7.41575 43.626 7.32099C43.4705 7.22259 43.3928 7.03679 43.3928 6.7636V5.56951H42.9572V5.19938H43.3928V4.69707L43.7756 4.58251ZM37.0348 5.15973V5.56069L37.0038 5.55977C36.8292 5.55761 36.6782 5.60786 36.5508 5.71051C36.4159 5.81919 36.3484 5.99398 36.3484 6.23485V7.40251H35.9656V5.19938H36.3484V5.56951L36.3602 5.54505C36.4885 5.28817 36.7134 5.15973 37.0348 5.15973ZM46.2924 5.19938L46.9832 6.99273L47.674 5.19938H48.0876L47.2076 7.40251H46.7588L45.8788 5.19938H46.2924ZM45.3728 5.19938V7.40251H44.99V5.19938H45.3728ZM41.2412 5.51223C41.0212 5.51223 40.8364 5.58787 40.6868 5.73915C40.5372 5.89043 40.4624 6.07769 40.4624 6.30095C40.4624 6.5242 40.5372 6.71146 40.6868 6.86274C40.8364 7.01402 41.0212 7.08966 41.2412 7.08966C41.4641 7.08966 41.6504 7.01402 41.8 6.86274C41.9496 6.71146 42.0244 6.5242 42.0244 6.30095C42.0244 6.07769 41.9496 5.89043 41.8 5.73915C41.6504 5.58787 41.4641 5.51223 41.2412 5.51223ZM38.4956 5.50341C38.2903 5.50341 38.1201 5.56143 37.9852 5.67746C37.8503 5.79349 37.7667 5.94844 37.7344 6.14232H39.204C39.1717 5.93376 39.0896 5.77513 38.9576 5.66644C38.8256 5.55776 38.6716 5.50341 38.4956 5.50341ZM49.5308 5.50341C49.3255 5.50341 49.1553 5.56143 49.0204 5.67746C48.8855 5.79349 48.8019 5.94844 48.7696 6.14232H50.2392C50.2069 5.93376 50.1248 5.77513 49.9928 5.66644C49.8608 5.55776 49.7068 5.50341 49.5308 5.50341ZM45.1836 4.28288C45.254 4.28288 45.3141 4.30858 45.364 4.35999C45.4139 4.4114 45.4388 4.47235 45.4388 4.54285C45.4388 4.61335 45.4139 4.67357 45.364 4.72351C45.3141 4.77344 45.254 4.79841 45.1836 4.79841C45.1103 4.79841 45.0487 4.77344 44.9988 4.72351C44.9489 4.67357 44.924 4.61335 44.924 4.54285C44.924 4.47235 44.9489 4.4114 44.9988 4.35999C45.0487 4.30858 45.1103 4.28288 45.1836 4.28288Z" fill="white"/>
</mask>
<g mask="url(#mask0_277_3306)">
<path d="M54.9999 0V2.16338L55 26.3494C55 42.2159 42.1559 55.0782 26.312 55.0782L0 55.0782L2.47234e-05 28.7288C2.47234e-05 12.8623 12.8441 0 28.688 0H54.9999ZM52.8884 2.16336L28.7363 2.16338C14.2056 2.16338 2.39858 13.8417 2.1639 28.3371L2.16034 28.7772L2.16034 52.9637L26.2246 52.9638C40.8034 52.9638 52.6495 41.2468 52.885 26.7034L52.8886 26.2619L52.8884 2.16336ZM38.8564 9.54836C39.2172 9.54836 39.4929 9.69376 39.6836 9.98458V9.60564H40.062V11.7162L40.0616 11.7497C40.0543 12.0597 39.9444 12.3019 39.732 12.4763C39.512 12.657 39.248 12.7473 38.94 12.7473C38.6936 12.7473 38.4809 12.701 38.302 12.6085C38.1231 12.516 37.9881 12.383 37.8972 12.2097L38.2316 12.0203L38.2429 12.0424C38.3665 12.2744 38.6018 12.3904 38.9488 12.3904C39.1776 12.3904 39.3573 12.3302 39.4878 12.2097C39.6183 12.0893 39.6836 11.9248 39.6836 11.7162V11.4034L39.6658 11.4297C39.4732 11.7059 39.2034 11.844 38.8564 11.844C38.5425 11.844 38.2771 11.7324 38.06 11.5091C37.8429 11.2859 37.7344 11.0142 37.7344 10.694C37.7344 10.3738 37.8429 10.1028 38.06 9.88103C38.2771 9.65925 38.5425 9.54836 38.8564 9.54836ZM48.9544 9.60564L49.7024 11.3329L50.336 9.60564H50.7452L49.8476 11.9454L49.8325 11.9843C49.7398 12.2149 49.6136 12.3921 49.4538 12.516C49.2851 12.6467 49.0908 12.7047 48.8708 12.69V12.3331L48.8938 12.3345C49.1519 12.345 49.3423 12.1947 49.4648 11.8837L49.5044 11.8L48.5452 9.60564H48.9544ZM47.2516 9.54836C47.4687 9.54836 47.6637 9.6005 47.8368 9.70478C48.0099 9.80906 48.1389 9.94932 48.224 10.1256L47.9028 10.3106L47.8904 10.2858C47.8347 10.1798 47.753 10.0941 47.6454 10.0286C47.5295 9.95814 47.3983 9.92289 47.2516 9.92289C47.0316 9.92289 46.8475 9.99779 46.6994 10.1476C46.5513 10.2974 46.4772 10.484 46.4772 10.7072C46.4772 10.9275 46.5513 11.1126 46.6994 11.2624C46.8475 11.4122 47.0316 11.4871 47.2516 11.4871C47.3983 11.4871 47.5303 11.4526 47.6476 11.3836C47.7649 11.3145 47.8544 11.2213 47.916 11.1038L48.2416 11.2932L48.2235 11.3253C48.1307 11.4838 48.0018 11.6119 47.8368 11.7096C47.6608 11.8139 47.4657 11.866 47.2516 11.866C46.9201 11.866 46.6444 11.7552 46.4244 11.5334C46.2044 11.3116 46.0944 11.0362 46.0944 10.7072C46.0944 10.3782 46.2044 10.1028 46.4244 9.88103C46.6444 9.65925 46.9201 9.54836 47.2516 9.54836ZM41.8484 9.54836C42.1711 9.54836 42.4343 9.66218 42.6382 9.88984C42.8421 10.1175 42.944 10.3914 42.944 10.7116C42.944 10.7674 42.9396 10.8247 42.9308 10.8835H41.0872L41.0937 10.9142C41.135 11.0962 41.223 11.2387 41.3578 11.3417C41.5001 11.4504 41.6753 11.5047 41.8836 11.5047C42.174 11.5047 42.3852 11.3975 42.5172 11.1831L42.8428 11.3681L42.8252 11.3947C42.6111 11.7089 42.2943 11.866 41.8748 11.866C41.5257 11.866 41.2419 11.7566 41.0234 11.5378C40.8049 11.3189 40.6956 11.0421 40.6956 10.7072C40.6956 10.3753 40.8027 10.0991 41.0168 9.87882C41.2309 9.65851 41.5081 9.54836 41.8484 9.54836ZM35.8864 9.54836C36.2501 9.54836 36.5273 9.69376 36.718 9.98458V9.60564H37.1008V11.8088H36.718V11.4298L36.7004 11.4559C36.5105 11.7293 36.2391 11.866 35.8864 11.866C35.5784 11.866 35.3159 11.7537 35.0988 11.529C34.8817 11.3042 34.7732 11.0303 34.7732 10.7072C34.7732 10.3841 34.8817 10.1102 35.0988 9.88543C35.3159 9.66072 35.5784 9.54836 35.8864 9.54836ZM44.6556 9.54836C44.9137 9.54836 45.1205 9.62987 45.276 9.7929C45.4315 9.95593 45.5092 10.177 45.5092 10.456V11.8088H45.1264V10.4781L45.126 10.4486C45.1209 10.2836 45.0726 10.1546 44.9812 10.0617C44.8844 9.96328 44.7509 9.91407 44.5808 9.91407C44.3901 9.91407 44.2361 9.97356 44.1188 10.0925C44.0015 10.2115 43.9428 10.3944 43.9428 10.6411V11.8088H43.56V9.60564H43.9428V9.92289L43.9581 9.89911C44.1137 9.66528 44.3462 9.54836 44.6556 9.54836ZM35.9348 9.91848C35.7148 9.91848 35.53 9.99412 35.3804 10.1454C35.2308 10.2967 35.156 10.484 35.156 10.7072C35.156 10.9305 35.2308 11.1177 35.3804 11.269C35.53 11.4203 35.7148 11.4959 35.9348 11.4959C36.1577 11.4959 36.344 11.4203 36.4936 11.269C36.6432 11.1177 36.718 10.9305 36.718 10.7072C36.718 10.484 36.6432 10.2967 36.4936 10.1454C36.344 9.99412 36.1577 9.91848 35.9348 9.91848ZM38.9004 9.91407C38.6775 9.91407 38.4912 9.98898 38.3416 10.1388C38.192 10.2886 38.1172 10.4737 38.1172 10.694C38.1172 10.9172 38.192 11.1038 38.3416 11.2536C38.4912 11.4034 38.6775 11.4783 38.9004 11.4783C39.1233 11.4783 39.3096 11.4034 39.4592 11.2536C39.6088 11.1038 39.6836 10.9172 39.6836 10.694C39.6836 10.4737 39.6088 10.2886 39.4592 10.1388C39.3096 9.98898 39.1233 9.91407 38.9004 9.91407ZM41.8484 9.90967C41.6431 9.90967 41.4729 9.96768 41.338 10.0837C41.2031 10.1997 41.1195 10.3547 41.0872 10.5486H42.5568C42.5245 10.34 42.4424 10.1814 42.3104 10.0727C42.1784 9.96401 42.0244 9.90967 41.8484 9.90967ZM38.4956 5.1421C38.8183 5.1421 39.0815 5.25593 39.2854 5.48358C39.4893 5.71124 39.5912 5.98516 39.5912 6.30535C39.5912 6.36116 39.5868 6.41845 39.578 6.4772H37.7344L37.7409 6.50791C37.7822 6.68997 37.8702 6.83248 38.005 6.93545C38.1473 7.04413 38.3225 7.09848 38.5308 7.09848C38.8212 7.09848 39.0324 6.99126 39.1644 6.77682L39.49 6.96188L39.4724 6.98843C39.2584 7.30267 38.9416 7.45979 38.522 7.45979C38.1729 7.45979 37.8891 7.35037 37.6706 7.13152C37.4521 6.91268 37.3428 6.63582 37.3428 6.30095C37.3428 5.96901 37.4499 5.69288 37.664 5.47257C37.8781 5.25226 38.1553 5.1421 38.4956 5.1421ZM41.1928 5.1421C41.5565 5.1421 41.8337 5.28751 42.0244 5.57832V5.19938H42.4072V7.40251H42.0244V7.02357L42.0068 7.04961C41.8169 7.32306 41.5455 7.45979 41.1928 7.45979C40.8848 7.45979 40.6223 7.34743 40.4052 7.12271C40.1881 6.89799 40.0796 6.62407 40.0796 6.30095C40.0796 5.97782 40.1881 5.7039 40.4052 5.47918C40.6223 5.25446 40.8848 5.1421 41.1928 5.1421ZM49.5308 5.1421C49.8535 5.1421 50.1167 5.25593 50.3206 5.48358C50.5245 5.71124 50.6264 5.98516 50.6264 6.30535C50.6264 6.36116 50.622 6.41845 50.6132 6.4772H48.7696L48.7761 6.50791C48.8174 6.68997 48.9054 6.83248 49.0402 6.93545C49.1825 7.04413 49.3577 7.09848 49.566 7.09848C49.8564 7.09848 50.0676 6.99126 50.1996 6.77682L50.5252 6.96188L50.5076 6.98843C50.2935 7.30267 49.9767 7.45979 49.5572 7.45979C49.2081 7.45979 48.9243 7.35037 48.7058 7.13152C48.4873 6.91268 48.378 6.63582 48.378 6.30095C48.378 5.96901 48.4851 5.69288 48.6992 5.47257C48.9133 5.25226 49.1905 5.1421 49.5308 5.1421ZM34.4168 5.1421C34.6339 5.1421 34.8289 5.19424 35.002 5.29852C35.1751 5.4028 35.3041 5.54307 35.3892 5.71932L35.068 5.90438L35.0556 5.87956C34.9999 5.77357 34.9182 5.68785 34.8106 5.62238C34.6947 5.55188 34.5635 5.51663 34.4168 5.51663C34.1968 5.51663 34.0127 5.59154 33.8646 5.74135C33.7165 5.89116 33.6424 6.07769 33.6424 6.30095C33.6424 6.52126 33.7165 6.70632 33.8646 6.85613C34.0127 7.00595 34.1968 7.08085 34.4168 7.08085C34.5635 7.08085 34.6955 7.04634 34.8128 6.97731C34.9301 6.90827 35.0196 6.81501 35.0812 6.69751L35.4068 6.88698L35.3887 6.91907C35.2959 7.0775 35.167 7.2056 35.002 7.30337C34.826 7.40765 34.6309 7.45979 34.4168 7.45979C34.0853 7.45979 33.8096 7.3489 33.5896 7.12712C33.3696 6.90534 33.2596 6.62995 33.2596 6.30095C33.2596 5.97194 33.3696 5.69655 33.5896 5.47477C33.8096 5.25299 34.0853 5.1421 34.4168 5.1421ZM43.7756 4.58251V5.19938H44.3608V5.56951H43.7756V6.7636L43.7759 6.78641C43.7787 6.88314 43.7999 6.95265 43.8394 6.99493C43.8819 7.04046 43.9472 7.06396 44.0352 7.06543C44.1232 7.0669 44.2317 7.0647 44.3608 7.05882V7.40251L44.324 7.40711C44.0084 7.44446 43.7757 7.41575 43.626 7.32099C43.4705 7.22259 43.3928 7.03679 43.3928 6.7636V5.56951H42.9572V5.19938H43.3928V4.69707L43.7756 4.58251ZM37.0348 5.15973V5.56069L37.0038 5.55977C36.8292 5.55761 36.6782 5.60786 36.5508 5.71051C36.4159 5.81919 36.3484 5.99398 36.3484 6.23485V7.40251H35.9656V5.19938H36.3484V5.56951L36.3602 5.54505C36.4885 5.28817 36.7134 5.15973 37.0348 5.15973ZM46.2924 5.19938L46.9832 6.99273L47.674 5.19938H48.0876L47.2076 7.40251H46.7588L45.8788 5.19938H46.2924ZM45.3728 5.19938V7.40251H44.99V5.19938H45.3728ZM41.2412 5.51223C41.0212 5.51223 40.8364 5.58787 40.6868 5.73915C40.5372 5.89043 40.4624 6.07769 40.4624 6.30095C40.4624 6.5242 40.5372 6.71146 40.6868 6.86274C40.8364 7.01402 41.0212 7.08966 41.2412 7.08966C41.4641 7.08966 41.6504 7.01402 41.8 6.86274C41.9496 6.71146 42.0244 6.5242 42.0244 6.30095C42.0244 6.07769 41.9496 5.89043 41.8 5.73915C41.6504 5.58787 41.4641 5.51223 41.2412 5.51223ZM38.4956 5.50341C38.2903 5.50341 38.1201 5.56143 37.9852 5.67746C37.8503 5.79349 37.7667 5.94844 37.7344 6.14232H39.204C39.1717 5.93376 39.0896 5.77513 38.9576 5.66644C38.8256 5.55776 38.6716 5.50341 38.4956 5.50341ZM49.5308 5.50341C49.3255 5.50341 49.1553 5.56143 49.0204 5.67746C48.8855 5.79349 48.8019 5.94844 48.7696 6.14232H50.2392C50.2069 5.93376 50.1248 5.77513 49.9928 5.66644C49.8608 5.55776 49.7068 5.50341 49.5308 5.50341ZM45.1836 4.28288C45.254 4.28288 45.3141 4.30858 45.364 4.35999C45.4139 4.4114 45.4388 4.47235 45.4388 4.54285C45.4388 4.61335 45.4139 4.67357 45.364 4.72351C45.3141 4.77344 45.254 4.79841 45.1836 4.79841C45.1103 4.79841 45.0487 4.77344 44.9988 4.72351C44.9489 4.67357 44.924 4.61335 44.924 4.54285C44.924 4.47235 44.9489 4.4114 44.9988 4.35999C45.0487 4.30858 45.1103 4.28288 45.1836 4.28288Z" fill="url(#paint0_linear_277_3306)"/>
<rect x="-45.9355" y="-19.2114" width="103.048" height="77.462"/>
<path d="M57.1124 -19.2114H-45.9355V58.2506H57.1124V-19.2114Z" fill="url(#paint1_linear_277_3306)"/>
</g>
<path d="M9.11604 41.5069V29.7158H6.89844V41.5069H9.11604ZM14.0088 31.7779V29.3633H11.58V31.7779H14.0088ZM13.9032 41.5069V33.135H11.6856V41.5069H13.9032ZM18.6904 41.5069V37.2769C18.6904 36.5837 18.8752 36.0226 19.2448 35.5937C19.6144 35.1649 20.0867 34.9504 20.6616 34.9504C21.8819 34.9504 22.492 35.5967 22.492 36.8892V41.5069H24.7096V37.2769C24.7096 36.5837 24.8944 36.0226 25.264 35.5937C25.6336 35.1649 26.1059 34.9504 26.6808 34.9504C27.9011 34.9504 28.5112 35.5967 28.5112 36.8892V41.5069H30.7288V36.4838C30.7288 35.391 30.3886 34.5215 29.708 33.8753C29.0275 33.229 28.1475 32.9059 27.068 32.9059C25.7539 32.9059 24.7566 33.3289 24.076 34.1749C23.4776 33.3289 22.4803 32.9059 21.084 32.9059C20.0632 32.9059 19.2654 33.1938 18.6904 33.7695V33.135H16.4728V41.5069H18.6904ZM37.1528 41.736C38.068 41.736 38.9011 41.4864 39.652 40.987C40.403 40.4876 40.9427 39.8149 41.2712 38.9689H38.8776C38.4904 39.4507 37.9155 39.6915 37.1528 39.6915C36.6014 39.6915 36.1232 39.5447 35.7184 39.2509C35.3136 38.9572 35.0526 38.5577 34.9352 38.0524H41.3768C41.4003 37.9232 41.412 37.6647 41.412 37.2769C41.412 36.0314 41.0072 34.9915 40.1976 34.1573C39.388 33.323 38.3438 32.9059 37.0648 32.9059C35.7742 32.9059 34.7123 33.326 33.8792 34.1661C33.0462 35.0062 32.6296 36.0549 32.6296 37.3122C32.6296 38.5812 33.0579 39.6357 33.9144 40.4759C34.771 41.316 35.8504 41.736 37.1528 41.736ZM39.0536 36.3957H34.988C35.0584 35.9257 35.2931 35.5438 35.692 35.25C36.091 34.9563 36.5486 34.8094 37.0648 34.8094C37.5928 34.8094 38.0387 34.9534 38.4024 35.2412C38.7662 35.5291 38.9832 35.9139 39.0536 36.3957Z" fill="#B5DD1D"/>
<path d="M50.548 55.0781C51.5562 55.0781 52.3347 54.8016 52.8837 54.2486V54.858H55.0009V19.4756H52.8837V47.4429C52.3235 46.8785 51.545 46.5964 50.548 46.5964C49.3158 46.5964 48.3272 47.014 47.5823 47.8492C46.8373 48.6844 46.4648 49.6832 46.4648 50.8457C46.4648 52.0082 46.8345 53.0071 47.5739 53.8423C48.3244 54.6662 49.3158 55.0781 50.548 55.0781ZM50.675 53.0513C50.0693 53.0513 49.5681 52.8341 49.1716 52.3997C48.7751 51.9653 48.5768 51.4362 48.5768 50.8124C48.5768 50.1998 48.7751 49.6707 49.1716 49.2252C49.5681 48.7796 50.0693 48.5569 50.675 48.5569C51.2698 48.5569 51.7874 48.7546 52.228 49.15C52.6686 49.5454 52.8889 50.0996 52.8889 50.8124C52.8889 51.5253 52.6713 52.0766 52.2363 52.4665C51.8012 52.8563 51.2808 53.0513 50.675 53.0513Z" fill="url(#paint2_linear_277_3306)"/>
<defs>
<linearGradient id="paint0_linear_277_3306" x1="57.6142" y1="-2.04764e-07" x2="27.4341" y2="55.0421" gradientUnits="userSpaceOnUse">
<stop stop-color="#CCF72B"/>
<stop offset="1" stop-color="#3A983B"/>
</linearGradient>
<linearGradient id="paint1_linear_277_3306" x1="57.1124" y1="6.59424" x2="18.755" y2="52.3747" gradientUnits="userSpaceOnUse">
<stop stop-color="#CBFB1A"/>
<stop offset="1" stop-color="#73A9EB"/>
</linearGradient>
<linearGradient id="paint2_linear_277_3306" x1="50.9256" y1="19.4756" x2="49.7282" y2="55.0401" gradientUnits="userSpaceOnUse">
<stop stop-color="#B6E74A"/>
<stop offset="1" stop-color="#77AEEA"/>
</linearGradient>
</defs>
</svg>
