<svg width="135" height="47" viewBox="0 0 135 47" fill="none" xmlns="http://www.w3.org/2000/svg">
<path d="M50.373 3.09961C50.373 3.25195 50.3392 3.39583 50.2715 3.53125L50.0938 3.91211C50.043 4.0306 49.9922 4.15755 49.9414 4.29297C49.8906 4.42839 49.8737 4.58919 49.8906 4.77539C49.6536 5.04622 49.4167 5.30859 49.1797 5.5625C48.9427 5.81641 48.7311 6.10417 48.5449 6.42578C48.3587 6.40885 48.2148 6.45117 48.1133 6.55273C48.0286 6.6543 47.9609 6.78971 47.9102 6.95898C47.5547 7.07747 47.2415 7.26367 46.9707 7.51758C46.6999 7.75456 46.4629 8.01693 46.2598 8.30469C45.3626 8.67708 44.5247 9.13411 43.7461 9.67578C42.9674 10.2174 42.2565 10.8522 41.6133 11.5801C41.918 11.5801 42.2142 11.6139 42.502 11.6816C42.8066 11.7493 43.1029 11.8255 43.3906 11.9102C43.6953 11.9779 43.9915 12.0456 44.2793 12.1133C44.5671 12.1641 44.8633 12.1725 45.168 12.1387C45.388 12.3418 45.6335 12.5111 45.9043 12.6465C46.1921 12.7819 46.4714 12.9089 46.7422 13.0273C47.0299 13.1458 47.3008 13.2812 47.5547 13.4336C47.8255 13.5859 48.0625 13.7721 48.2656 13.9922C48.2656 14.026 48.2572 14.0599 48.2402 14.0938C48.2402 14.1107 48.2402 14.1361 48.2402 14.1699C48.2402 14.3053 48.2741 14.4408 48.3418 14.5762C48.4095 14.6947 48.4434 14.8216 48.4434 14.957C48.3587 15.0924 48.2826 15.2363 48.2148 15.3887C48.1471 15.541 48.0625 15.6764 47.9609 15.7949C47.8763 15.9134 47.7747 16.015 47.6562 16.0996C47.5378 16.1842 47.377 16.235 47.1738 16.252C47.0892 16.5397 46.9538 16.7682 46.7676 16.9375C46.5814 17.0898 46.3698 17.2337 46.1328 17.3691C45.9128 17.4876 45.6927 17.6146 45.4727 17.75C45.2526 17.8685 45.0664 18.0293 44.9141 18.2324C44.4062 18.3509 43.9069 18.5202 43.416 18.7402C42.9421 18.9434 42.5189 19.2396 42.1465 19.6289C41.8926 19.6628 41.6302 19.7051 41.3594 19.7559C41.1055 19.7897 40.8516 19.8066 40.5977 19.8066C40.2422 19.8066 39.9544 19.7389 39.7344 19.6035C39.5143 19.4512 39.3874 19.1803 39.3535 18.791C39.4043 18.6725 39.4805 18.571 39.582 18.4863L39.9121 18.2324C40.0306 18.1478 40.1322 18.0632 40.2168 17.9785C40.3184 17.877 40.3945 17.7585 40.4453 17.623C40.4792 17.623 40.5215 17.6315 40.5723 17.6484C40.623 17.6484 40.6738 17.6484 40.7246 17.6484C40.9277 17.6484 41.0885 17.6061 41.207 17.5215C41.3255 17.4368 41.4355 17.3522 41.5371 17.2676C41.6556 17.1829 41.7826 17.1068 41.918 17.0391C42.0534 16.9714 42.2311 16.946 42.4512 16.9629C42.5697 16.7428 42.7474 16.582 42.9844 16.4805C43.2214 16.362 43.4668 16.2604 43.7207 16.1758C43.9746 16.0742 44.2116 15.9642 44.4316 15.8457C44.6686 15.7103 44.8294 15.5156 44.9141 15.2617C44.8294 15.1263 44.7194 15.0247 44.584 14.957C44.4486 14.8724 44.2962 14.8047 44.127 14.7539L43.6445 14.6016C43.4922 14.5508 43.3568 14.4915 43.2383 14.4238C43.0521 14.4746 42.8743 14.5 42.7051 14.5C42.3496 14.5 42.0026 14.4661 41.6641 14.3984C41.3255 14.3307 40.9785 14.2969 40.623 14.2969C40.3014 14.2969 40.0221 14.3392 39.7852 14.4238C39.7005 14.4069 39.6074 14.3815 39.5059 14.3477C39.4212 14.3138 39.3366 14.2799 39.252 14.2461C38.8626 14.3984 38.4564 14.4746 38.0332 14.4746H36.3828C36.2474 14.4746 36.112 14.4915 35.9766 14.5254C35.7904 14.8639 35.6973 15.2279 35.6973 15.6172C35.6973 15.9049 35.7396 16.1842 35.8242 16.4551C35.9089 16.709 35.9935 16.9798 36.0781 17.2676C36.4167 17.5723 36.7298 17.9362 37.0176 18.3594C37.3053 18.7656 37.4492 19.2142 37.4492 19.7051C37.4492 19.8236 37.4408 19.9167 37.4238 19.9844C37.2546 19.8659 37.0345 19.8066 36.7637 19.8066C36.5267 19.8066 36.2982 19.8405 36.0781 19.9082C35.875 19.9759 35.6549 20.0267 35.418 20.0605C35.2318 19.9759 35.0371 19.8913 34.834 19.8066C34.6309 19.7051 34.4362 19.5866 34.25 19.4512C34.1146 19.1634 33.9792 18.8926 33.8438 18.6387C33.7083 18.3678 33.5391 18.1139 33.3359 17.877V17.7754C33.3359 17.1829 33.2852 16.599 33.1836 16.0234C33.099 15.4479 33.0566 14.8639 33.0566 14.2715C33.0566 14.0007 33.0651 13.7298 33.082 13.459C33.1159 13.1712 33.2005 12.9089 33.3359 12.6719C33.2852 12.2656 33.2598 11.8424 33.2598 11.4023C33.2598 10.5221 33.3105 9.64193 33.4121 8.76172C33.5137 7.88151 33.5645 6.98438 33.5645 6.07031C33.5645 5.88411 33.556 5.69792 33.5391 5.51172C33.5391 5.32552 33.5306 5.13932 33.5137 4.95312H33.4121C33.1921 4.95312 32.9805 4.98698 32.7773 5.05469C32.5742 5.10547 32.3711 5.16471 32.168 5.23242C31.9648 5.30013 31.7533 5.36784 31.5332 5.43555C31.3132 5.48633 31.0931 5.51172 30.873 5.51172C30.7376 5.57943 30.6276 5.64714 30.543 5.71484C30.4583 5.78255 30.3737 5.8418 30.2891 5.89258C30.2044 5.94336 30.1113 5.98568 30.0098 6.01953C29.8913 6.05339 29.7559 6.06185 29.6035 6.04492C29.4173 6.16341 29.2734 6.25651 29.1719 6.32422C29.0534 6.375 28.8926 6.43424 28.6895 6.50195C28.5879 6.53581 28.5033 6.58659 28.4355 6.6543L28.2324 6.83203C28.1647 6.88281 28.0885 6.93359 28.0039 6.98438C27.9193 7.03516 27.8092 7.06055 27.6738 7.06055C27.5553 7.06055 27.4707 7.05208 27.4199 7.03516C27.3184 6.95052 27.2337 6.84896 27.166 6.73047C27.0814 6.61198 27.0052 6.50195 26.9375 6.40039C26.8529 6.2819 26.7682 6.18034 26.6836 6.0957C26.582 5.99414 26.4635 5.91797 26.3281 5.86719C26.3958 5.78255 26.4297 5.71484 26.4297 5.66406C26.4128 5.59635 26.4043 5.52018 26.4043 5.43555C26.4043 5.38477 26.4128 5.35091 26.4297 5.33398C26.5143 5.0293 26.6667 4.79232 26.8867 4.62305C27.1068 4.43685 27.3522 4.29297 27.623 4.19141C27.8939 4.07292 28.1732 3.97135 28.4609 3.88672C28.7318 3.80208 28.9857 3.70052 29.2227 3.58203C29.8828 3.59896 30.4837 3.53971 31.0254 3.4043C31.5671 3.25195 32.1257 3.04036 32.7012 2.76953C32.8027 2.82031 32.9043 2.8457 33.0059 2.8457C33.0905 2.8457 33.1751 2.83724 33.2598 2.82031L33.5137 2.76953C33.7168 2.60026 33.9368 2.49023 34.1738 2.43945C34.4108 2.38867 34.6478 2.34635 34.8848 2.3125C35.1217 2.27865 35.3503 2.24479 35.5703 2.21094C35.7904 2.16016 35.985 2.06706 36.1543 1.93164H36.2559C36.6621 1.93164 37.0684 1.86393 37.4746 1.72852C37.8978 1.5931 38.304 1.54232 38.6934 1.57617C39.0319 1.38997 39.3451 1.27148 39.6328 1.2207C39.9206 1.16992 40.2507 1.14453 40.623 1.14453C40.7077 1.14453 40.8092 1.11068 40.9277 1.04297C41.0462 0.958333 41.1901 0.916016 41.3594 0.916016C41.3932 0.916016 41.4186 0.924479 41.4355 0.941406C41.4694 0.941406 41.5033 0.941406 41.5371 0.941406C41.6895 0.941406 41.791 0.890625 41.8418 0.789062C41.9095 0.6875 42.0703 0.636719 42.3242 0.636719C42.4427 0.636719 42.5527 0.645182 42.6543 0.662109C42.7559 0.662109 42.8574 0.662109 42.959 0.662109C43.0775 0.662109 43.1536 0.619792 43.1875 0.535156C43.2214 0.433594 43.2975 0.391276 43.416 0.408203C43.4668 0.475911 43.5514 0.509766 43.6699 0.509766C43.7884 0.492839 43.8815 0.484375 43.9492 0.484375C44.0677 0.484375 44.1354 0.518229 44.1523 0.585938C44.4232 0.416667 44.7194 0.306641 45.041 0.255859C45.3796 0.205078 45.7012 0.179688 46.0059 0.179688C46.1243 0.179688 46.2428 0.188151 46.3613 0.205078C46.4798 0.205078 46.6068 0.213542 46.7422 0.230469C46.8945 0.128906 47.0723 0.078125 47.2754 0.078125C47.3939 0.078125 47.5801 0.128906 47.834 0.230469C48.1048 0.332031 48.3841 0.450521 48.6719 0.585938C48.9596 0.721354 49.222 0.865234 49.459 1.01758C49.696 1.16992 49.8398 1.29688 49.8906 1.39844C49.9245 1.43229 49.9414 1.50846 49.9414 1.62695C49.9583 1.74544 49.9837 1.84701 50.0176 1.93164C50.1022 2.13477 50.1784 2.32943 50.2461 2.51562C50.3307 2.6849 50.373 2.87956 50.373 3.09961ZM47.5547 3.37891C47.5547 3.34505 47.5462 3.3112 47.5293 3.27734C47.5293 3.22656 47.5293 3.18424 47.5293 3.15039C47.4447 3.04883 47.3262 2.97266 47.1738 2.92188C47.0384 2.87109 46.8861 2.82878 46.7168 2.79492C46.5645 2.76107 46.4036 2.73568 46.2344 2.71875C46.082 2.6849 45.9466 2.64258 45.8281 2.5918C45.4727 2.71029 45.0833 2.76953 44.6602 2.76953C44.2708 2.76953 43.9238 2.71029 43.6191 2.5918C43.4668 2.74414 43.2721 2.86263 43.0352 2.94727C42.7982 3.0319 42.5443 3.09961 42.2734 3.15039C42.0195 3.18424 41.7572 3.20964 41.4863 3.22656C41.2324 3.22656 41.0039 3.22656 40.8008 3.22656C40.7331 3.22656 40.6146 3.27734 40.4453 3.37891C40.276 3.48047 40.1237 3.53125 39.9883 3.53125C39.8867 3.53125 39.7936 3.48893 39.709 3.4043C39.5566 3.52279 39.3451 3.62435 39.0742 3.70898C38.8034 3.79362 38.5241 3.86979 38.2363 3.9375C37.9486 3.98828 37.6523 4.04753 37.3477 4.11523C37.0599 4.18294 36.8145 4.25065 36.6113 4.31836C36.4082 4.75846 36.2982 5.24089 36.2812 5.76562C36.2643 6.27344 36.2559 6.77279 36.2559 7.26367C36.2559 7.55143 36.2389 7.83073 36.2051 8.10156C36.1712 8.3724 36.1543 8.65169 36.1543 8.93945C36.1543 9.07487 36.1628 9.21875 36.1797 9.37109C36.1966 9.50651 36.2474 9.64193 36.332 9.77734C36.1966 9.87891 36.1035 10.0143 36.0527 10.1836C36.0189 10.3359 36.002 10.4883 36.002 10.6406C36.002 10.8268 36.0189 10.9961 36.0527 11.1484C36.0866 11.3008 36.1204 11.4447 36.1543 11.5801C36.696 11.5293 37.1868 11.4277 37.627 11.2754C38.084 11.123 38.5072 10.9368 38.8965 10.7168C39.3027 10.4967 39.6921 10.2428 40.0645 9.95508C40.4368 9.66732 40.8262 9.36263 41.2324 9.04102C41.4017 9.00716 41.5371 8.95638 41.6387 8.88867C41.7572 8.82096 41.901 8.78711 42.0703 8.78711C42.138 8.55013 42.265 8.38932 42.4512 8.30469C42.6374 8.20312 42.7812 8.05924 42.8828 7.87305C43.0859 7.82227 43.2552 7.75456 43.3906 7.66992C43.543 7.56836 43.6868 7.47526 43.8223 7.39062C43.9577 7.28906 44.1016 7.19596 44.2539 7.11133C44.4232 7.02669 44.6094 6.97591 44.8125 6.95898C45.1003 6.62044 45.3965 6.2819 45.7012 5.94336C46.0228 5.60482 46.3952 5.33398 46.8184 5.13086C46.8861 4.96159 46.9622 4.81771 47.0469 4.69922C47.1315 4.5638 47.2077 4.43685 47.2754 4.31836C47.36 4.18294 47.4277 4.04753 47.4785 3.91211C47.5293 3.75977 47.5547 3.58203 47.5547 3.37891Z" fill="#7AE95E"/>
<path d="M66.7754 6.29883C66.6738 6.45117 66.6146 6.62044 66.5977 6.80664C66.5807 6.99284 66.5723 7.16211 66.5723 7.31445C66.5723 7.51758 66.5723 7.7207 66.5723 7.92383C66.5892 8.11003 66.5977 8.29622 66.5977 8.48242V8.86328C66.5638 8.98177 66.513 9.10026 66.4453 9.21875C66.3776 9.33724 66.3268 9.45573 66.293 9.57422C66.056 10.2005 65.9375 10.8268 65.9375 11.4531V11.5039C65.8529 11.707 65.7682 11.8932 65.6836 12.0625C65.6159 12.2318 65.5482 12.401 65.4805 12.5703C65.4128 12.7227 65.362 12.8919 65.3281 13.0781C65.2943 13.2474 65.2858 13.4505 65.3027 13.6875C65.0658 14.2799 64.7526 14.8216 64.3633 15.3125C63.974 15.7865 63.5931 16.2773 63.2207 16.7852C62.8652 16.9206 62.5352 17.0983 62.2305 17.3184C61.9427 17.5384 61.6634 17.7839 61.3926 18.0547C60.8678 18.224 60.3516 18.4186 59.8438 18.6387C59.3359 18.8587 58.8789 19.1549 58.4727 19.5273C58.151 19.5612 57.8294 19.612 57.5078 19.6797C57.1862 19.7474 56.873 19.849 56.5684 19.9844H56.2637C56.1113 19.9844 56.0013 19.9505 55.9336 19.8828C55.7135 20.0013 55.485 20.0859 55.248 20.1367C55.0111 20.1706 54.7741 20.1875 54.5371 20.1875C54.2324 20.1875 53.9277 20.1706 53.623 20.1367C53.3353 20.0859 53.0391 20.0352 52.7344 19.9844C52.5651 19.7474 52.3281 19.5697 52.0234 19.4512C51.7188 19.3158 51.4479 19.1888 51.2109 19.0703C50.7201 18.3932 50.3646 17.7415 50.1445 17.1152C49.9245 16.472 49.696 15.7526 49.459 14.957C49.4928 14.7201 49.5521 14.4915 49.6367 14.2715C49.7214 14.0345 49.7552 13.7806 49.7383 13.5098C50.043 12.6296 50.4408 11.834 50.9316 11.123C51.4395 10.3952 52.015 9.70117 52.6582 9.04102C52.6582 8.93945 52.6751 8.85482 52.709 8.78711C52.7598 8.7194 52.7682 8.61784 52.7344 8.48242C52.7513 8.49935 52.7852 8.50781 52.8359 8.50781C52.9714 8.50781 53.056 8.47396 53.0898 8.40625C53.1237 8.32161 53.1322 8.22852 53.1152 8.12695C53.7246 7.73763 54.2747 7.28906 54.7656 6.78125C55.2734 6.27344 55.849 5.85026 56.4922 5.51172C56.543 5.35938 56.6276 5.23242 56.7461 5.13086C56.8646 5.0293 56.9577 4.91081 57.0254 4.77539C57.5671 4.62305 58.0579 4.39453 58.498 4.08984C58.9382 3.78516 59.4036 3.51432 59.8945 3.27734C60.1654 3.125 60.4193 3.02344 60.6562 2.97266C60.9102 2.90495 61.181 2.83724 61.4688 2.76953C61.5703 2.73568 61.6634 2.71029 61.748 2.69336C61.8327 2.67643 61.9258 2.66797 62.0273 2.66797C62.332 2.66797 62.6283 2.72721 62.916 2.8457C63.2038 2.94727 63.5 2.99805 63.8047 2.99805C63.8893 2.99805 63.957 2.99805 64.0078 2.99805C64.0755 2.98112 64.1432 2.96419 64.2109 2.94727C64.4987 3.30273 64.8626 3.57357 65.3027 3.75977C65.4043 4.01367 65.5228 4.23372 65.6582 4.41992C65.8105 4.60612 65.9629 4.79232 66.1152 4.97852C66.2676 5.14779 66.403 5.34245 66.5215 5.5625C66.6569 5.76562 66.7415 6.01107 66.7754 6.29883ZM64.2363 7.61914C64.2363 7.53451 64.2279 7.45833 64.2109 7.39062C64.0417 7.33984 63.8809 7.27214 63.7285 7.1875C63.5762 7.10286 63.4069 7.06055 63.2207 7.06055C63.1022 7.06055 62.9837 7.08594 62.8652 7.13672C62.8483 7.01823 62.7975 6.93359 62.7129 6.88281C62.6452 6.83203 62.5605 6.78971 62.459 6.75586C62.3743 6.70508 62.2812 6.67122 62.1797 6.6543C62.0951 6.62044 62.0189 6.56966 61.9512 6.50195C61.9004 6.36654 61.8411 6.23112 61.7734 6.0957C61.7227 5.94336 61.6211 5.83333 61.4688 5.76562C61.3164 5.91797 61.1387 6.04492 60.9355 6.14648C60.7324 6.23112 60.5208 6.31576 60.3008 6.40039C60.0977 6.48503 59.8945 6.58659 59.6914 6.70508C59.5052 6.82357 59.3444 6.96745 59.209 7.13672H58.752C58.6504 7.32292 58.5065 7.4668 58.3203 7.56836C58.1341 7.65299 57.9733 7.77995 57.8379 7.94922C57.5671 8.08464 57.3132 8.25391 57.0762 8.45703C56.8561 8.64323 56.6361 8.84635 56.416 9.06641C56.196 9.26953 55.9759 9.48112 55.7559 9.70117C55.5527 9.92122 55.3327 10.1243 55.0957 10.3105C54.8757 10.7845 54.6302 11.1992 54.3594 11.5547C54.1055 11.8932 53.86 12.2402 53.623 12.5957C53.403 12.9512 53.2083 13.3405 53.0391 13.7637C52.8867 14.1699 52.8105 14.6777 52.8105 15.2871V15.541C52.8105 15.6257 52.819 15.7103 52.8359 15.7949C53.056 16.0319 53.2337 16.2858 53.3691 16.5566C53.5215 16.8275 53.7669 17.0221 54.1055 17.1406C54.444 17.276 54.7995 17.3353 55.1719 17.3184C55.5612 17.3014 55.9336 17.3438 56.2891 17.4453C57.1016 17.293 57.8802 17.0475 58.625 16.709C59.3867 16.3535 60.1061 15.9303 60.7832 15.4395C60.8848 15.3548 61.0033 15.2702 61.1387 15.1855C61.2741 15.084 61.3841 14.9824 61.4688 14.8809C61.5534 14.7962 61.6211 14.7031 61.6719 14.6016C61.7396 14.5 61.8073 14.4069 61.875 14.3223C62.0104 14.1022 62.1628 13.8822 62.332 13.6621C62.5013 13.4421 62.679 13.2389 62.8652 13.0527C62.9499 12.6803 63.0599 12.3249 63.1953 11.9863C63.3307 11.6309 63.4661 11.2839 63.6016 10.9453C63.737 10.6068 63.847 10.2598 63.9316 9.9043C64.0332 9.54883 64.084 9.17643 64.084 8.78711C64.084 8.70247 64.0755 8.60938 64.0586 8.50781C64.0586 8.40625 64.0501 8.31315 64.0332 8.22852C64.1686 8.04232 64.2363 7.83919 64.2363 7.61914Z" fill="#7AE95E"/>
<path d="M81.959 17.8008C81.959 18.0885 81.8828 18.3424 81.7305 18.5625C81.5951 18.7656 81.5443 19.0195 81.5781 19.3242C81.3411 19.4596 81.1465 19.6374 80.9941 19.8574C80.8418 20.0775 80.6979 20.306 80.5625 20.543C79.4453 21.2708 78.2435 21.8548 76.957 22.2949C75.6875 22.752 74.3757 22.9805 73.0215 22.9805C72.9368 22.9805 72.8607 22.9382 72.793 22.8535C72.7253 22.7858 72.6576 22.7096 72.5898 22.625C72.5221 22.5404 72.446 22.4557 72.3613 22.3711C72.2936 22.3034 72.209 22.2695 72.1074 22.2695C71.9889 22.2695 71.8958 22.2949 71.8281 22.3457C71.8281 22.3118 71.8281 22.278 71.8281 22.2441C71.8451 22.2272 71.8535 22.2018 71.8535 22.168C71.8535 21.9648 71.8281 21.7533 71.7773 21.5332C71.7266 21.3301 71.7012 21.127 71.7012 20.9238C71.7012 20.6868 71.7435 20.4922 71.8281 20.3398H72.1328C72.3021 20.3398 72.4629 20.3314 72.6152 20.3145C72.7845 20.2806 72.9622 20.2637 73.1484 20.2637C73.3346 20.2637 73.5039 20.3145 73.6562 20.416C74.5872 20.3822 75.4674 20.2129 76.2969 19.9082C77.1432 19.5866 77.998 19.2734 78.8613 18.9688C78.9967 18.7826 79.0729 18.5794 79.0898 18.3594C79.1237 18.1224 79.1914 17.9023 79.293 17.6992C78.8529 17.3268 78.4043 17.0391 77.9473 16.8359C77.5072 16.6159 76.9909 16.5397 76.3984 16.6074C76.043 16.3874 75.6621 16.2604 75.2559 16.2266C74.8665 16.1927 74.4688 16.1419 74.0625 16.0742C73.9609 16.0573 73.8509 16.0404 73.7324 16.0234C73.6309 15.9896 73.5208 15.9727 73.4023 15.9727C73.3177 15.9727 73.2331 15.998 73.1484 16.0488C73.0807 16.0827 73.0638 16.1419 73.0977 16.2266C73.013 16.0911 72.8945 16.015 72.7422 15.998C72.6068 15.9642 72.4883 15.8965 72.3867 15.7949C71.8451 15.7611 71.3711 15.668 70.9648 15.5156C70.5586 15.3464 70.11 15.1602 69.6191 14.957C69.4837 14.9062 69.3483 14.8724 69.2129 14.8555C69.0944 14.8216 68.9759 14.7708 68.8574 14.7031C68.5527 14.5508 68.3073 14.3477 68.1211 14.0938C67.9349 13.8398 67.791 13.5605 67.6895 13.2559C67.571 12.9342 67.4863 12.6042 67.4355 12.2656C67.3848 11.9271 67.334 11.6139 67.2832 11.3262C67.4355 11.0553 67.5794 10.776 67.7148 10.4883C67.8333 10.2005 67.9349 9.89583 68.0195 9.57422C68.1211 9.52344 68.2227 9.48112 68.3242 9.44727C68.4258 9.41341 68.5358 9.37109 68.6543 9.32031C68.6374 9.28646 68.6289 9.24414 68.6289 9.19336C68.6289 9.10872 68.6543 9.02409 68.7051 8.93945C68.7728 8.85482 68.7897 8.77018 68.7559 8.68555C69.1283 8.347 69.4837 8 69.8223 7.64453C70.1777 7.27214 70.4824 6.86589 70.7363 6.42578C70.9902 6.34115 71.1934 6.21419 71.3457 6.04492C71.498 5.87565 71.6504 5.70638 71.8027 5.53711C71.9551 5.35091 72.1243 5.1901 72.3105 5.05469C72.4967 4.90234 72.7337 4.80924 73.0215 4.77539C73.0892 4.6569 73.1823 4.5638 73.3008 4.49609C73.4193 4.41146 73.5378 4.33529 73.6562 4.26758C73.7747 4.19987 73.8848 4.1237 73.9863 4.03906C74.0879 3.95443 74.1641 3.83594 74.2148 3.68359C74.4857 3.68359 74.7311 3.63281 74.9512 3.53125C75.1882 3.42969 75.4167 3.31966 75.6367 3.20117C75.8568 3.08268 76.0768 2.97266 76.2969 2.87109C76.5339 2.76953 76.7878 2.71875 77.0586 2.71875C77.1263 2.71875 77.194 2.72721 77.2617 2.74414C77.3294 2.74414 77.4056 2.7526 77.4902 2.76953C77.6087 2.88802 77.6849 3.0319 77.7188 3.20117C77.7695 3.35352 77.8034 3.52279 77.8203 3.70898C77.8372 3.89518 77.8457 4.08138 77.8457 4.26758C77.8626 4.45378 77.8965 4.62305 77.9473 4.77539C77.7949 5.06315 77.6257 5.35091 77.4395 5.63867C77.2702 5.92643 77.0417 6.14648 76.7539 6.29883H76.7031C76.5846 6.31576 76.4746 6.29036 76.373 6.22266C76.2715 6.15495 76.153 6.12109 76.0176 6.12109C75.9329 6.12109 75.8652 6.14648 75.8145 6.19727L75.6875 6.32422C75.6536 6.35807 75.6029 6.39193 75.5352 6.42578C75.4844 6.45964 75.4082 6.45964 75.3066 6.42578C75.0697 6.51042 74.9766 6.6543 75.0273 6.85742C74.7057 6.89128 74.4349 6.99284 74.2148 7.16211C73.9948 7.31445 73.7917 7.49219 73.6055 7.69531C73.4193 7.88151 73.2331 8.05924 73.0469 8.22852C72.8607 8.38086 72.6406 8.4655 72.3867 8.48242C72.099 8.99023 71.7435 9.4388 71.3203 9.82812C70.9141 10.2174 70.5755 10.6576 70.3047 11.1484C70.3555 11.2839 70.3893 11.4277 70.4062 11.5801C70.4232 11.7324 70.4486 11.8932 70.4824 12.0625C70.6348 12.2656 70.8125 12.4434 71.0156 12.5957C71.2357 12.748 71.4473 12.9004 71.6504 13.0527H71.7266C72.0651 13.0527 72.3783 13.1204 72.666 13.2559C72.9538 13.3743 73.2585 13.4336 73.5801 13.4336C73.7493 13.4336 73.8932 13.3997 74.0117 13.332C74.4518 13.4336 74.8835 13.5182 75.3066 13.5859C75.7467 13.6536 76.1868 13.7044 76.627 13.7383C76.847 13.7721 77.0671 13.7891 77.2871 13.7891C77.5241 13.7891 77.7441 13.8145 77.9473 13.8652C78.1335 13.916 78.3197 13.9837 78.5059 14.0684C78.6921 14.1361 78.8783 14.2122 79.0645 14.2969C79.4538 14.4661 79.8177 14.6523 80.1562 14.8555C80.5117 15.0586 80.8249 15.304 81.0957 15.5918C81.3665 15.8626 81.5781 16.1842 81.7305 16.5566C81.8828 16.9121 81.959 17.3268 81.959 17.8008Z" fill="#7AE95E"/>
<path d="M96.8887 17.8008C96.8887 18.0885 96.8125 18.3424 96.6602 18.5625C96.5247 18.7656 96.474 19.0195 96.5078 19.3242C96.2708 19.4596 96.0762 19.6374 95.9238 19.8574C95.7715 20.0775 95.6276 20.306 95.4922 20.543C94.375 21.2708 93.1732 21.8548 91.8867 22.2949C90.6172 22.752 89.3053 22.9805 87.9512 22.9805C87.8665 22.9805 87.7904 22.9382 87.7227 22.8535C87.6549 22.7858 87.5872 22.7096 87.5195 22.625C87.4518 22.5404 87.3757 22.4557 87.291 22.3711C87.2233 22.3034 87.1387 22.2695 87.0371 22.2695C86.9186 22.2695 86.8255 22.2949 86.7578 22.3457C86.7578 22.3118 86.7578 22.278 86.7578 22.2441C86.7747 22.2272 86.7832 22.2018 86.7832 22.168C86.7832 21.9648 86.7578 21.7533 86.707 21.5332C86.6562 21.3301 86.6309 21.127 86.6309 20.9238C86.6309 20.6868 86.6732 20.4922 86.7578 20.3398H87.0625C87.2318 20.3398 87.3926 20.3314 87.5449 20.3145C87.7142 20.2806 87.8919 20.2637 88.0781 20.2637C88.2643 20.2637 88.4336 20.3145 88.5859 20.416C89.5169 20.3822 90.3971 20.2129 91.2266 19.9082C92.0729 19.5866 92.9277 19.2734 93.791 18.9688C93.9264 18.7826 94.0026 18.5794 94.0195 18.3594C94.0534 18.1224 94.1211 17.9023 94.2227 17.6992C93.7826 17.3268 93.334 17.0391 92.877 16.8359C92.4369 16.6159 91.9206 16.5397 91.3281 16.6074C90.9727 16.3874 90.5918 16.2604 90.1855 16.2266C89.7962 16.1927 89.3984 16.1419 88.9922 16.0742C88.8906 16.0573 88.7806 16.0404 88.6621 16.0234C88.5605 15.9896 88.4505 15.9727 88.332 15.9727C88.2474 15.9727 88.1628 15.998 88.0781 16.0488C88.0104 16.0827 87.9935 16.1419 88.0273 16.2266C87.9427 16.0911 87.8242 16.015 87.6719 15.998C87.5365 15.9642 87.418 15.8965 87.3164 15.7949C86.7747 15.7611 86.3008 15.668 85.8945 15.5156C85.4883 15.3464 85.0397 15.1602 84.5488 14.957C84.4134 14.9062 84.278 14.8724 84.1426 14.8555C84.0241 14.8216 83.9056 14.7708 83.7871 14.7031C83.4824 14.5508 83.237 14.3477 83.0508 14.0938C82.8646 13.8398 82.7207 13.5605 82.6191 13.2559C82.5007 12.9342 82.416 12.6042 82.3652 12.2656C82.3145 11.9271 82.2637 11.6139 82.2129 11.3262C82.3652 11.0553 82.5091 10.776 82.6445 10.4883C82.763 10.2005 82.8646 9.89583 82.9492 9.57422C83.0508 9.52344 83.1523 9.48112 83.2539 9.44727C83.3555 9.41341 83.4655 9.37109 83.584 9.32031C83.5671 9.28646 83.5586 9.24414 83.5586 9.19336C83.5586 9.10872 83.584 9.02409 83.6348 8.93945C83.7025 8.85482 83.7194 8.77018 83.6855 8.68555C84.0579 8.347 84.4134 8 84.752 7.64453C85.1074 7.27214 85.4121 6.86589 85.666 6.42578C85.9199 6.34115 86.123 6.21419 86.2754 6.04492C86.4277 5.87565 86.5801 5.70638 86.7324 5.53711C86.8848 5.35091 87.054 5.1901 87.2402 5.05469C87.4264 4.90234 87.6634 4.80924 87.9512 4.77539C88.0189 4.6569 88.112 4.5638 88.2305 4.49609C88.349 4.41146 88.4674 4.33529 88.5859 4.26758C88.7044 4.19987 88.8145 4.1237 88.916 4.03906C89.0176 3.95443 89.0938 3.83594 89.1445 3.68359C89.4154 3.68359 89.6608 3.63281 89.8809 3.53125C90.1178 3.42969 90.3464 3.31966 90.5664 3.20117C90.7865 3.08268 91.0065 2.97266 91.2266 2.87109C91.4635 2.76953 91.7174 2.71875 91.9883 2.71875C92.056 2.71875 92.1237 2.72721 92.1914 2.74414C92.2591 2.74414 92.3353 2.7526 92.4199 2.76953C92.5384 2.88802 92.6146 3.0319 92.6484 3.20117C92.6992 3.35352 92.7331 3.52279 92.75 3.70898C92.7669 3.89518 92.7754 4.08138 92.7754 4.26758C92.7923 4.45378 92.8262 4.62305 92.877 4.77539C92.7246 5.06315 92.5553 5.35091 92.3691 5.63867C92.1999 5.92643 91.9714 6.14648 91.6836 6.29883H91.6328C91.5143 6.31576 91.4043 6.29036 91.3027 6.22266C91.2012 6.15495 91.0827 6.12109 90.9473 6.12109C90.8626 6.12109 90.7949 6.14648 90.7441 6.19727L90.6172 6.32422C90.5833 6.35807 90.5326 6.39193 90.4648 6.42578C90.4141 6.45964 90.3379 6.45964 90.2363 6.42578C89.9993 6.51042 89.9062 6.6543 89.957 6.85742C89.6354 6.89128 89.3646 6.99284 89.1445 7.16211C88.9245 7.31445 88.7214 7.49219 88.5352 7.69531C88.349 7.88151 88.1628 8.05924 87.9766 8.22852C87.7904 8.38086 87.5703 8.4655 87.3164 8.48242C87.0286 8.99023 86.6732 9.4388 86.25 9.82812C85.8438 10.2174 85.5052 10.6576 85.2344 11.1484C85.2852 11.2839 85.319 11.4277 85.3359 11.5801C85.3529 11.7324 85.3783 11.8932 85.4121 12.0625C85.5645 12.2656 85.7422 12.4434 85.9453 12.5957C86.1654 12.748 86.377 12.9004 86.5801 13.0527H86.6562C86.9948 13.0527 87.3079 13.1204 87.5957 13.2559C87.8835 13.3743 88.1882 13.4336 88.5098 13.4336C88.679 13.4336 88.8229 13.3997 88.9414 13.332C89.3815 13.4336 89.8132 13.5182 90.2363 13.5859C90.6764 13.6536 91.1165 13.7044 91.5566 13.7383C91.7767 13.7721 91.9967 13.7891 92.2168 13.7891C92.4538 13.7891 92.6738 13.8145 92.877 13.8652C93.0631 13.916 93.2494 13.9837 93.4355 14.0684C93.6217 14.1361 93.8079 14.2122 93.9941 14.2969C94.3835 14.4661 94.7474 14.6523 95.0859 14.8555C95.4414 15.0586 95.7546 15.304 96.0254 15.5918C96.2962 15.8626 96.5078 16.1842 96.6602 16.5566C96.8125 16.9121 96.8887 17.3268 96.8887 17.8008Z" fill="#7AE95E"/>
<path d="M6.73348 29.5404C5.47277 30.3888 3.69865 31.5081 2.641 31.206C1.73337 30.9466 3.37288 30.1904 3.56917 30.1413C4.66064 29.8684 5.71051 29.6586 6.73348 29.5404C9.604 29.2088 12.2628 29.5988 15.0348 31.3425C20.1471 34.5583 24.1117 38.9634 28.466 43.0538C29.0681 43.6194 30.5766 45.4588 30.3496 44.6644C29.7612 42.605 28.3139 40.3356 27.4013 38.3583C26.4966 36.3982 25.9592 34.3575 24.9717 32.4344C24.3072 31.1404 21.2255 27.613 23.9889 28.9947C28.8972 31.4489 33.4638 32.1864 39.058 32.216C55.3955 32.3025 71.8207 32.6454 88.1419 31.8338C93.9981 31.5426 99.7723 29.5892 105.559 29.2677C107.731 29.1471 107.112 28.5124 108.398 30.1413C110.831 33.2232 113.829 35.7926 116.315 38.8224C117.574 40.3569 118.217 42.0723 119.29 43.6817C119.664 44.242 119.317 42.335 119.317 41.6615C119.317 37.744 123.185 34.4985 125.705 31.943C127.301 30.3249 129.252 28.3654 131.258 26.9542C131.69 26.6506 132.124 26.3723 132.558 26.1283C133.822 25.4174 133.253 26.1938 132.285 26.5924C131.947 26.7312 131.605 26.8514 131.258 26.9542C129.252 28.3654 127.301 30.3249 125.705 31.943C123.185 34.4985 119.317 37.744 119.317 41.6615C119.317 42.335 119.664 44.242 119.29 43.6817C118.217 42.0723 117.574 40.3569 116.315 38.8224C113.829 35.7926 110.831 33.2232 108.398 30.1413C107.112 28.5124 107.731 29.1471 105.559 29.2677C99.7723 29.5892 93.9981 31.5426 88.1419 31.8338C71.8207 32.6454 55.3955 32.3025 39.058 32.216C33.4638 32.1864 28.8972 31.4489 23.9889 28.9947C21.2255 27.613 24.3072 31.1404 24.9717 32.4344C25.9592 34.3575 26.4966 36.3982 27.4013 38.3583C28.3139 40.3356 29.7612 42.605 30.3496 44.6644C30.5766 45.4588 29.0681 43.6194 28.466 43.0538C24.1117 38.9634 20.1471 34.5583 15.0348 31.3425C12.2628 29.5988 9.604 29.2088 6.73348 29.5404Z" fill="#FDFF98"/>
<path d="M21.0406 19.9314C16.7727 23.105 12.3485 26.0724 7.80054 28.8309C6.77519 29.4529 4.06171 31.6119 2.641 31.206C1.73337 30.9466 3.37288 30.1904 3.56917 30.1413C7.72334 29.1028 11.2749 28.9774 15.0348 31.3425C20.1471 34.5583 24.1117 38.9634 28.466 43.0538C29.0681 43.6194 30.5766 45.4588 30.3496 44.6644C29.7612 42.605 28.3139 40.3356 27.4013 38.3583C26.4966 36.3982 25.9592 34.3575 24.9717 32.4344C24.3072 31.1404 21.2255 27.613 23.9889 28.9947C28.8972 31.4489 33.4638 32.1864 39.058 32.216C55.3955 32.3025 71.8207 32.6454 88.1419 31.8338C93.9981 31.5426 99.7723 29.5892 105.559 29.2677C107.731 29.1471 107.112 28.5124 108.398 30.1413C110.831 33.2232 113.829 35.7926 116.315 38.8224C117.574 40.3569 118.217 42.0723 119.29 43.6817C119.664 44.242 119.317 42.335 119.317 41.6615C119.317 37.744 123.185 34.4985 125.705 31.943C127.645 29.9768 130.108 27.5064 132.558 26.1283C133.822 25.4174 133.253 26.1938 132.285 26.5924C126.141 29.1223 118.229 25.4661 112.547 23.2619C108.121 21.5449 103.312 19.0189 100.645 15.0176" stroke="#7AE95E" stroke-width="3" stroke-linecap="round"/>
</svg>
