<svg width="157" height="153" viewBox="0 0 157 153" fill="none" xmlns="http://www.w3.org/2000/svg">
<path d="M39.5994 16.2695C39.5994 16.4388 39.5486 16.5827 39.447 16.7012C39.3624 16.8027 39.2524 16.8958 39.1169 16.9805C38.9985 17.0651 38.8715 17.1413 38.7361 17.209C38.6176 17.2767 38.5076 17.3613 38.406 17.4629C38.3383 17.5306 38.2875 17.6152 38.2537 17.7168C38.2367 17.8014 38.1944 17.8607 38.1267 17.8945C38.0251 17.9792 37.9151 18.0299 37.7966 18.0469C37.6781 18.0638 37.5512 18.0892 37.4158 18.123C37.2973 18.14 37.1788 18.1738 37.0603 18.2246C36.9418 18.2585 36.8403 18.3346 36.7556 18.4531C35.96 18.5378 35.1729 18.6478 34.3943 18.7832C33.6326 18.9186 32.8455 18.9863 32.033 18.9863C31.8806 18.9863 31.7113 19.0033 31.5251 19.0371C31.3559 19.054 31.1951 19.071 31.0427 19.0879C30.6873 19.1217 30.3318 19.1471 29.9763 19.1641C29.6378 19.181 29.2908 19.1895 28.9353 19.1895C28.4444 19.1895 27.9535 19.1725 27.4626 19.1387C26.9718 19.0879 26.4893 19.0117 26.0154 18.9102C25.8969 18.8255 25.7615 18.7578 25.6091 18.707C25.4568 18.6562 25.296 18.6055 25.1267 18.5547C24.9744 18.5039 24.8305 18.4447 24.6951 18.377C24.5597 18.3092 24.4581 18.2077 24.3904 18.0723C24.1365 18.0553 23.908 18.0046 23.7048 17.9199C23.5186 17.8353 23.3409 17.7422 23.1716 17.6406C23.0193 17.5221 22.8585 17.4036 22.6892 17.2852C22.5199 17.1667 22.3253 17.0651 22.1052 16.9805C21.936 16.7435 21.7582 16.515 21.572 16.2949C21.4028 16.0579 21.1912 15.8633 20.9373 15.7109C20.8865 15.3893 20.8018 15.0677 20.6833 14.7461C20.5818 14.4245 20.4718 14.1113 20.3533 13.8066C20.2517 13.485 20.1671 13.1634 20.0994 12.8418C20.0147 12.5202 19.9724 12.1901 19.9724 11.8516C19.9724 11.6146 20.0063 11.3268 20.074 10.9883C20.1417 10.6497 20.2263 10.3112 20.3279 9.97266C20.4464 9.61719 20.5818 9.28711 20.7341 8.98242C20.8865 8.67773 21.0388 8.43229 21.1912 8.24609C21.2419 8.19531 21.3012 8.15299 21.3689 8.11914C21.4366 8.08529 21.4958 8.03451 21.5466 7.9668C21.699 7.79753 21.8598 7.66211 22.0291 7.56055C22.1983 7.44206 22.3761 7.30664 22.5623 7.1543C22.63 7.08659 22.6807 7.01042 22.7146 6.92578C22.7654 6.84115 22.8331 6.76497 22.9177 6.69727C22.9685 6.66341 23.0362 6.65495 23.1208 6.67188C23.2224 6.6888 23.307 6.67188 23.3748 6.62109C23.4425 6.57031 23.4763 6.51107 23.4763 6.44336C23.4763 6.37565 23.5017 6.31641 23.5525 6.26562C23.5694 6.2487 23.6202 6.2487 23.7048 6.26562C23.7895 6.26562 23.8403 6.26562 23.8572 6.26562C23.9757 6.26562 24.1111 6.18945 24.2634 6.03711C24.4158 5.86784 24.5427 5.75781 24.6443 5.70703C24.7628 5.63932 24.8813 5.59701 24.9998 5.58008C25.1182 5.54622 25.2452 5.49544 25.3806 5.42773C25.5668 5.32617 25.7445 5.25 25.9138 5.19922C26.1 5.13151 26.2862 5.05534 26.4724 4.9707C26.574 4.93685 26.6671 4.8776 26.7517 4.79297C26.8363 4.70833 26.921 4.64909 27.0056 4.61523C27.158 4.56445 27.3188 4.5306 27.488 4.51367C27.6742 4.47982 27.8435 4.45443 27.9958 4.4375C28.1651 4.40365 28.3259 4.36979 28.4783 4.33594C28.6475 4.28516 28.7999 4.20052 28.9353 4.08203H29.1384C29.4431 4.08203 29.7393 4.03971 30.0271 3.95508C30.3149 3.87044 30.6111 3.82812 30.9158 3.82812C31.0004 3.82812 31.1274 3.84505 31.2966 3.87891C31.432 3.79427 31.5844 3.75195 31.7537 3.75195C32.0414 3.75195 32.3292 3.82812 32.6169 3.98047C32.9047 4.11589 33.2009 4.18359 33.5056 4.18359H33.658C33.7257 4.18359 33.7934 4.17513 33.8611 4.1582C34.0473 4.3444 34.2673 4.44596 34.5212 4.46289C34.7921 4.47982 35.0206 4.55599 35.2068 4.69141C35.3253 4.79297 35.4184 4.91146 35.4861 5.04688C35.5707 5.18229 35.6384 5.32617 35.6892 5.47852L35.8416 5.93555C35.8923 6.08789 35.96 6.22331 36.0447 6.3418C35.96 6.95117 35.7061 7.44206 35.283 7.81445C34.8767 8.16992 34.3604 8.34766 33.7341 8.34766C33.4972 8.34766 33.294 8.32227 33.1248 8.27148C32.9724 8.20378 32.8285 8.13607 32.6931 8.06836C32.5746 8.00065 32.4477 7.93294 32.3123 7.86523C32.1768 7.79753 32.0245 7.74674 31.8552 7.71289C32.0414 7.37435 32.1599 7.01042 32.2107 6.62109C32.0245 6.53646 31.8383 6.47721 31.6521 6.44336C31.4659 6.40951 31.2882 6.35026 31.1189 6.26562C30.6619 6.38411 30.2133 6.46875 29.7732 6.51953C29.35 6.55339 28.9522 6.73112 28.5798 7.05273C28.4952 7.03581 28.4021 7.01888 28.3005 7.00195C28.2159 6.98503 28.1313 6.97656 28.0466 6.97656C27.9451 6.97656 27.7419 7.05273 27.4373 7.20508C27.1326 7.34049 26.8025 7.5013 26.447 7.6875C26.1085 7.8737 25.7784 8.0599 25.4568 8.24609C25.1521 8.43229 24.9405 8.55924 24.822 8.62695C24.6866 8.71159 24.5681 8.81315 24.4666 8.93164C24.365 9.05013 24.2634 9.17708 24.1619 9.3125C24.0603 9.43099 23.9587 9.54948 23.8572 9.66797C23.7556 9.76953 23.6287 9.8457 23.4763 9.89648C23.4425 10.0827 23.3832 10.2435 23.2986 10.3789C23.2139 10.5143 23.1208 10.6582 23.0193 10.8105C23.0024 11.1152 22.9685 11.4199 22.9177 11.7246C22.8839 12.0293 22.8669 12.334 22.8669 12.6387V12.9688C22.8669 13.0703 22.8839 13.1634 22.9177 13.248C23.087 13.4681 23.2224 13.7135 23.324 13.9844C23.4425 14.2552 23.6371 14.4414 23.908 14.543C23.9249 14.6107 23.9164 14.653 23.8826 14.6699C23.8656 14.6868 23.8487 14.7292 23.8318 14.7969C23.9333 14.9831 24.0603 15.1354 24.2126 15.2539C24.3819 15.3555 24.5512 15.4655 24.7205 15.584C24.8897 15.6855 25.0505 15.7956 25.2029 15.9141C25.3552 16.0326 25.4737 16.1849 25.5583 16.3711C25.8123 16.3711 26.0492 16.4134 26.2693 16.498C26.5063 16.5827 26.7263 16.6758 26.9294 16.7773C27.1495 16.8789 27.3526 16.972 27.5388 17.0566C27.7419 17.1413 27.9451 17.1836 28.1482 17.1836C28.3344 17.1836 28.5037 17.1582 28.656 17.1074C29.0961 17.2428 29.5362 17.3444 29.9763 17.4121C30.4333 17.4629 30.8904 17.4883 31.3474 17.4883C31.906 17.4883 32.4646 17.4544 33.0232 17.3867C33.5818 17.319 34.1404 17.2598 34.699 17.209C34.9021 17.1751 35.0968 17.1582 35.283 17.1582C35.4692 17.1582 35.6554 17.1413 35.8416 17.1074C36.0785 17.0736 36.2986 16.9635 36.5017 16.7773C36.7218 16.5911 36.9333 16.4557 37.1365 16.3711C37.3227 16.4896 37.5427 16.5488 37.7966 16.5488C38.0844 16.5488 38.3637 16.5065 38.6345 16.4219C38.9054 16.3203 39.1847 16.2695 39.4724 16.2695H39.5994Z" fill="#EF06BC"/>
<path d="M58.2869 18.9863C58.2361 19.2233 58.1261 19.418 57.9568 19.5703C57.8044 19.7057 57.6182 19.8158 57.3982 19.9004C57.1781 19.985 56.9496 20.0443 56.7126 20.0781C56.4926 20.0951 56.2895 20.1035 56.1033 20.1035C56.0186 20.1035 55.934 20.1035 55.8494 20.1035C55.7817 20.0866 55.7055 20.0781 55.6208 20.0781C55.5362 20.0781 55.4939 20.1204 55.4939 20.2051C55.4939 20.2897 55.4516 20.349 55.3669 20.3828C55.2823 20.349 55.1977 20.3236 55.113 20.3066C55.0284 20.2897 54.9438 20.2812 54.8591 20.2812C54.7406 20.2812 54.6222 20.2897 54.5037 20.3066C54.4021 20.3236 54.3005 20.332 54.199 20.332C54.0636 20.332 53.962 20.3151 53.8943 20.2812C53.8435 20.2474 53.7927 20.2135 53.7419 20.1797C53.7081 20.1289 53.6658 20.0781 53.615 20.0273C53.5811 19.9766 53.5219 19.9342 53.4373 19.9004C53.3188 19.8496 53.2172 19.8411 53.1326 19.875C53.0649 19.9089 52.9548 19.8581 52.8025 19.7227C52.5994 19.5534 52.4216 19.3503 52.2693 19.1133C52.1339 18.8594 51.9985 18.597 51.863 18.3262C51.7276 18.0553 51.5837 17.7845 51.4314 17.5137C51.2791 17.2428 51.1013 17.0059 50.8982 16.8027H50.6951C50.3904 16.8027 50.1788 16.9297 50.0603 17.1836C49.9757 17.1328 49.891 17.0736 49.8064 17.0059C49.7218 16.9212 49.6287 16.8535 49.5271 16.8027C49.1378 16.9212 48.7315 17.0228 48.3083 17.1074C47.8852 17.1921 47.462 17.2344 47.0388 17.2344H46.6833C46.5818 17.2344 46.4718 17.2174 46.3533 17.1836C46.184 17.2513 46.0317 17.3359 45.8962 17.4375C45.7608 17.5221 45.6085 17.5645 45.4392 17.5645C45.3376 17.5645 45.2192 17.5306 45.0837 17.4629C44.9822 17.4629 44.9314 17.5052 44.9314 17.5898C44.9483 17.6745 44.8975 17.7168 44.7791 17.7168H44.5505C44.3136 17.7168 44.0766 17.7253 43.8396 17.7422C43.6195 17.7591 43.391 17.7676 43.1541 17.7676C42.8324 17.7676 42.5024 17.7253 42.1638 17.6406C42.0792 17.6914 41.9861 17.7168 41.8845 17.7168C41.8168 17.7507 41.766 17.8099 41.7322 17.8945C41.6983 17.9622 41.6645 18.0299 41.6306 18.0977C41.5968 18.1484 41.546 18.1992 41.4783 18.25C41.4275 18.2839 41.3513 18.2923 41.2498 18.2754C41.2159 18.4785 41.1313 18.6393 40.9958 18.7578C40.8604 18.8763 40.7927 19.054 40.7927 19.291C40.6065 19.3926 40.4542 19.5195 40.3357 19.6719C40.2172 19.8242 40.0987 19.985 39.9802 20.1543C39.8617 20.3236 39.7348 20.4844 39.5994 20.6367C39.4809 20.7891 39.3285 20.9076 39.1423 20.9922C39.0577 21.0938 39.0323 21.2546 39.0662 21.4746C38.88 21.627 38.6514 21.7624 38.3806 21.8809C38.1098 21.9993 37.8559 22.0586 37.6189 22.0586C37.128 22.0586 36.7895 21.7962 36.6033 21.2715C36.6033 21.1022 36.6202 20.9245 36.6541 20.7383C36.671 20.5352 36.7048 20.349 36.7556 20.1797C36.8064 19.9935 36.8826 19.8327 36.9841 19.6973C37.0857 19.5449 37.2296 19.4349 37.4158 19.3672C37.4158 19.2148 37.365 19.1133 37.2634 19.0625C37.1619 18.9948 37.1195 18.8848 37.1365 18.7324C37.5935 18.5124 37.9913 18.2246 38.3298 17.8691C38.6684 17.5137 38.9731 17.1413 39.2439 16.752C39.5317 16.3457 39.8194 15.9395 40.1072 15.5332C40.3949 15.127 40.7166 14.763 41.072 14.4414V13.9082C41.5798 13.3665 41.9099 12.7572 42.0623 12.0801C42.2485 12.0462 42.3669 11.9616 42.4177 11.8262C42.4854 11.6908 42.5193 11.5299 42.5193 11.3438C42.6039 11.3438 42.6547 11.3099 42.6716 11.2422C42.7055 11.1576 42.7817 11.1322 42.9001 11.166C43.0525 10.7598 43.2218 10.3874 43.408 10.0488C43.5942 9.71029 43.7804 9.37174 43.9666 9.0332C44.1528 8.67773 44.3136 8.3138 44.449 7.94141C44.6013 7.56901 44.7113 7.1543 44.7791 6.69727C45.016 6.68034 45.143 6.57031 45.1599 6.36719C45.1938 6.14714 45.2276 5.95247 45.2615 5.7832C45.5154 5.54622 45.7016 5.26693 45.8201 4.94531C45.9555 4.6237 46.074 4.29362 46.1755 3.95508C46.2771 3.59961 46.3871 3.2526 46.5056 2.91406C46.641 2.55859 46.8272 2.24544 47.0642 1.97461V1.89844C47.0642 1.8138 47.0304 1.76302 46.9626 1.74609C46.8949 1.71224 46.8611 1.65299 46.8611 1.56836C46.878 1.55143 46.8865 1.53451 46.8865 1.51758C47.0896 1.43294 47.2419 1.29753 47.3435 1.11133C47.4451 0.908203 47.5974 0.764323 47.8005 0.679688C48.156 0.967448 48.4692 1.14518 48.74 1.21289C49.0108 1.26367 49.3663 1.30599 49.8064 1.33984C50.0264 1.57682 50.1449 1.86458 50.1619 2.20312C50.1957 2.52474 50.255 2.84635 50.3396 3.16797C50.475 3.70964 50.6189 4.24284 50.7712 4.76758C50.9405 5.27539 51.0675 5.80013 51.1521 6.3418C51.2029 6.66341 51.296 6.9681 51.4314 7.25586C51.5668 7.54362 51.6599 7.83984 51.7107 8.14453C51.7445 8.38151 51.7445 8.65234 51.7107 8.95703C51.6768 9.24479 51.7107 9.4987 51.8123 9.71875L51.99 10.125C52.0746 10.3112 52.1423 10.5059 52.1931 10.709C52.2608 10.9121 52.3201 11.1152 52.3708 11.3184C52.5063 11.8262 52.6248 12.3763 52.7263 12.9688C52.8448 13.5443 53.0225 14.069 53.2595 14.543C53.3442 14.7122 53.4711 14.8307 53.6404 14.8984C53.8266 14.9661 54.0297 15.0169 54.2498 15.0508C54.4698 15.0677 54.6814 15.0762 54.8845 15.0762C55.1046 15.0592 55.2908 15.0508 55.4431 15.0508H55.697C55.7986 15.0508 55.9001 15.0677 56.0017 15.1016C56.0694 15.237 56.1033 15.3555 56.1033 15.457C56.1033 15.6602 56.0356 15.821 55.9001 15.9395C55.7647 16.0579 55.697 16.1934 55.697 16.3457C55.697 16.4303 55.7309 16.5234 55.7986 16.625C55.7309 16.6081 55.6293 16.5996 55.4939 16.5996C55.1046 16.5996 54.7237 16.6673 54.3513 16.8027C54.4867 17.0905 54.6645 17.3359 54.8845 17.5391C55.1215 17.7253 55.3669 17.903 55.6208 18.0723C55.7901 17.9368 55.9679 17.8691 56.1541 17.8691C56.3572 17.8691 56.5434 17.9199 56.7126 18.0215C56.8988 18.1061 57.0935 18.1484 57.2966 18.1484C57.449 18.1484 57.559 18.123 57.6267 18.0723C57.7621 18.2246 57.8722 18.3854 57.9568 18.5547C58.0414 18.707 58.1514 18.8509 58.2869 18.9863ZM50.3396 14.9238C50.3057 14.6361 50.2465 14.4329 50.1619 14.3145C50.0942 14.179 50.0349 14.0182 49.9841 13.832C49.9164 13.5951 49.8656 13.3411 49.8318 13.0703C49.8149 12.7995 49.781 12.5371 49.7302 12.2832C49.6117 11.7077 49.4763 11.1322 49.324 10.5566C49.1886 9.98112 49.0108 9.42253 48.7908 8.88086C48.8585 8.7793 48.8923 8.6862 48.8923 8.60156V8.52539C48.74 8.35612 48.63 8.15299 48.5623 7.91602C48.4945 7.66211 48.4268 7.41667 48.3591 7.17969C48.3083 6.92578 48.2322 6.69727 48.1306 6.49414C48.046 6.27409 47.9021 6.09635 47.699 5.96094C47.6482 6.0625 47.6228 6.18099 47.6228 6.31641C47.6228 6.4349 47.6313 6.54492 47.6482 6.64648C47.682 6.74805 47.699 6.85807 47.699 6.97656C47.5297 7.0612 47.4028 7.19661 47.3181 7.38281C47.2504 7.55208 47.1319 7.6875 46.9626 7.78906C46.8272 8.33073 46.6326 8.84701 46.3787 9.33789C46.1248 9.81185 45.8539 10.2858 45.5662 10.7598C45.2953 11.2337 45.033 11.7161 44.7791 12.207C44.5251 12.681 44.322 13.1803 44.1697 13.7051C43.9496 13.8574 43.7973 14.0521 43.7126 14.2891C43.6449 14.526 43.6111 14.763 43.6111 15C43.7634 15.0846 43.9327 15.1354 44.1189 15.1523C44.322 15.1523 44.5167 15.1523 44.7029 15.1523C44.8891 15.1523 45.0668 15.1693 45.2361 15.2031C45.4054 15.237 45.5577 15.3216 45.6931 15.457C45.9132 15.3893 46.1501 15.347 46.4041 15.3301C46.6749 15.2962 46.8949 15.2201 47.0642 15.1016C47.4028 15.2201 47.7667 15.2793 48.156 15.2793C48.3591 15.2793 48.5538 15.2624 48.74 15.2285C48.9431 15.1947 49.1378 15.1523 49.324 15.1016C49.4763 15.1354 49.5948 15.1947 49.6794 15.2793C49.7641 15.347 49.891 15.3724 50.0603 15.3555C50.1449 15.2878 50.1957 15.2201 50.2126 15.1523C50.2296 15.0677 50.2719 14.9915 50.3396 14.9238Z" fill="#EF06BC"/>
<path d="M82.5095 17.6406C82.4249 17.9115 82.3995 18.1823 82.4333 18.4531C82.3826 18.5208 82.3233 18.5632 82.2556 18.5801C82.1879 18.597 82.1202 18.6224 82.0525 18.6562C81.9848 18.6732 81.9255 18.707 81.8748 18.7578C81.8409 18.7917 81.8409 18.8678 81.8748 18.9863C81.3162 19.0202 80.783 19.1387 80.2751 19.3418C79.7673 19.5449 79.268 19.765 78.7771 20.002C78.5232 19.9173 78.3031 19.8158 78.1169 19.6973C77.9307 19.5788 77.6938 19.5026 77.406 19.4688C77.1182 18.8932 76.8474 18.2923 76.5935 17.666C76.3565 17.0228 76.238 16.3796 76.238 15.7363C76.238 15.2624 76.3227 14.8307 76.4919 14.4414C76.4919 13.9336 76.5343 13.4342 76.6189 12.9434C76.7035 12.4525 76.7966 11.9701 76.8982 11.4961C77.0167 11.0052 77.1182 10.5143 77.2029 10.0234C77.2875 9.53255 77.3298 9.0332 77.3298 8.52539V7.9668C77.296 7.9668 77.2537 8.00911 77.2029 8.09375C77.1521 8.16146 77.1013 8.24609 77.0505 8.34766C77.0167 8.43229 76.9828 8.51693 76.949 8.60156C76.9151 8.6862 76.8897 8.73698 76.8728 8.75391C76.585 8.97396 76.3565 9.25326 76.1873 9.5918C76.0349 9.91341 75.8656 10.2181 75.6794 10.5059C75.4425 10.8613 75.1886 11.2083 74.9177 11.5469C74.6638 11.8854 74.3422 12.1478 73.9529 12.334V12.3848C73.9529 12.4694 73.9275 12.5286 73.8767 12.5625C73.8259 12.5964 73.8175 12.681 73.8513 12.8164C73.4281 12.9518 73.0304 13.1465 72.658 13.4004C72.3025 13.6543 72.0063 13.9759 71.7693 14.3652C71.4307 14.4499 71.1091 14.5684 70.8044 14.7207C70.5167 14.8561 70.2205 15.0085 69.9158 15.1777C69.7804 15.2454 69.6365 15.3301 69.4841 15.4316C69.3318 15.5332 69.1794 15.6009 69.0271 15.6348C68.8917 15.6855 68.7055 15.7194 68.4685 15.7363C68.2485 15.7533 68.0115 15.7702 67.7576 15.7871C67.5206 15.804 67.2836 15.8125 67.0466 15.8125H66.488C66.4034 15.8125 66.2934 15.7702 66.158 15.6855C66.0225 15.6009 65.8702 15.5078 65.7009 15.4062C65.5486 15.3047 65.3878 15.2116 65.2185 15.127C65.0492 15.0254 64.8884 14.9577 64.7361 14.9238C64.6007 14.4837 64.406 14.0944 64.1521 13.7559C63.9151 13.4004 63.6612 13.0449 63.3904 12.6895C63.3057 12.2832 63.1873 11.86 63.0349 11.4199C62.8995 10.9798 62.6541 10.6159 62.2986 10.3281C62.3832 10.2096 62.4255 10.0742 62.4255 9.92188C62.4255 9.73568 62.3832 9.55794 62.2986 9.38867C62.2139 9.2194 62.1716 9.0332 62.1716 8.83008C62.1716 8.69466 62.1801 8.5931 62.197 8.52539C62.0108 8.72852 61.8754 8.99089 61.7908 9.3125C61.7231 9.61719 61.6892 9.89648 61.6892 10.1504C61.6892 10.3535 61.7146 10.5397 61.7654 10.709C61.5961 10.946 61.4861 11.2422 61.4353 11.5977C61.4014 11.9531 61.3845 12.2663 61.3845 12.5371C61.3845 12.8757 61.4099 13.2057 61.4607 13.5273C61.1899 13.7982 61.0544 14.1283 61.0544 14.5176C61.0544 14.7376 61.1052 14.9323 61.2068 15.1016C61.2068 15.1693 61.1899 15.2201 61.156 15.2539C61.1222 15.2878 61.0798 15.3132 61.0291 15.3301C60.9952 15.347 60.9529 15.3724 60.9021 15.4062C60.8682 15.4232 60.8513 15.4655 60.8513 15.5332C60.8513 15.6178 60.8513 15.7109 60.8513 15.8125C60.8682 15.9141 60.8767 16.0156 60.8767 16.1172C60.8767 16.3542 60.8682 16.5996 60.8513 16.8535C60.8344 17.1074 60.8259 17.3529 60.8259 17.5898C60.8259 18.0807 60.8682 18.4362 60.9529 18.6562C61.0544 18.8594 61.1729 19.0117 61.3083 19.1133C61.4607 19.2148 61.6215 19.3164 61.7908 19.418C61.96 19.5195 62.1293 19.7142 62.2986 20.002C62.2478 20.1543 62.1547 20.2812 62.0193 20.3828C61.9008 20.4674 61.7823 20.5605 61.6638 20.6621C61.5623 20.7467 61.4692 20.8483 61.3845 20.9668C61.2999 21.0853 61.266 21.2546 61.283 21.4746H61.156C60.936 21.4746 60.7244 21.5085 60.5212 21.5762C60.3181 21.6439 60.1065 21.6777 59.8865 21.6777C59.8357 21.6777 59.7849 21.6693 59.7341 21.6523C59.6833 21.6523 59.6326 21.6523 59.5818 21.6523L59.3279 21.5C59.2432 21.4492 59.1586 21.4238 59.074 21.4238C58.9893 21.4238 58.8793 21.4408 58.7439 21.4746C58.5069 20.7129 58.3207 19.9258 58.1853 19.1133C58.0668 18.3008 58.0076 17.5052 58.0076 16.7266C58.0076 16.6419 58.0245 16.5573 58.0583 16.4727C58.1091 16.3711 58.1768 16.3372 58.2615 16.3711V15.8887C58.2615 15.3639 58.3038 14.8561 58.3884 14.3652C58.49 13.8574 58.5408 13.3327 58.5408 12.791C58.5408 12.6387 58.5323 12.4863 58.5154 12.334C58.5154 12.1816 58.5069 12.0378 58.49 11.9023C58.5746 11.6146 58.6593 11.3268 58.7439 11.0391C58.8455 10.7344 58.8962 10.4212 58.8962 10.0996C58.8962 9.96419 58.8708 9.80339 58.8201 9.61719C58.9555 9.51562 59.057 9.38867 59.1248 9.23633C59.1925 9.06706 59.2432 8.88932 59.2771 8.70312C59.311 8.5 59.3363 8.30534 59.3533 8.11914C59.3702 7.93294 59.3871 7.76367 59.4041 7.61133C59.5733 7.27279 59.6664 6.90885 59.6833 6.51953C59.7003 6.13021 59.7849 5.76628 59.9373 5.42773C59.9203 5.36003 59.9119 5.24154 59.9119 5.07227C59.9119 4.73372 59.9626 4.39518 60.0642 4.05664C60.1827 3.70117 60.4112 3.43034 60.7498 3.24414C61.0544 3.36263 61.4099 3.42188 61.8162 3.42188C62.2055 3.42188 62.5779 3.36263 62.9333 3.24414C63.0349 3.27799 63.128 3.32031 63.2126 3.37109C63.2973 3.40495 63.3819 3.44727 63.4666 3.49805C63.5681 3.5319 63.6697 3.56576 63.7712 3.59961C63.8728 3.61654 63.9913 3.61654 64.1267 3.59961C64.296 4.09049 64.4399 4.58984 64.5583 5.09766C64.6938 5.60547 64.7953 6.12174 64.863 6.64648C64.8969 6.86654 64.9054 7.10352 64.8884 7.35742C64.8884 7.61133 64.9054 7.84831 64.9392 8.06836C64.9561 8.20378 64.9985 8.33073 65.0662 8.44922C65.1339 8.55078 65.2016 8.66927 65.2693 8.80469C65.337 8.9401 65.3878 9.09245 65.4216 9.26172C65.4724 9.43099 65.4893 9.64258 65.4724 9.89648C65.6586 10.3366 65.8617 10.7598 66.0818 11.166C66.3188 11.5553 66.5727 11.9447 66.8435 12.334C66.9958 12.3848 67.1313 12.4525 67.2498 12.5371C67.3682 12.6048 67.4444 12.7233 67.4783 12.8926C67.6306 12.8926 67.766 12.918 67.8845 12.9688L68.3162 13.0957C68.9594 12.8926 69.5518 12.6217 70.0935 12.2832C70.6521 11.9447 71.2361 11.6569 71.8455 11.4199C72.5903 10.6921 73.2335 9.88802 73.7751 9.00781C74.3168 8.11068 74.8585 7.22201 75.4001 6.3418V5.7832C75.5017 5.73242 75.5863 5.67318 75.6541 5.60547C75.7387 5.52083 75.8403 5.46159 75.9587 5.42773C75.9757 5.22461 76.018 5.02995 76.0857 4.84375C76.1703 4.64062 76.255 4.45443 76.3396 4.28516C76.4412 4.09896 76.5258 3.92122 76.5935 3.75195C76.6612 3.56576 76.6951 3.37109 76.6951 3.16797C76.6951 3.04948 76.6866 2.94792 76.6697 2.86328C76.9236 2.60938 77.2283 2.48242 77.5837 2.48242C77.9223 2.48242 78.2608 2.56706 78.5994 2.73633C78.9548 2.88867 79.2849 3.03255 79.5896 3.16797C79.7758 3.57422 79.9112 4.00586 79.9958 4.46289C80.0974 4.90299 80.1651 5.36003 80.199 5.83398C80.2328 6.30794 80.2498 6.7819 80.2498 7.25586V9.05859C80.2328 9.19401 80.182 9.29557 80.0974 9.36328C80.0297 9.41406 79.9789 9.4987 79.9451 9.61719V9.87109C79.9451 9.95573 79.9366 10.0404 79.9197 10.125C79.9197 10.4805 79.8774 10.8529 79.7927 11.2422C79.7081 11.7331 79.5981 12.2324 79.4626 12.7402C79.3442 13.2311 79.2849 13.7305 79.2849 14.2383C79.2849 14.4245 79.2934 14.6107 79.3103 14.7969C79.3272 14.9831 79.3611 15.1693 79.4119 15.3555C79.3272 15.5078 79.2849 15.7025 79.2849 15.9395C79.2849 16.2103 79.3272 16.4642 79.4119 16.7012C79.5134 16.9212 79.6319 17.1413 79.7673 17.3613C80.0043 17.3613 80.2413 17.3529 80.4783 17.3359C80.7153 17.319 80.9607 17.3105 81.2146 17.3105C81.4516 17.3105 81.6716 17.3359 81.8748 17.3867C82.0779 17.4206 82.2895 17.5052 82.5095 17.6406Z" fill="#EF06BC"/>
<path d="M99.4197 4.69141V4.79297C99.3012 4.82682 99.2419 4.91146 99.2419 5.04688C99.0557 5.13151 98.8611 5.19922 98.658 5.25C98.4548 5.28385 98.2602 5.3431 98.074 5.42773C97.8878 5.41081 97.6931 5.40234 97.49 5.40234C97.3038 5.38542 97.1176 5.37695 96.9314 5.37695C96.4236 5.37695 95.9158 5.39388 95.408 5.42773C94.9001 5.46159 94.3923 5.46159 93.8845 5.42773C93.6475 5.56315 93.3852 5.67318 93.0974 5.75781C92.8266 5.82552 92.5642 5.85938 92.3103 5.85938C92.1072 5.85938 91.9294 5.83398 91.7771 5.7832C91.3708 5.98633 90.9223 6.1556 90.4314 6.29102C89.9574 6.42643 89.475 6.56185 88.9841 6.69727C88.4932 6.81576 88.0193 6.95964 87.5623 7.12891C87.1222 7.28125 86.7328 7.5013 86.3943 7.78906C86.3604 8.02604 86.335 8.26302 86.3181 8.5C86.3012 8.72005 86.2927 8.9401 86.2927 9.16016C86.2927 9.39714 86.3012 9.61719 86.3181 9.82031C86.352 10.0234 86.4112 10.2266 86.4958 10.4297C86.5805 10.4635 86.6736 10.4889 86.7751 10.5059C86.8936 10.5228 86.9952 10.5312 87.0798 10.5312C87.1645 10.5312 87.2491 10.5228 87.3337 10.5059C87.4184 10.472 87.4776 10.4128 87.5115 10.3281C87.7654 10.2943 88.0193 10.2858 88.2732 10.3027C88.5271 10.3027 88.781 10.3027 89.0349 10.3027C89.2888 10.3027 89.5343 10.2943 89.7712 10.2773C90.0251 10.2604 90.2706 10.2181 90.5076 10.1504C90.7784 10.0827 91.0408 10.0404 91.2947 10.0234C91.5655 10.0065 91.8279 9.98958 92.0818 9.97266C92.3357 9.95573 92.5981 9.93034 92.8689 9.89648C93.1397 9.8457 93.419 9.7526 93.7068 9.61719C93.9268 9.70182 94.1469 9.74414 94.3669 9.74414C94.6039 9.74414 94.8324 9.76107 95.0525 9.79492C95.171 9.87956 95.2641 9.97266 95.3318 10.0742C95.4164 10.1758 95.4587 10.2943 95.4587 10.4297C95.4587 10.6667 95.3741 10.9036 95.2048 11.1406C95.0356 11.3776 94.9001 11.5977 94.7986 11.8008H94.5193C94.113 11.8008 93.7153 11.86 93.3259 11.9785C92.9535 12.0801 92.5727 12.207 92.1833 12.3594C91.811 12.4948 91.4301 12.6217 91.0408 12.7402C90.6684 12.8418 90.2791 12.8926 89.8728 12.8926C89.8051 12.8926 89.7628 12.9349 89.7458 13.0195C89.7458 13.0872 89.7289 13.138 89.6951 13.1719C89.6104 13.1549 89.4835 13.1465 89.3142 13.1465C88.9249 13.1465 88.5525 13.1888 88.197 13.2734C87.8416 13.3581 87.4776 13.4004 87.1052 13.4004C87.0037 13.4004 86.9021 13.4004 86.8005 13.4004C86.699 13.3835 86.5974 13.3665 86.4958 13.3496C86.4112 13.485 86.3012 13.5781 86.1658 13.6289C86.0304 13.6628 85.9034 13.7305 85.7849 13.832C85.7341 13.9844 85.7003 14.1706 85.6833 14.3906C85.6833 14.6107 85.6749 14.8392 85.658 15.0762C85.658 15.2962 85.641 15.5078 85.6072 15.7109C85.5733 15.9141 85.5056 16.0749 85.4041 16.1934C85.421 16.278 85.4887 16.3118 85.6072 16.2949C85.7257 16.2611 85.7849 16.3118 85.7849 16.4473C85.7849 16.5996 85.768 16.7604 85.7341 16.9297C85.7003 17.099 85.6833 17.2682 85.6833 17.4375C85.6833 17.7591 85.7172 18.1146 85.7849 18.5039C85.8695 18.8763 85.988 19.2233 86.1404 19.5449C86.3097 19.8665 86.5297 20.1374 86.8005 20.3574C87.0714 20.5605 87.4099 20.6621 87.8162 20.6621C88.087 20.6621 88.3409 20.6113 88.5779 20.5098C88.8149 20.4082 89.0095 20.2389 89.1619 20.002L89.2888 19.9766C89.3565 19.9766 89.4158 19.985 89.4666 20.002C89.5343 20.0189 89.602 20.0273 89.6697 20.0273C89.7712 20.0273 89.8982 19.9681 90.0505 19.8496C90.2198 19.7142 90.3975 19.5618 90.5837 19.3926C90.7869 19.2233 90.99 19.0625 91.1931 18.9102C91.3962 18.7409 91.5909 18.6224 91.7771 18.5547C91.8956 18.3177 92.0056 18.0807 92.1072 17.8438C92.2257 17.6068 92.3949 17.4206 92.615 17.2852V16.5488C92.7843 16.3626 92.962 16.1934 93.1482 16.041C93.3513 15.8887 93.5037 15.694 93.6052 15.457C93.6899 15.4909 93.766 15.5163 93.8337 15.5332C93.9184 15.5501 94.003 15.5586 94.0876 15.5586C94.1723 15.5586 94.2569 15.5501 94.3416 15.5332C94.4431 15.5163 94.5362 15.4909 94.6208 15.457C94.7563 15.6432 94.8578 15.8548 94.9255 16.0918C95.0102 16.3118 95.1117 16.5234 95.2302 16.7266C95.0779 17.0312 94.9001 17.3952 94.697 17.8184C94.4939 18.2415 94.2738 18.6647 94.0369 19.0879C93.7999 19.5111 93.546 19.9173 93.2751 20.3066C93.0212 20.679 92.7673 20.9668 92.5134 21.1699C92.4626 21.2207 92.3526 21.2799 92.1833 21.3477C91.9972 21.4831 91.8279 21.61 91.6755 21.7285C91.5232 21.8639 91.3793 22.0163 91.2439 22.1855C90.753 22.3379 90.2791 22.541 89.822 22.7949C89.3819 23.0488 88.9418 23.2943 88.5017 23.5312C88.2986 23.4805 88.0785 23.4551 87.8416 23.4551C87.6384 23.4551 87.4353 23.4635 87.2322 23.4805C87.0291 23.5143 86.809 23.5312 86.572 23.5312C86.5043 23.4466 86.4028 23.3874 86.2673 23.3535C86.1488 23.3366 86.1065 23.252 86.1404 23.0996C85.5649 23.0658 85.0994 22.9049 84.7439 22.6172C84.3884 22.3464 84.0837 22.0078 83.8298 21.6016C83.5929 21.1953 83.3982 20.7552 83.2458 20.2812C83.0935 19.8073 82.9327 19.3503 82.7634 18.9102V18.834C82.7634 18.7493 82.7973 18.6986 82.865 18.6816C82.9327 18.6647 82.9666 18.6139 82.9666 18.5293C82.9666 18.4954 82.9581 18.4701 82.9412 18.4531C82.8904 18.2669 82.8481 18.1061 82.8142 17.9707C82.7804 17.8353 82.7634 17.6745 82.7634 17.4883C82.7634 17.2174 82.7804 16.9551 82.8142 16.7012C82.8481 16.4303 82.865 16.1595 82.865 15.8887C82.865 15.6178 82.8311 15.3809 82.7634 15.1777C82.8311 15.0931 82.8904 14.9831 82.9412 14.8477C82.975 14.6953 83.0004 14.543 83.0173 14.3906C83.0343 14.2383 83.0427 14.0859 83.0427 13.9336C83.0597 13.7812 83.085 13.6458 83.1189 13.5273C83.0512 13.3411 82.9919 13.1803 82.9412 13.0449C82.8904 12.8926 82.865 12.7148 82.865 12.5117V12.334C83.0343 12.0462 83.1781 11.75 83.2966 11.4453C83.4151 11.1406 83.5421 10.8275 83.6775 10.5059V10.4297C83.6775 9.9388 83.6606 9.44792 83.6267 8.95703C83.5929 8.46615 83.5759 7.97526 83.5759 7.48438V7.00195C83.5759 6.83268 83.5844 6.67188 83.6013 6.51953C83.7367 6.45182 83.8383 6.35872 83.906 6.24023C83.9737 6.12174 84.0753 6.02865 84.2107 5.96094H85.0486L85.2009 5.70703C85.2517 5.6224 85.2856 5.5293 85.3025 5.42773C85.4887 5.37695 85.6664 5.30924 85.8357 5.22461C86.0219 5.12305 86.1912 5.02148 86.3435 4.91992C86.5805 4.78451 86.7921 4.66602 86.9783 4.56445C87.1814 4.44596 87.3761 4.35286 87.5623 4.28516C87.7654 4.20052 87.977 4.13281 88.197 4.08203C88.4171 4.03125 88.671 3.98893 88.9587 3.95508C89.0942 3.95508 89.1788 3.92969 89.2126 3.87891C89.2634 3.82812 89.3311 3.76888 89.4158 3.70117C89.6189 3.73503 89.822 3.76888 90.0251 3.80273C90.2283 3.81966 90.4314 3.82812 90.6345 3.82812C91.0408 3.82812 91.4216 3.75195 91.7771 3.59961C92.2849 3.59961 92.7843 3.59115 93.2751 3.57422C93.783 3.55729 94.2908 3.54883 94.7986 3.54883C95.2387 3.54883 95.6788 3.56576 96.1189 3.59961C96.559 3.63346 96.9906 3.69271 97.4138 3.77734C97.5662 3.72656 97.7354 3.70117 97.9216 3.70117C98.1248 3.70117 98.3279 3.72656 98.531 3.77734C98.7511 3.8112 98.9626 3.8112 99.1658 3.77734C99.1827 3.96354 99.225 4.12435 99.2927 4.25977C99.3774 4.37826 99.4197 4.52214 99.4197 4.69141Z" fill="#EF06BC"/>
<path d="M130.676 16.4219C130.642 16.6758 130.549 16.8704 130.396 17.0059C130.261 17.1413 130.1 17.2682 129.914 17.3867C129.829 17.3698 129.745 17.3613 129.66 17.3613C129.592 17.3444 129.516 17.3359 129.431 17.3359C128.907 17.319 128.407 17.3867 127.933 17.5391C127.476 17.6914 127.002 17.8014 126.511 17.8691C126.342 17.903 126.181 17.9199 126.029 17.9199C125.894 17.903 125.75 17.9115 125.597 17.9453C125.056 18.0299 124.48 18.0977 123.871 18.1484C123.261 18.1992 122.652 18.2669 122.043 18.3516C121.433 18.4193 120.832 18.5124 120.24 18.6309C119.664 18.7324 119.123 18.8848 118.615 19.0879C118.564 19.054 118.513 19.0202 118.463 18.9863C118.412 18.9355 118.353 18.9102 118.285 18.9102C118.116 18.9102 117.955 18.9355 117.802 18.9863C117.65 19.0371 117.498 19.054 117.345 19.0371C117.176 19.1387 116.99 19.2148 116.787 19.2656C116.601 19.2995 116.406 19.3333 116.203 19.3672C116.017 19.3841 115.83 19.418 115.644 19.4688C115.458 19.5195 115.28 19.6126 115.111 19.748C114.976 19.6803 114.806 19.6465 114.603 19.6465C114.417 19.6296 114.29 19.5618 114.222 19.4434C113.833 19.6296 113.418 19.748 112.978 19.7988C112.555 19.8496 112.123 19.8665 111.683 19.8496C111.396 19.8327 111.066 19.7904 110.693 19.7227C110.321 19.6549 109.948 19.5618 109.576 19.4434C109.204 19.3079 108.857 19.1556 108.535 18.9863C108.213 18.8001 107.968 18.5801 107.799 18.3262C107.68 18.1569 107.595 17.9707 107.545 17.7676C107.494 17.5645 107.375 17.4121 107.189 17.3105C107.24 16.9212 107.299 16.5404 107.367 16.168C107.435 15.7956 107.502 15.4147 107.57 15.0254C107.909 14.7376 108.23 14.4329 108.535 14.1113C108.84 13.7897 109.127 13.4512 109.398 13.0957C109.72 12.9434 110.016 12.7572 110.287 12.5371C110.575 12.3171 110.854 12.097 111.125 11.877C111.413 11.64 111.692 11.4115 111.963 11.1914C112.25 10.9714 112.555 10.7767 112.877 10.6074C112.927 10.4889 112.995 10.3958 113.08 10.3281C113.181 10.2435 113.283 10.1673 113.385 10.0996C113.486 10.015 113.579 9.93034 113.664 9.8457C113.748 9.74414 113.808 9.62565 113.842 9.49023C114.434 9.13477 114.95 8.6862 115.39 8.14453C115.83 7.60286 116.118 6.99349 116.254 6.31641C115.966 6.07943 115.636 5.92708 115.263 5.85938C114.908 5.77474 114.536 5.71549 114.146 5.68164C113.808 5.66471 113.452 5.66471 113.08 5.68164C112.724 5.69857 112.36 5.6901 111.988 5.65625C111.616 5.77474 111.226 5.85091 110.82 5.88477C110.431 5.91862 110.041 5.95247 109.652 5.98633C109.263 6.00326 108.873 6.05404 108.484 6.13867C108.112 6.20638 107.748 6.3418 107.392 6.54492C107.325 6.54492 107.257 6.53646 107.189 6.51953C107.138 6.5026 107.079 6.49414 107.011 6.49414C106.47 6.47721 105.962 6.58724 105.488 6.82422C105.014 7.04427 104.549 7.26432 104.092 7.48438C104.058 7.55208 104.041 7.60286 104.041 7.63672C104.041 7.73828 104.058 7.83984 104.092 7.94141C104.142 8.02604 104.168 8.11914 104.168 8.2207C104.151 8.23763 104.142 8.25456 104.142 8.27148C104.142 8.28841 104.134 8.30534 104.117 8.32227C104.1 8.4069 104.075 8.48307 104.041 8.55078C104.024 8.61849 103.998 8.69466 103.965 8.7793C103.778 9.32096 103.677 9.85417 103.66 10.3789C103.643 10.819 103.643 11.2507 103.66 11.6738C103.677 12.097 103.677 12.5286 103.66 12.9688C103.626 13.5104 103.541 14.0182 103.406 14.4922C103.491 14.8984 103.567 15.3301 103.635 15.7871C103.702 16.2272 103.787 16.6673 103.888 17.1074C103.99 17.5475 104.108 17.9792 104.244 18.4023C104.396 18.8086 104.591 19.1979 104.828 19.5703C104.811 19.6042 104.819 19.6296 104.853 19.6465C104.887 19.6634 104.921 19.6719 104.955 19.6719H105.158C105.243 19.6719 105.276 19.7057 105.26 19.7734C105.293 19.8242 105.319 19.875 105.336 19.9258C105.353 19.9596 105.386 19.9935 105.437 20.0273C105.471 20.0781 105.471 20.1458 105.437 20.2305C105.42 20.569 105.336 20.8822 105.183 21.1699C105.031 21.4577 104.938 21.7708 104.904 22.1094C104.701 22.1602 104.515 22.1855 104.345 22.1855C104.058 22.1686 103.804 22.084 103.584 21.9316C103.364 21.7962 103.161 21.627 102.974 21.4238C102.788 21.2207 102.61 21.0176 102.441 20.8145C102.272 20.5944 102.086 20.4082 101.883 20.2559C101.764 19.7819 101.646 19.2572 101.527 18.6816C101.426 18.1061 101.248 17.6152 100.994 17.209C101.062 17.0566 101.095 16.8704 101.095 16.6504C101.112 16.3118 101.079 15.9818 100.994 15.6602C100.926 15.3216 100.909 14.9831 100.943 14.6445C100.943 14.4583 100.96 14.2721 100.994 14.0859C101.045 13.8997 101.079 13.7135 101.095 13.5273C101.112 13.2396 101.079 12.9603 100.994 12.6895C100.926 12.4186 100.901 12.1393 100.918 11.8516C100.935 11.7161 100.96 11.5892 100.994 11.4707C101.045 11.3353 101.112 11.2168 101.197 11.1152C101.112 10.9121 101.087 10.7174 101.121 10.5312C101.138 10.2435 101.172 9.97266 101.222 9.71875C101.273 9.46484 101.307 9.21094 101.324 8.95703C101.324 8.82161 101.316 8.69466 101.299 8.57617C101.282 8.44076 101.256 8.3138 101.222 8.19531L100.994 8.11914C100.892 8.11914 100.791 8.14453 100.689 8.19531C100.605 8.24609 100.528 8.30534 100.461 8.37305C100.393 8.44076 100.334 8.5 100.283 8.55078C100.232 8.58464 100.181 8.60156 100.131 8.60156C100.097 8.60156 100.054 8.60156 100.004 8.60156C99.9698 8.58464 99.936 8.57617 99.9021 8.57617C99.8682 8.57617 99.8005 8.61003 99.699 8.67773C99.6143 8.74544 99.5043 8.82161 99.3689 8.90625C99.2504 8.97396 99.1319 9.05013 99.0134 9.13477C98.8949 9.20247 98.8018 9.24479 98.7341 9.26172C98.5479 9.22786 98.3956 9.16862 98.2771 9.08398C98.1755 8.98242 98.074 8.88932 97.9724 8.80469C97.8878 8.70312 97.7947 8.61849 97.6931 8.55078C97.5916 8.46615 97.4646 8.43229 97.3123 8.44922C97.2615 8.34766 97.2361 8.23763 97.2361 8.11914C97.2192 8.00065 97.2192 7.88216 97.2361 7.76367V7.35742C97.3546 7.13737 97.5154 6.95964 97.7185 6.82422C97.9047 6.67188 98.1078 6.54492 98.3279 6.44336L98.988 6.13867C99.2081 6.03711 99.4112 5.91016 99.5974 5.75781H99.8259C100.131 5.77474 100.393 5.71549 100.613 5.58008C100.85 5.44466 101.07 5.29232 101.273 5.12305C101.476 4.93685 101.679 4.75065 101.883 4.56445C102.103 4.37826 102.34 4.23438 102.594 4.13281C102.78 4.21745 102.974 4.29362 103.177 4.36133C103.381 4.41211 103.592 4.44596 103.812 4.46289C104.032 4.46289 104.261 4.42904 104.498 4.36133C104.735 4.29362 104.921 4.16667 105.056 3.98047C105.141 4.01432 105.209 4.03971 105.26 4.05664C105.327 4.05664 105.403 4.05664 105.488 4.05664C105.742 4.07357 105.996 4.03971 106.25 3.95508C106.504 3.85352 106.749 3.73503 106.986 3.59961C107.325 3.61654 107.655 3.59961 107.976 3.54883C108.315 3.48112 108.645 3.41341 108.967 3.3457C109.305 3.27799 109.635 3.21875 109.957 3.16797C110.295 3.10026 110.634 3.07487 110.972 3.0918C111.531 3.10872 112.081 3.05794 112.623 2.93945C113.164 2.82096 113.715 2.77865 114.273 2.8125C114.663 2.82943 115.043 2.86328 115.416 2.91406C115.805 2.94792 116.194 2.95638 116.584 2.93945C116.804 3.04102 116.998 3.13411 117.168 3.21875C117.354 3.28646 117.582 3.30339 117.853 3.26953C118.395 3.72656 118.886 4.25977 119.326 4.86914V5.30078C119.309 5.6901 119.241 6.07096 119.123 6.44336C119.004 6.81576 118.86 7.18815 118.691 7.56055C118.539 7.91602 118.37 8.27148 118.183 8.62695C117.997 8.96549 117.819 9.30404 117.65 9.64258C116.55 10.6413 115.45 11.6315 114.349 12.6133C113.249 13.5951 112.115 14.543 110.947 15.457C110.913 15.6263 110.862 15.7786 110.795 15.9141C110.744 16.0495 110.71 16.1934 110.693 16.3457C110.693 16.4303 110.702 16.498 110.719 16.5488C110.837 16.5827 110.939 16.6504 111.023 16.752C111.125 16.8366 111.159 16.9551 111.125 17.1074H111.353C111.438 17.1074 111.48 17.1413 111.48 17.209L111.886 17.2344C112.53 17.2682 113.173 17.2513 113.816 17.1836C114.459 17.1159 115.103 17.0397 115.746 16.9551C116.406 16.8704 117.058 16.7943 117.701 16.7266C118.344 16.6419 118.987 16.5911 119.631 16.5742C119.783 16.5234 119.944 16.4811 120.113 16.4473C120.282 16.4134 120.435 16.3457 120.57 16.2441H120.646C120.765 16.2441 120.849 16.278 120.9 16.3457C120.968 16.4134 121.061 16.4557 121.179 16.4727C121.264 16.4727 121.349 16.4557 121.433 16.4219C121.535 16.388 121.636 16.3626 121.738 16.3457C121.975 16.278 122.22 16.2357 122.474 16.2188C122.745 16.2018 123.008 16.1764 123.261 16.1426C124.243 16.0579 125.217 16.0072 126.181 15.9902C127.146 15.9564 128.111 15.8294 129.076 15.6094C129.161 15.7279 129.279 15.8125 129.431 15.8633C129.584 15.8971 129.745 15.9395 129.914 15.9902C130.083 16.0241 130.235 16.0664 130.371 16.1172C130.523 16.168 130.625 16.2695 130.676 16.4219Z" fill="#EF06BC"/>
<path d="M142.355 18.9863C142.304 19.2233 142.194 19.418 142.025 19.5703C141.873 19.7057 141.687 19.8158 141.467 19.9004C141.247 19.985 141.018 20.0443 140.781 20.0781C140.561 20.0951 140.358 20.1035 140.172 20.1035C140.087 20.1035 140.002 20.1035 139.918 20.1035C139.85 20.0866 139.774 20.0781 139.689 20.0781C139.605 20.0781 139.562 20.1204 139.562 20.2051C139.562 20.2897 139.52 20.349 139.435 20.3828C139.351 20.349 139.266 20.3236 139.181 20.3066C139.097 20.2897 139.012 20.2812 138.927 20.2812C138.809 20.2812 138.691 20.2897 138.572 20.3066C138.47 20.3236 138.369 20.332 138.267 20.332C138.132 20.332 138.03 20.3151 137.963 20.2812C137.912 20.2474 137.861 20.2135 137.81 20.1797C137.776 20.1289 137.734 20.0781 137.683 20.0273C137.649 19.9766 137.59 19.9342 137.506 19.9004C137.387 19.8496 137.286 19.8411 137.201 19.875C137.133 19.9089 137.023 19.8581 136.871 19.7227C136.668 19.5534 136.49 19.3503 136.338 19.1133C136.202 18.8594 136.067 18.597 135.931 18.3262C135.796 18.0553 135.652 17.7845 135.5 17.5137C135.347 17.2428 135.17 17.0059 134.967 16.8027H134.763C134.459 16.8027 134.247 16.9297 134.129 17.1836C134.044 17.1328 133.959 17.0736 133.875 17.0059C133.79 16.9212 133.697 16.8535 133.595 16.8027C133.206 16.9212 132.8 17.0228 132.377 17.1074C131.954 17.1921 131.53 17.2344 131.107 17.2344H130.752C130.65 17.2344 130.54 17.2174 130.422 17.1836C130.252 17.2513 130.1 17.3359 129.965 17.4375C129.829 17.5221 129.677 17.5645 129.508 17.5645C129.406 17.5645 129.288 17.5306 129.152 17.4629C129.051 17.4629 129 17.5052 129 17.5898C129.017 17.6745 128.966 17.7168 128.847 17.7168H128.619C128.382 17.7168 128.145 17.7253 127.908 17.7422C127.688 17.7591 127.459 17.7676 127.222 17.7676C126.901 17.7676 126.571 17.7253 126.232 17.6406C126.148 17.6914 126.054 17.7168 125.953 17.7168C125.885 17.7507 125.834 17.8099 125.801 17.8945C125.767 17.9622 125.733 18.0299 125.699 18.0977C125.665 18.1484 125.614 18.1992 125.547 18.25C125.496 18.2839 125.42 18.2923 125.318 18.2754C125.284 18.4785 125.2 18.6393 125.064 18.7578C124.929 18.8763 124.861 19.054 124.861 19.291C124.675 19.3926 124.523 19.5195 124.404 19.6719C124.286 19.8242 124.167 19.985 124.049 20.1543C123.93 20.3236 123.803 20.4844 123.668 20.6367C123.549 20.7891 123.397 20.9076 123.211 20.9922C123.126 21.0938 123.101 21.2546 123.135 21.4746C122.948 21.627 122.72 21.7624 122.449 21.8809C122.178 21.9993 121.924 22.0586 121.687 22.0586C121.196 22.0586 120.858 21.7962 120.672 21.2715C120.672 21.1022 120.689 20.9245 120.722 20.7383C120.739 20.5352 120.773 20.349 120.824 20.1797C120.875 19.9935 120.951 19.8327 121.052 19.6973C121.154 19.5449 121.298 19.4349 121.484 19.3672C121.484 19.2148 121.433 19.1133 121.332 19.0625C121.23 18.9948 121.188 18.8848 121.205 18.7324C121.662 18.5124 122.06 18.2246 122.398 17.8691C122.737 17.5137 123.041 17.1413 123.312 16.752C123.6 16.3457 123.888 15.9395 124.176 15.5332C124.463 15.127 124.785 14.763 125.14 14.4414V13.9082C125.648 13.3665 125.978 12.7572 126.131 12.0801C126.317 12.0462 126.435 11.9616 126.486 11.8262C126.554 11.6908 126.588 11.5299 126.588 11.3438C126.672 11.3438 126.723 11.3099 126.74 11.2422C126.774 11.1576 126.85 11.1322 126.968 11.166C127.121 10.7598 127.29 10.3874 127.476 10.0488C127.663 9.71029 127.849 9.37174 128.035 9.0332C128.221 8.67773 128.382 8.3138 128.517 7.94141C128.67 7.56901 128.78 7.1543 128.847 6.69727C129.084 6.68034 129.211 6.57031 129.228 6.36719C129.262 6.14714 129.296 5.95247 129.33 5.7832C129.584 5.54622 129.77 5.26693 129.888 4.94531C130.024 4.6237 130.142 4.29362 130.244 3.95508C130.345 3.59961 130.455 3.2526 130.574 2.91406C130.709 2.55859 130.896 2.24544 131.133 1.97461V1.89844C131.133 1.8138 131.099 1.76302 131.031 1.74609C130.963 1.71224 130.929 1.65299 130.929 1.56836C130.946 1.55143 130.955 1.53451 130.955 1.51758C131.158 1.43294 131.31 1.29753 131.412 1.11133C131.513 0.908203 131.666 0.764323 131.869 0.679688C132.224 0.967448 132.538 1.14518 132.808 1.21289C133.079 1.26367 133.435 1.30599 133.875 1.33984C134.095 1.57682 134.213 1.86458 134.23 2.20312C134.264 2.52474 134.323 2.84635 134.408 3.16797C134.543 3.70964 134.687 4.24284 134.84 4.76758C135.009 5.27539 135.136 5.80013 135.22 6.3418C135.271 6.66341 135.364 6.9681 135.5 7.25586C135.635 7.54362 135.728 7.83984 135.779 8.14453C135.813 8.38151 135.813 8.65234 135.779 8.95703C135.745 9.24479 135.779 9.4987 135.881 9.71875L136.058 10.125C136.143 10.3112 136.211 10.5059 136.261 10.709C136.329 10.9121 136.388 11.1152 136.439 11.3184C136.575 11.8262 136.693 12.3763 136.795 12.9688C136.913 13.5443 137.091 14.069 137.328 14.543C137.413 14.7122 137.539 14.8307 137.709 14.8984C137.895 14.9661 138.098 15.0169 138.318 15.0508C138.538 15.0677 138.75 15.0762 138.953 15.0762C139.173 15.0592 139.359 15.0508 139.511 15.0508H139.765C139.867 15.0508 139.969 15.0677 140.07 15.1016C140.138 15.237 140.172 15.3555 140.172 15.457C140.172 15.6602 140.104 15.821 139.969 15.9395C139.833 16.0579 139.765 16.1934 139.765 16.3457C139.765 16.4303 139.799 16.5234 139.867 16.625C139.799 16.6081 139.698 16.5996 139.562 16.5996C139.173 16.5996 138.792 16.6673 138.42 16.8027C138.555 17.0905 138.733 17.3359 138.953 17.5391C139.19 17.7253 139.435 17.903 139.689 18.0723C139.858 17.9368 140.036 17.8691 140.222 17.8691C140.426 17.8691 140.612 17.9199 140.781 18.0215C140.967 18.1061 141.162 18.1484 141.365 18.1484C141.517 18.1484 141.627 18.123 141.695 18.0723C141.83 18.2246 141.941 18.3854 142.025 18.5547C142.11 18.707 142.22 18.8509 142.355 18.9863ZM134.408 14.9238C134.374 14.6361 134.315 14.4329 134.23 14.3145C134.163 14.179 134.103 14.0182 134.052 13.832C133.985 13.5951 133.934 13.3411 133.9 13.0703C133.883 12.7995 133.849 12.5371 133.799 12.2832C133.68 11.7077 133.545 11.1322 133.392 10.5566C133.257 9.98112 133.079 9.42253 132.859 8.88086C132.927 8.7793 132.961 8.6862 132.961 8.60156V8.52539C132.808 8.35612 132.698 8.15299 132.631 7.91602C132.563 7.66211 132.495 7.41667 132.427 7.17969C132.377 6.92578 132.301 6.69727 132.199 6.49414C132.114 6.27409 131.97 6.09635 131.767 5.96094C131.717 6.0625 131.691 6.18099 131.691 6.31641C131.691 6.4349 131.7 6.54492 131.717 6.64648C131.75 6.74805 131.767 6.85807 131.767 6.97656C131.598 7.0612 131.471 7.19661 131.386 7.38281C131.319 7.55208 131.2 7.6875 131.031 7.78906C130.896 8.33073 130.701 8.84701 130.447 9.33789C130.193 9.81185 129.922 10.2858 129.635 10.7598C129.364 11.2337 129.101 11.7161 128.847 12.207C128.594 12.681 128.39 13.1803 128.238 13.7051C128.018 13.8574 127.866 14.0521 127.781 14.2891C127.713 14.526 127.679 14.763 127.679 15C127.832 15.0846 128.001 15.1354 128.187 15.1523C128.39 15.1523 128.585 15.1523 128.771 15.1523C128.957 15.1523 129.135 15.1693 129.304 15.2031C129.474 15.237 129.626 15.3216 129.761 15.457C129.982 15.3893 130.219 15.347 130.472 15.3301C130.743 15.2962 130.963 15.2201 131.133 15.1016C131.471 15.2201 131.835 15.2793 132.224 15.2793C132.427 15.2793 132.622 15.2624 132.808 15.2285C133.011 15.1947 133.206 15.1523 133.392 15.1016C133.545 15.1354 133.663 15.1947 133.748 15.2793C133.832 15.347 133.959 15.3724 134.129 15.3555C134.213 15.2878 134.264 15.2201 134.281 15.1523C134.298 15.0677 134.34 14.9915 134.408 14.9238Z" fill="#EF06BC"/>
<path d="M24.1492 24.9395C24.1492 25.0918 24.1153 25.2357 24.0476 25.3711L23.8699 25.752C23.8191 25.8704 23.7683 25.9974 23.7175 26.1328C23.6667 26.2682 23.6498 26.429 23.6667 26.6152C23.4298 26.8861 23.1928 27.1484 22.9558 27.4023C22.7188 27.6562 22.5072 27.944 22.321 28.2656C22.1348 28.2487 21.991 28.291 21.8894 28.3926C21.8048 28.4941 21.7371 28.6296 21.6863 28.7988C21.3308 28.9173 21.0177 29.1035 20.7468 29.3574C20.476 29.5944 20.239 29.8568 20.0359 30.1445C19.1388 30.5169 18.3009 30.974 17.5222 31.5156C16.7436 32.0573 16.0326 32.6921 15.3894 33.4199C15.6941 33.4199 15.9903 33.4538 16.2781 33.5215C16.5828 33.5892 16.879 33.6654 17.1667 33.75C17.4714 33.8177 17.7677 33.8854 18.0554 33.9531C18.3432 34.0039 18.6394 34.0124 18.9441 33.9785C19.1641 34.1816 19.4096 34.3509 19.6804 34.4863C19.9682 34.6217 20.2475 34.7487 20.5183 34.8672C20.8061 34.9857 21.0769 35.1211 21.3308 35.2734C21.6016 35.4258 21.8386 35.612 22.0417 35.832C22.0417 35.8659 22.0333 35.8997 22.0164 35.9336C22.0164 35.9505 22.0164 35.9759 22.0164 36.0098C22.0164 36.1452 22.0502 36.2806 22.1179 36.416C22.1856 36.5345 22.2195 36.6615 22.2195 36.7969C22.1348 36.9323 22.0587 37.0762 21.991 37.2285C21.9233 37.3809 21.8386 37.5163 21.7371 37.6348C21.6524 37.7533 21.5509 37.8548 21.4324 37.9395C21.3139 38.0241 21.1531 38.0749 20.95 38.0918C20.8653 38.3796 20.7299 38.6081 20.5437 38.7773C20.3575 38.9297 20.1459 39.0736 19.9089 39.209C19.6889 39.3275 19.4688 39.4544 19.2488 39.5898C19.0287 39.7083 18.8425 39.8691 18.6902 40.0723C18.1824 40.1908 17.683 40.36 17.1921 40.5801C16.7182 40.7832 16.295 41.0794 15.9226 41.4688C15.6687 41.5026 15.4063 41.5449 15.1355 41.5957C14.8816 41.6296 14.6277 41.6465 14.3738 41.6465C14.0183 41.6465 13.7306 41.5788 13.5105 41.4434C13.2904 41.291 13.1635 41.0202 13.1296 40.6309C13.1804 40.5124 13.2566 40.4108 13.3582 40.3262L13.6882 40.0723C13.8067 39.9876 13.9083 39.903 13.9929 39.8184C14.0945 39.7168 14.1707 39.5983 14.2214 39.4629C14.2553 39.4629 14.2976 39.4714 14.3484 39.4883C14.3992 39.4883 14.45 39.4883 14.5007 39.4883C14.7039 39.4883 14.8647 39.446 14.9832 39.3613C15.1016 39.2767 15.2117 39.1921 15.3132 39.1074C15.4317 39.0228 15.5587 38.9466 15.6941 38.8789C15.8295 38.8112 16.0072 38.7858 16.2273 38.8027C16.3458 38.5827 16.5235 38.4219 16.7605 38.3203C16.9975 38.2018 17.2429 38.1003 17.4968 38.0156C17.7507 37.9141 17.9877 37.804 18.2078 37.6855C18.4447 37.5501 18.6056 37.3555 18.6902 37.1016C18.6056 36.9661 18.4955 36.8646 18.3601 36.7969C18.2247 36.7122 18.0723 36.6445 17.9031 36.5938L17.4207 36.4414C17.2683 36.3906 17.1329 36.3314 17.0144 36.2637C16.8282 36.3145 16.6505 36.3398 16.4812 36.3398C16.1257 36.3398 15.7787 36.306 15.4402 36.2383C15.1016 36.1706 14.7546 36.1367 14.3992 36.1367C14.0776 36.1367 13.7983 36.179 13.5613 36.2637C13.4766 36.2467 13.3835 36.2214 13.282 36.1875C13.1973 36.1536 13.1127 36.1198 13.0281 36.0859C12.6388 36.2383 12.2325 36.3145 11.8093 36.3145H10.1589C10.0235 36.3145 9.8881 36.3314 9.75269 36.3652C9.56649 36.7038 9.47339 37.0677 9.47339 37.457C9.47339 37.7448 9.51571 38.0241 9.60034 38.2949C9.68498 38.5488 9.76961 38.8197 9.85425 39.1074C10.1928 39.4121 10.5059 39.776 10.7937 40.1992C11.0815 40.6055 11.2253 41.054 11.2253 41.5449C11.2253 41.6634 11.2169 41.7565 11.2 41.8242C11.0307 41.7057 10.8106 41.6465 10.5398 41.6465C10.3028 41.6465 10.0743 41.6803 9.85425 41.748C9.65112 41.8158 9.43107 41.8665 9.19409 41.9004C9.00789 41.8158 8.81323 41.7311 8.61011 41.6465C8.40698 41.5449 8.21232 41.4264 8.02612 41.291C7.89071 41.0033 7.75529 40.7324 7.61987 40.4785C7.48446 40.2077 7.31519 39.9538 7.11206 39.7168V39.6152C7.11206 39.0228 7.06128 38.4388 6.95972 37.8633C6.87508 37.2878 6.83276 36.7038 6.83276 36.1113C6.83276 35.8405 6.84123 35.5697 6.85815 35.2988C6.89201 35.0111 6.97664 34.7487 7.11206 34.5117C7.06128 34.1055 7.03589 33.6823 7.03589 33.2422C7.03589 32.362 7.08667 31.4818 7.18823 30.6016C7.28979 29.7214 7.34058 28.8242 7.34058 27.9102C7.34058 27.724 7.33211 27.5378 7.31519 27.3516C7.31519 27.1654 7.30672 26.9792 7.28979 26.793H7.18823C6.96818 26.793 6.75659 26.8268 6.55347 26.8945C6.35034 26.9453 6.14722 27.0046 5.94409 27.0723C5.74097 27.14 5.52938 27.2077 5.30933 27.2754C5.08927 27.3262 4.86922 27.3516 4.64917 27.3516C4.51375 27.4193 4.40373 27.487 4.31909 27.5547C4.23446 27.6224 4.14982 27.6816 4.06519 27.7324C3.98055 27.7832 3.88745 27.8255 3.78589 27.8594C3.6674 27.8932 3.53198 27.9017 3.37964 27.8848C3.19344 28.0033 3.04956 28.0964 2.948 28.1641C2.82951 28.2148 2.6687 28.2741 2.46558 28.3418C2.36401 28.3757 2.27938 28.4264 2.21167 28.4941L2.00854 28.6719C1.94084 28.7227 1.86466 28.7734 1.78003 28.8242C1.69539 28.875 1.58537 28.9004 1.44995 28.9004C1.33146 28.9004 1.24683 28.8919 1.19604 28.875C1.09448 28.7904 1.00985 28.6888 0.942139 28.5703C0.857503 28.4518 0.781331 28.3418 0.713623 28.2402C0.628988 28.1217 0.544352 28.0202 0.459717 27.9355C0.358154 27.834 0.239665 27.7578 0.104248 27.707C0.171956 27.6224 0.205811 27.5547 0.205811 27.5039C0.188883 27.4362 0.18042 27.36 0.18042 27.2754C0.18042 27.2246 0.188883 27.1908 0.205811 27.1738C0.290446 26.8691 0.44279 26.6322 0.662842 26.4629C0.882894 26.2767 1.12834 26.1328 1.39917 26.0312C1.67 25.9128 1.9493 25.8112 2.23706 25.7266C2.50789 25.6419 2.7618 25.5404 2.99878 25.4219C3.65894 25.4388 4.25985 25.3796 4.80151 25.2441C5.34318 25.0918 5.90177 24.8802 6.47729 24.6094C6.57886 24.6602 6.68042 24.6855 6.78198 24.6855C6.86662 24.6855 6.95125 24.6771 7.03589 24.6602L7.28979 24.6094C7.49292 24.4401 7.71297 24.3301 7.94995 24.2793C8.18693 24.2285 8.42391 24.1862 8.66089 24.1523C8.89787 24.1185 9.12638 24.0846 9.34644 24.0508C9.56649 24 9.76115 23.9069 9.93042 23.7715H10.032C10.4382 23.7715 10.8445 23.7038 11.2507 23.5684C11.6739 23.4329 12.0802 23.3822 12.4695 23.416C12.808 23.2298 13.1212 23.1113 13.4089 23.0605C13.6967 23.0098 14.0268 22.9844 14.3992 22.9844C14.4838 22.9844 14.5854 22.9505 14.7039 22.8828C14.8223 22.7982 14.9662 22.7559 15.1355 22.7559C15.1694 22.7559 15.1947 22.7643 15.2117 22.7812C15.2455 22.7812 15.2794 22.7812 15.3132 22.7812C15.4656 22.7812 15.5671 22.7305 15.6179 22.6289C15.6856 22.5273 15.8464 22.4766 16.1003 22.4766C16.2188 22.4766 16.3289 22.485 16.4304 22.502C16.532 22.502 16.6335 22.502 16.7351 22.502C16.8536 22.502 16.9298 22.4596 16.9636 22.375C16.9975 22.2734 17.0736 22.2311 17.1921 22.248C17.2429 22.3158 17.3276 22.3496 17.446 22.3496C17.5645 22.3327 17.6576 22.3242 17.7253 22.3242C17.8438 22.3242 17.9115 22.3581 17.9285 22.4258C18.1993 22.2565 18.4955 22.1465 18.8171 22.0957C19.1557 22.0449 19.4773 22.0195 19.782 22.0195C19.9005 22.0195 20.019 22.028 20.1375 22.0449C20.2559 22.0449 20.3829 22.0534 20.5183 22.0703C20.6707 21.9688 20.8484 21.918 21.0515 21.918C21.17 21.918 21.3562 21.9688 21.6101 22.0703C21.8809 22.1719 22.1602 22.2904 22.448 22.4258C22.7358 22.5612 22.9981 22.7051 23.2351 22.8574C23.4721 23.0098 23.616 23.1367 23.6667 23.2383C23.7006 23.2721 23.7175 23.3483 23.7175 23.4668C23.7345 23.5853 23.7598 23.6868 23.7937 23.7715C23.8783 23.9746 23.9545 24.1693 24.0222 24.3555C24.1069 24.5247 24.1492 24.7194 24.1492 24.9395ZM21.3308 25.2188C21.3308 25.1849 21.3223 25.151 21.3054 25.1172C21.3054 25.0664 21.3054 25.0241 21.3054 24.9902C21.2208 24.8887 21.1023 24.8125 20.95 24.7617C20.8145 24.7109 20.6622 24.6686 20.4929 24.6348C20.3406 24.6009 20.1798 24.5755 20.0105 24.5586C19.8582 24.5247 19.7227 24.4824 19.6042 24.4316C19.2488 24.5501 18.8595 24.6094 18.4363 24.6094C18.047 24.6094 17.7 24.5501 17.3953 24.4316C17.2429 24.584 17.0483 24.7025 16.8113 24.7871C16.5743 24.8717 16.3204 24.9395 16.0496 24.9902C15.7957 25.0241 15.5333 25.0495 15.2625 25.0664C15.0085 25.0664 14.78 25.0664 14.5769 25.0664C14.5092 25.0664 14.3907 25.1172 14.2214 25.2188C14.0522 25.3203 13.8998 25.3711 13.7644 25.3711C13.6628 25.3711 13.5697 25.3288 13.4851 25.2441C13.3328 25.3626 13.1212 25.4642 12.8503 25.5488C12.5795 25.6335 12.3002 25.7096 12.0125 25.7773C11.7247 25.8281 11.4285 25.8874 11.1238 25.9551C10.836 26.0228 10.5906 26.0905 10.3875 26.1582C10.1843 26.5983 10.0743 27.0807 10.0574 27.6055C10.0404 28.1133 10.032 28.6126 10.032 29.1035C10.032 29.3913 10.0151 29.6706 9.9812 29.9414C9.94735 30.2122 9.93042 30.4915 9.93042 30.7793C9.93042 30.9147 9.93888 31.0586 9.95581 31.2109C9.97274 31.3464 10.0235 31.4818 10.1082 31.6172C9.97274 31.7188 9.87964 31.8542 9.82886 32.0234C9.795 32.1758 9.77808 32.3281 9.77808 32.4805C9.77808 32.6667 9.795 32.8359 9.82886 32.9883C9.86271 33.1406 9.89657 33.2845 9.93042 33.4199C10.4721 33.3691 10.963 33.2676 11.4031 33.1152C11.8601 32.9629 12.2833 32.7767 12.6726 32.5566C13.0789 32.3366 13.4682 32.0827 13.8406 31.7949C14.213 31.5072 14.6023 31.2025 15.0085 30.8809C15.1778 30.847 15.3132 30.7962 15.4148 30.7285C15.5333 30.6608 15.6772 30.627 15.8464 30.627C15.9141 30.39 16.0411 30.2292 16.2273 30.1445C16.4135 30.043 16.5574 29.8991 16.6589 29.7129C16.8621 29.6621 17.0313 29.5944 17.1667 29.5098C17.3191 29.4082 17.463 29.3151 17.5984 29.2305C17.7338 29.1289 17.8777 29.0358 18.03 28.9512C18.1993 28.8665 18.3855 28.8158 18.5886 28.7988C18.8764 28.4603 19.1726 28.1217 19.4773 27.7832C19.7989 27.4447 20.1713 27.1738 20.5945 26.9707C20.6622 26.8014 20.7384 26.6576 20.823 26.5391C20.9076 26.4036 20.9838 26.2767 21.0515 26.1582C21.1361 26.0228 21.2039 25.8874 21.2546 25.752C21.3054 25.5996 21.3308 25.4219 21.3308 25.2188Z" fill="#EF06BC"/>
<path d="M56.9539 38.4219C56.92 38.6758 56.8269 38.8704 56.6746 39.0059C56.5391 39.1413 56.3783 39.2682 56.1921 39.3867C56.1075 39.3698 56.0229 39.3613 55.9382 39.3613C55.8705 39.3444 55.7944 39.3359 55.7097 39.3359C55.185 39.319 54.6856 39.3867 54.2117 39.5391C53.7546 39.6914 53.2807 39.8014 52.7898 39.8691C52.6205 39.903 52.4597 39.9199 52.3074 39.9199C52.172 39.903 52.0281 39.9115 51.8757 39.9453C51.3341 40.0299 50.7585 40.0977 50.1492 40.1484C49.5398 40.1992 48.9304 40.2669 48.321 40.3516C47.7117 40.4193 47.1108 40.5124 46.5183 40.6309C45.9428 40.7324 45.4011 40.8848 44.8933 41.0879C44.8425 41.054 44.7917 41.0202 44.741 40.9863C44.6902 40.9355 44.6309 40.9102 44.5632 40.9102C44.394 40.9102 44.2332 40.9355 44.0808 40.9863C43.9285 41.0371 43.7761 41.054 43.6238 41.0371C43.4545 41.1387 43.2683 41.2148 43.0652 41.2656C42.879 41.2995 42.6843 41.3333 42.4812 41.3672C42.295 41.3841 42.1088 41.418 41.9226 41.4688C41.7364 41.5195 41.5587 41.6126 41.3894 41.748C41.254 41.6803 41.0847 41.6465 40.8816 41.6465C40.6954 41.6296 40.5684 41.5618 40.5007 41.4434C40.1114 41.6296 39.6967 41.748 39.2566 41.7988C38.8334 41.8496 38.4018 41.8665 37.9617 41.8496C37.6739 41.8327 37.3438 41.7904 36.9714 41.7227C36.599 41.6549 36.2266 41.5618 35.8542 41.4434C35.4819 41.3079 35.1348 41.1556 34.8132 40.9863C34.4916 40.8001 34.2462 40.5801 34.0769 40.3262C33.9584 40.1569 33.8738 39.9707 33.823 39.7676C33.7722 39.5645 33.6537 39.4121 33.4675 39.3105C33.5183 38.9212 33.5776 38.5404 33.6453 38.168C33.713 37.7956 33.7807 37.4147 33.8484 37.0254C34.1869 36.7376 34.5085 36.4329 34.8132 36.1113C35.1179 35.7897 35.4057 35.4512 35.6765 35.0957C35.9981 34.9434 36.2944 34.7572 36.5652 34.5371C36.8529 34.3171 37.1322 34.097 37.4031 33.877C37.6908 33.64 37.9701 33.4115 38.241 33.1914C38.5287 32.9714 38.8334 32.7767 39.155 32.6074C39.2058 32.4889 39.2735 32.3958 39.3582 32.3281C39.4597 32.2435 39.5613 32.1673 39.6628 32.0996C39.7644 32.015 39.8575 31.9303 39.9421 31.8457C40.0268 31.7441 40.086 31.6257 40.1199 31.4902C40.7123 31.1348 41.2286 30.6862 41.6687 30.1445C42.1088 29.6029 42.3966 28.9935 42.532 28.3164C42.2442 28.0794 41.9141 27.9271 41.5417 27.8594C41.1863 27.7747 40.8139 27.7155 40.4246 27.6816C40.086 27.6647 39.7306 27.6647 39.3582 27.6816C39.0027 27.6986 38.6388 27.6901 38.2664 27.6562C37.894 27.7747 37.5046 27.8509 37.0984 27.8848C36.7091 27.9186 36.3197 27.9525 35.9304 27.9863C35.5411 28.0033 35.1518 28.054 34.7625 28.1387C34.3901 28.2064 34.0261 28.3418 33.6707 28.5449C33.6029 28.5449 33.5352 28.5365 33.4675 28.5195C33.4167 28.5026 33.3575 28.4941 33.2898 28.4941C32.7481 28.4772 32.2403 28.5872 31.7664 28.8242C31.2924 29.0443 30.8269 29.2643 30.3699 29.4844C30.336 29.5521 30.3191 29.6029 30.3191 29.6367C30.3191 29.7383 30.336 29.8398 30.3699 29.9414C30.4207 30.026 30.446 30.1191 30.446 30.2207C30.4291 30.2376 30.4207 30.2546 30.4207 30.2715C30.4207 30.2884 30.4122 30.3053 30.3953 30.3223C30.3783 30.4069 30.3529 30.4831 30.3191 30.5508C30.3022 30.6185 30.2768 30.6947 30.2429 30.7793C30.0567 31.321 29.9552 31.8542 29.9382 32.3789C29.9213 32.819 29.9213 33.2507 29.9382 33.6738C29.9552 34.097 29.9552 34.5286 29.9382 34.9688C29.9044 35.5104 29.8197 36.0182 29.6843 36.4922C29.769 36.8984 29.8451 37.3301 29.9128 37.7871C29.9806 38.2272 30.0652 38.6673 30.1667 39.1074C30.2683 39.5475 30.3868 39.9792 30.5222 40.4023C30.6746 40.8086 30.8692 41.1979 31.1062 41.5703C31.0893 41.6042 31.0977 41.6296 31.1316 41.6465C31.1654 41.6634 31.1993 41.6719 31.2332 41.6719H31.4363C31.5209 41.6719 31.5548 41.7057 31.5378 41.7734C31.5717 41.8242 31.5971 41.875 31.614 41.9258C31.6309 41.9596 31.6648 41.9935 31.7156 42.0273C31.7494 42.0781 31.7494 42.1458 31.7156 42.2305C31.6986 42.569 31.614 42.8822 31.4617 43.1699C31.3093 43.4577 31.2162 43.7708 31.1824 44.1094C30.9792 44.1602 30.7931 44.1855 30.6238 44.1855C30.336 44.1686 30.0821 44.084 29.8621 43.9316C29.642 43.7962 29.4389 43.627 29.2527 43.4238C29.0665 43.2207 28.8888 43.0176 28.7195 42.8145C28.5502 42.5944 28.364 42.4082 28.1609 42.2559C28.0424 41.7819 27.9239 41.2572 27.8054 40.6816C27.7039 40.1061 27.5261 39.6152 27.2722 39.209C27.3399 39.0566 27.3738 38.8704 27.3738 38.6504C27.3907 38.3118 27.3569 37.9818 27.2722 37.6602C27.2045 37.3216 27.1876 36.9831 27.2214 36.6445C27.2214 36.4583 27.2384 36.2721 27.2722 36.0859C27.323 35.8997 27.3569 35.7135 27.3738 35.5273C27.3907 35.2396 27.3569 34.9603 27.2722 34.6895C27.2045 34.4186 27.1791 34.1393 27.196 33.8516C27.213 33.7161 27.2384 33.5892 27.2722 33.4707C27.323 33.3353 27.3907 33.2168 27.4753 33.1152C27.3907 32.9121 27.3653 32.7174 27.3992 32.5312C27.4161 32.2435 27.45 31.9727 27.5007 31.7188C27.5515 31.4648 27.5854 31.2109 27.6023 30.957C27.6023 30.8216 27.5938 30.6947 27.5769 30.5762C27.56 30.4408 27.5346 30.3138 27.5007 30.1953L27.2722 30.1191C27.1707 30.1191 27.0691 30.1445 26.9675 30.1953C26.8829 30.2461 26.8067 30.3053 26.739 30.373C26.6713 30.4408 26.6121 30.5 26.5613 30.5508C26.5105 30.5846 26.4597 30.6016 26.4089 30.6016C26.3751 30.6016 26.3328 30.6016 26.282 30.6016C26.2481 30.5846 26.2143 30.5762 26.1804 30.5762C26.1466 30.5762 26.0789 30.61 25.9773 30.6777C25.8927 30.7454 25.7826 30.8216 25.6472 30.9062C25.5287 30.974 25.4102 31.0501 25.2917 31.1348C25.1733 31.2025 25.0802 31.2448 25.0125 31.2617C24.8263 31.2279 24.6739 31.1686 24.5554 31.084C24.4539 30.9824 24.3523 30.8893 24.2507 30.8047C24.1661 30.7031 24.073 30.6185 23.9714 30.5508C23.8699 30.4661 23.7429 30.4323 23.5906 30.4492C23.5398 30.3477 23.5144 30.2376 23.5144 30.1191C23.4975 30.0007 23.4975 29.8822 23.5144 29.7637V29.3574C23.6329 29.1374 23.7937 28.9596 23.9968 28.8242C24.183 28.6719 24.3861 28.5449 24.6062 28.4434L25.2664 28.1387C25.4864 28.0371 25.6895 27.9102 25.8757 27.7578H26.1042C26.4089 27.7747 26.6713 27.7155 26.8914 27.5801C27.1283 27.4447 27.3484 27.2923 27.5515 27.123C27.7546 26.9368 27.9578 26.7507 28.1609 26.5645C28.3809 26.3783 28.6179 26.2344 28.8718 26.1328C29.058 26.2174 29.2527 26.2936 29.4558 26.3613C29.6589 26.4121 29.8705 26.446 30.0906 26.4629C30.3106 26.4629 30.5391 26.429 30.7761 26.3613C31.0131 26.2936 31.1993 26.1667 31.3347 25.9805C31.4194 26.0143 31.4871 26.0397 31.5378 26.0566C31.6056 26.0566 31.6817 26.0566 31.7664 26.0566C32.0203 26.0736 32.2742 26.0397 32.5281 25.9551C32.782 25.8535 33.0274 25.735 33.2644 25.5996C33.6029 25.6165 33.933 25.5996 34.2546 25.5488C34.5932 25.4811 34.9233 25.4134 35.2449 25.3457C35.5834 25.278 35.9135 25.2188 36.2351 25.168C36.5736 25.1003 36.9122 25.0749 37.2507 25.0918C37.8093 25.1087 38.3595 25.0579 38.9011 24.9395C39.4428 24.821 39.9929 24.7786 40.5515 24.8125C40.9408 24.8294 41.3217 24.8633 41.6941 24.9141C42.0834 24.9479 42.4727 24.9564 42.8621 24.9395C43.0821 25.041 43.2768 25.1341 43.446 25.2188C43.6322 25.2865 43.8608 25.3034 44.1316 25.2695C44.6733 25.7266 45.1641 26.2598 45.6042 26.8691V27.3008C45.5873 27.6901 45.5196 28.071 45.4011 28.4434C45.2826 28.8158 45.1388 29.1882 44.9695 29.5605C44.8171 29.916 44.6479 30.2715 44.4617 30.627C44.2755 30.9655 44.0977 31.304 43.9285 31.6426C42.8282 32.6413 41.7279 33.6315 40.6277 34.6133C39.5274 35.5951 38.3933 36.543 37.2253 37.457C37.1915 37.6263 37.1407 37.7786 37.073 37.9141C37.0222 38.0495 36.9884 38.1934 36.9714 38.3457C36.9714 38.4303 36.9799 38.498 36.9968 38.5488C37.1153 38.5827 37.2169 38.6504 37.3015 38.752C37.4031 38.8366 37.4369 38.9551 37.4031 39.1074H37.6316C37.7162 39.1074 37.7585 39.1413 37.7585 39.209L38.1648 39.2344C38.808 39.2682 39.4513 39.2513 40.0945 39.1836C40.7377 39.1159 41.3809 39.0397 42.0242 38.9551C42.6843 38.8704 43.336 38.7943 43.9792 38.7266C44.6225 38.6419 45.2657 38.5911 45.9089 38.5742C46.0613 38.5234 46.2221 38.4811 46.3914 38.4473C46.5606 38.4134 46.713 38.3457 46.8484 38.2441H46.9246C47.0431 38.2441 47.1277 38.278 47.1785 38.3457C47.2462 38.4134 47.3393 38.4557 47.4578 38.4727C47.5424 38.4727 47.627 38.4557 47.7117 38.4219C47.8132 38.388 47.9148 38.3626 48.0164 38.3457C48.2533 38.278 48.4988 38.2357 48.7527 38.2188C49.0235 38.2018 49.2859 38.1764 49.5398 38.1426C50.5216 38.0579 51.4949 38.0072 52.4597 37.9902C53.4246 37.9564 54.3894 37.8294 55.3542 37.6094C55.4389 37.7279 55.5574 37.8125 55.7097 37.8633C55.8621 37.8971 56.0229 37.9395 56.1921 37.9902C56.3614 38.0241 56.5138 38.0664 56.6492 38.1172C56.8015 38.168 56.9031 38.2695 56.9539 38.4219Z" fill="#EF06BC"/>
<path d="M65.8152 28.1387C65.7136 28.291 65.6544 28.4603 65.6375 28.6465C65.6205 28.8327 65.6121 29.002 65.6121 29.1543C65.6121 29.3574 65.6121 29.5605 65.6121 29.7637C65.629 29.9499 65.6375 30.1361 65.6375 30.3223V30.7031C65.6036 30.8216 65.5528 30.9401 65.4851 31.0586C65.4174 31.1771 65.3666 31.2956 65.3328 31.4141C65.0958 32.0404 64.9773 32.6667 64.9773 33.293V33.3438C64.8927 33.5469 64.808 33.7331 64.7234 33.9023C64.6557 34.0716 64.588 34.2409 64.5203 34.4102C64.4526 34.5625 64.4018 34.7318 64.3679 34.918C64.3341 35.0872 64.3256 35.2904 64.3425 35.5273C64.1056 36.1198 63.7924 36.6615 63.4031 37.1523C63.0138 37.6263 62.6329 38.1172 62.2605 38.625C61.905 38.7604 61.575 38.9382 61.2703 39.1582C60.9825 39.3783 60.7032 39.6237 60.4324 39.8945C59.9076 40.0638 59.3914 40.2585 58.8835 40.4785C58.3757 40.6986 57.9187 40.9948 57.5125 41.3672C57.1908 41.401 56.8692 41.4518 56.5476 41.5195C56.226 41.5872 55.9128 41.6888 55.6082 41.8242H55.3035C55.1511 41.8242 55.0411 41.7904 54.9734 41.7227C54.7533 41.8411 54.5248 41.9258 54.2878 41.9766C54.0509 42.0104 53.8139 42.0273 53.5769 42.0273C53.2722 42.0273 52.9675 42.0104 52.6628 41.9766C52.3751 41.9258 52.0789 41.875 51.7742 41.8242C51.6049 41.5872 51.3679 41.4095 51.0632 41.291C50.7585 41.1556 50.4877 41.0286 50.2507 40.9102C49.7598 40.2331 49.4044 39.5814 49.1843 38.9551C48.9643 38.3118 48.7358 37.5924 48.4988 36.7969C48.5326 36.5599 48.5919 36.3314 48.6765 36.1113C48.7611 35.8743 48.795 35.6204 48.7781 35.3496C49.0828 34.4694 49.4806 33.6738 49.9714 32.9629C50.4792 32.235 51.0548 31.541 51.698 30.8809C51.698 30.7793 51.7149 30.6947 51.7488 30.627C51.7996 30.5592 51.808 30.4577 51.7742 30.3223C51.7911 30.3392 51.825 30.3477 51.8757 30.3477C52.0111 30.3477 52.0958 30.3138 52.1296 30.2461C52.1635 30.1615 52.172 30.0684 52.155 29.9668C52.7644 29.5775 53.3145 29.1289 53.8054 28.6211C54.3132 28.1133 54.8888 27.6901 55.532 27.3516C55.5828 27.1992 55.6674 27.0723 55.7859 26.9707C55.9044 26.8691 55.9975 26.7507 56.0652 26.6152C56.6069 26.4629 57.0977 26.2344 57.5378 25.9297C57.9779 25.625 58.4434 25.3542 58.9343 25.1172C59.2052 24.9648 59.4591 24.8633 59.696 24.8125C59.95 24.7448 60.2208 24.6771 60.5085 24.6094C60.6101 24.5755 60.7032 24.5501 60.7878 24.5332C60.8725 24.5163 60.9656 24.5078 61.0671 24.5078C61.3718 24.5078 61.6681 24.5671 61.9558 24.6855C62.2436 24.7871 62.5398 24.8379 62.8445 24.8379C62.9291 24.8379 62.9968 24.8379 63.0476 24.8379C63.1153 24.821 63.183 24.804 63.2507 24.7871C63.5385 25.1426 63.9024 25.4134 64.3425 25.5996C64.4441 25.8535 64.5626 26.0736 64.698 26.2598C64.8503 26.446 65.0027 26.6322 65.155 26.8184C65.3074 26.9876 65.4428 27.1823 65.5613 27.4023C65.6967 27.6055 65.7813 27.8509 65.8152 28.1387ZM63.2761 29.459C63.2761 29.3743 63.2677 29.2982 63.2507 29.2305C63.0815 29.1797 62.9207 29.112 62.7683 29.0273C62.616 28.9427 62.4467 28.9004 62.2605 28.9004C62.142 28.9004 62.0235 28.9258 61.905 28.9766C61.8881 28.8581 61.8373 28.7734 61.7527 28.7227C61.685 28.6719 61.6003 28.6296 61.4988 28.5957C61.4141 28.5449 61.321 28.5111 61.2195 28.4941C61.1348 28.4603 61.0587 28.4095 60.991 28.3418C60.9402 28.2064 60.8809 28.071 60.8132 27.9355C60.7625 27.7832 60.6609 27.6732 60.5085 27.6055C60.3562 27.7578 60.1785 27.8848 59.9753 27.9863C59.7722 28.071 59.5606 28.1556 59.3406 28.2402C59.1375 28.3249 58.9343 28.4264 58.7312 28.5449C58.545 28.6634 58.3842 28.8073 58.2488 28.9766H57.7917C57.6902 29.1628 57.5463 29.3066 57.3601 29.4082C57.1739 29.4928 57.0131 29.6198 56.8777 29.7891C56.6069 29.9245 56.3529 30.0938 56.116 30.2969C55.8959 30.4831 55.6759 30.6862 55.4558 30.9062C55.2358 31.1094 55.0157 31.321 54.7957 31.541C54.5925 31.7611 54.3725 31.9642 54.1355 32.1504C53.9154 32.6243 53.67 33.0391 53.3992 33.3945C53.1453 33.7331 52.8998 34.0801 52.6628 34.4355C52.4428 34.791 52.2481 35.1803 52.0789 35.6035C51.9265 36.0098 51.8503 36.5176 51.8503 37.127V37.3809C51.8503 37.4655 51.8588 37.5501 51.8757 37.6348C52.0958 37.8717 52.2735 38.1257 52.4089 38.3965C52.5613 38.6673 52.8067 38.862 53.1453 38.9805C53.4838 39.1159 53.8393 39.1751 54.2117 39.1582C54.601 39.1413 54.9734 39.1836 55.3289 39.2852C56.1414 39.1328 56.92 38.8874 57.6648 38.5488C58.4265 38.1934 59.1459 37.7702 59.823 37.2793C59.9246 37.1947 60.0431 37.11 60.1785 37.0254C60.3139 36.9238 60.4239 36.8223 60.5085 36.7207C60.5932 36.6361 60.6609 36.543 60.7117 36.4414C60.7794 36.3398 60.8471 36.2467 60.9148 36.1621C61.0502 35.9421 61.2026 35.722 61.3718 35.502C61.5411 35.2819 61.7188 35.0788 61.905 34.8926C61.9897 34.5202 62.0997 34.1647 62.2351 33.8262C62.3705 33.4707 62.5059 33.1237 62.6414 32.7852C62.7768 32.4466 62.8868 32.0996 62.9714 31.7441C63.073 31.3887 63.1238 31.0163 63.1238 30.627C63.1238 30.5423 63.1153 30.4492 63.0984 30.3477C63.0984 30.2461 63.0899 30.153 63.073 30.0684C63.2084 29.8822 63.2761 29.679 63.2761 29.459Z" fill="#EF06BC"/>
<path d="M89.4285 26.5137C89.3608 26.7337 89.2507 26.9368 89.0984 27.123L88.6667 27.6562C88.5313 27.8255 88.4128 28.0117 88.3113 28.2148C88.2266 28.401 88.2013 28.6211 88.2351 28.875C88.2013 28.875 88.1589 28.875 88.1082 28.875C88.0574 28.8581 88.0151 28.8496 87.9812 28.8496C87.7104 28.8496 87.4988 28.9173 87.3464 29.0527C87.211 29.1712 87.0248 29.2728 86.7878 29.3574C86.754 29.2559 86.7117 29.1628 86.6609 29.0781C86.6101 28.9766 86.5339 28.9089 86.4324 28.875C86.0261 28.9596 85.6199 29.0273 85.2136 29.0781C84.8074 29.112 84.4011 29.1628 83.9949 29.2305C83.8087 29.2643 83.6225 29.3151 83.4363 29.3828C83.2501 29.4336 83.0554 29.4844 82.8523 29.5352C82.7507 29.569 82.6407 29.5859 82.5222 29.5859C82.4037 29.569 82.2852 29.569 82.1667 29.5859C81.7605 29.6029 81.3204 29.6367 80.8464 29.6875C80.3725 29.7214 79.9493 29.8483 79.5769 30.0684C79.4076 30.0345 79.2299 30.0091 79.0437 29.9922C78.8575 29.9753 78.6713 29.9668 78.4851 29.9668C78.0789 29.9668 77.6303 30.0091 77.1394 30.0938C76.6654 30.1615 76.2423 30.3053 75.8699 30.5254C75.7852 30.4915 75.6921 30.4661 75.5906 30.4492C75.5059 30.4323 75.4044 30.4238 75.2859 30.4238C75.252 30.4238 75.2266 30.4323 75.2097 30.4492C75.1928 30.4492 75.1674 30.4492 75.1335 30.4492C75.1166 30.6016 75.1335 30.7539 75.1843 30.9062C75.252 31.0417 75.3621 31.1517 75.5144 31.2363C75.4467 31.4225 75.4128 31.6257 75.4128 31.8457C75.4128 32.1335 75.4298 32.4212 75.4636 32.709C75.5144 32.9967 75.5398 33.2845 75.5398 33.5723C75.5398 33.8939 75.4975 34.1478 75.4128 34.334C75.5821 34.8418 75.6667 35.3835 75.6667 35.959C75.6667 36.1621 75.6498 36.3652 75.616 36.5684C75.599 36.7546 75.5906 36.9577 75.5906 37.1777C75.5906 37.3639 75.6583 37.5163 75.7937 37.6348C75.9291 37.7363 75.9968 37.8802 75.9968 38.0664C75.9968 38.1341 75.9799 38.2018 75.946 38.2695C76.183 38.2188 76.4115 38.151 76.6316 38.0664C76.8516 37.9648 77.0802 37.9141 77.3171 37.9141C77.4526 37.9141 77.5795 37.9395 77.698 37.9902C77.8334 38.041 77.9519 38.1087 78.0535 38.1934C78.0365 38.278 78.0196 38.3711 78.0027 38.4727C78.0027 38.5742 78.0027 38.6758 78.0027 38.7773C78.0027 38.9635 78.0027 39.1413 78.0027 39.3105C78.0196 39.4629 78.0365 39.6322 78.0535 39.8184C77.9181 40.0553 77.7572 40.2669 77.571 40.4531C77.4018 40.6393 77.2833 40.8763 77.2156 41.1641C76.9617 41.1641 76.7332 41.2233 76.53 41.3418C76.3438 41.4434 76.1661 41.5618 75.9968 41.6973C75.8276 41.8158 75.6583 41.9342 75.489 42.0527C75.3197 42.1543 75.1335 42.2051 74.9304 42.2051C74.6765 42.2051 74.4988 42.1712 74.3972 42.1035C74.2957 42.0189 74.2195 41.9342 74.1687 41.8496C74.1179 41.765 74.0671 41.6888 74.0164 41.6211C73.9825 41.5534 73.8979 41.528 73.7625 41.5449C73.7286 41.3249 73.6609 41.1217 73.5593 40.9355C73.4578 40.7324 73.3477 40.5378 73.2292 40.3516C73.1277 40.1654 73.0177 39.9792 72.8992 39.793C72.7976 39.5898 72.7214 39.3867 72.6707 39.1836C72.5691 38.7435 72.5268 38.2865 72.5437 37.8125C72.5606 37.3385 72.4845 36.8815 72.3152 36.4414C72.349 36.2044 72.3744 35.9674 72.3914 35.7305C72.4083 35.4766 72.4167 35.2311 72.4167 34.9941C72.4167 34.5202 72.3998 34.0547 72.366 33.5977C72.349 33.1237 72.3321 32.6413 72.3152 32.1504C72.1967 31.998 72.1205 31.8288 72.0867 31.6426C72.0697 31.4395 72.0528 31.2448 72.0359 31.0586C71.9851 31.0078 71.9259 30.957 71.8582 30.9062C71.8074 30.8555 71.7735 30.7878 71.7566 30.7031C71.6212 30.6693 71.5196 30.6523 71.4519 30.6523C71.2149 30.6523 71.0118 30.7116 70.8425 30.8301C70.6902 30.9316 70.5463 30.9824 70.4109 30.9824C70.2755 30.9824 70.1485 30.9655 70.03 30.9316C69.9115 30.8978 69.7931 30.8809 69.6746 30.8809C69.573 30.8809 69.5138 30.9062 69.4968 30.957C69.4968 30.9909 69.463 31.0247 69.3953 31.0586C69.3445 31.0924 69.226 31.1263 69.0398 31.1602C68.8536 31.194 68.642 31.2279 68.405 31.2617C68.185 31.2786 67.9649 31.2956 67.7449 31.3125C67.5417 31.3294 67.4063 31.3379 67.3386 31.3379C67.0678 31.3379 66.8647 31.2871 66.7292 31.1855C66.5769 31.0671 66.3992 30.9401 66.196 30.8047C66.2299 30.7031 66.2468 30.6354 66.2468 30.6016C66.2468 30.4323 66.196 30.2969 66.0945 30.1953C65.9929 30.0768 65.9421 29.9753 65.9421 29.8906C65.9421 29.7044 66.0183 29.5605 66.1707 29.459C66.3061 29.3574 66.3822 29.1966 66.3992 28.9766C66.7885 28.8073 67.1863 28.6803 67.5925 28.5957C67.9988 28.5111 68.4135 28.4434 68.8367 28.3926C69.2598 28.3418 69.6746 28.2826 70.0808 28.2148C70.504 28.1471 70.9187 28.0371 71.325 27.8848C71.4434 27.9017 71.5535 27.9186 71.655 27.9355C71.7735 27.9355 71.892 27.9355 72.0105 27.9355C72.5183 27.9355 73.0177 27.8848 73.5085 27.7832C74.0164 27.6647 74.5326 27.6055 75.0574 27.6055C75.1928 27.6055 75.3282 27.6139 75.4636 27.6309C75.599 27.6478 75.7345 27.6732 75.8699 27.707C76.547 27.6055 77.2156 27.4954 77.8757 27.377C78.5528 27.2585 79.2468 27.1569 79.9578 27.0723C80.2963 27.0384 80.6264 27.013 80.948 26.9961C81.2865 26.9622 81.6251 26.9199 81.9636 26.8691C82.0821 26.8522 82.1667 26.8268 82.2175 26.793C82.2852 26.7422 82.3191 26.6491 82.3191 26.5137C82.4714 26.5814 82.6407 26.6152 82.8269 26.6152C83.1147 26.6152 83.394 26.5645 83.6648 26.4629C83.9356 26.3613 84.2149 26.3105 84.5027 26.3105C84.5704 26.3105 84.6296 26.319 84.6804 26.3359C84.7312 26.3359 84.782 26.3359 84.8328 26.3359C84.9513 26.3359 85.0105 26.2852 85.0105 26.1836C85.0274 26.0651 85.1121 25.9889 85.2644 25.9551C85.3829 25.9212 85.5522 25.8958 85.7722 25.8789C85.9923 25.862 86.2208 25.8451 86.4578 25.8281C86.7117 25.7943 86.9402 25.7604 87.1433 25.7266C87.3634 25.6758 87.5242 25.6081 87.6257 25.5234L87.8035 25.2441C88.1082 25.2611 88.3282 25.3965 88.4636 25.6504C88.616 25.8874 88.7006 26.1497 88.7175 26.4375C88.7852 26.5052 88.8783 26.5391 88.9968 26.5391C89.1322 26.5221 89.2507 26.5137 89.3523 26.5137H89.4285Z" fill="#EF06BC"/>
<path d="M101.718 30.9824C101.65 31.1517 101.582 31.3125 101.514 31.4648C101.447 31.6172 101.396 31.7865 101.362 31.9727C101.244 32.0573 101.108 32.125 100.956 32.1758C100.82 32.2096 100.677 32.252 100.524 32.3027C100.372 32.3366 100.228 32.3874 100.093 32.4551C99.974 32.5059 99.8809 32.5905 99.8132 32.709C99.7625 32.9629 99.7371 33.1999 99.7371 33.4199C99.7371 33.7077 99.7878 33.9531 99.8894 34.1562C99.8386 34.3086 99.8048 34.4694 99.7878 34.6387C99.7709 34.8079 99.7625 34.9688 99.7625 35.1211C99.7625 35.6797 99.8302 36.2383 99.9656 36.7969C100.101 37.3385 100.177 37.8887 100.194 38.4473C100.194 38.5319 100.186 38.625 100.169 38.7266C100.152 38.8281 100.143 38.9212 100.143 39.0059C100.143 39.3613 100.279 39.5983 100.55 39.7168C100.499 39.8014 100.473 39.8776 100.473 39.9453C100.473 40.0807 100.49 40.1992 100.524 40.3008C100.558 40.4023 100.566 40.5124 100.55 40.6309C100.634 40.8001 100.719 40.9525 100.803 41.0879C100.888 41.2064 100.947 41.3587 100.981 41.5449C100.863 41.7819 100.719 42.002 100.55 42.2051C100.38 42.3913 100.262 42.6283 100.194 42.916C100.126 42.8991 100.05 42.8906 99.9656 42.8906C99.8471 42.8906 99.754 42.916 99.6863 42.9668C99.6186 43.0176 99.5593 43.0768 99.5085 43.1445C99.4747 43.2292 99.4324 43.3053 99.3816 43.373C99.3308 43.4577 99.2631 43.5169 99.1785 43.5508H99.1023C99.0177 43.5677 98.9415 43.5592 98.8738 43.5254C98.823 43.5085 98.7722 43.5 98.7214 43.5C98.6876 43.5 98.6199 43.5169 98.5183 43.5508C98.3829 43.3815 98.2898 43.1784 98.239 42.9414C98.1882 42.7214 98.1628 42.5013 98.1628 42.2812C98.1628 42.0443 98.1967 41.8327 98.2644 41.6465C98.0782 41.4941 97.9597 41.2656 97.9089 40.9609C97.8751 40.6562 97.8328 40.4023 97.782 40.1992C97.6466 39.5729 97.4858 38.9635 97.2996 38.3711C97.1303 37.7786 97.0287 37.1693 96.9949 36.543C96.9779 36.306 96.9695 36.0775 96.9695 35.8574V34.5371C96.9695 34.3171 96.9779 34.1055 96.9949 33.9023C96.9949 33.75 97.0033 33.6061 97.0203 33.4707C97.0541 33.3184 97.071 33.166 97.071 33.0137C97.071 32.8105 97.0033 32.6159 96.8679 32.4297C95.6661 32.4805 94.5235 32.7005 93.4402 33.0898C92.3738 33.4622 91.3074 33.9108 90.241 34.4355C90.1733 34.8249 90.1309 35.2057 90.114 35.5781C90.0971 35.9505 90.0886 36.3314 90.0886 36.7207V37.8379C90.0886 38.2611 90.1056 38.6165 90.1394 38.9043C90.224 39.3952 90.4695 39.776 90.8757 40.0469C91.2989 40.3008 91.7221 40.4954 92.1453 40.6309C92.1283 40.8848 92.0776 41.1048 91.9929 41.291C91.9083 41.4603 91.7983 41.6211 91.6628 41.7734C91.5444 41.9089 91.4089 42.0443 91.2566 42.1797C91.1042 42.3151 90.9519 42.4674 90.7996 42.6367C90.6641 42.5521 90.5287 42.4928 90.3933 42.459C90.2579 42.4251 90.114 42.4082 89.9617 42.4082C89.8093 42.3913 89.657 42.3743 89.5046 42.3574C89.3523 42.3405 89.2 42.3066 89.0476 42.2559L88.489 41.4941C88.3028 41.2402 88.0997 40.9863 87.8796 40.7324V40.5039C87.8796 40.0469 87.795 39.6068 87.6257 39.1836C87.4565 38.7604 87.3295 38.3288 87.2449 37.8887C87.2957 37.7363 87.3295 37.584 87.3464 37.4316C87.3634 37.2793 87.3718 37.1185 87.3718 36.9492C87.3718 36.6107 87.3549 36.2806 87.321 35.959C87.3041 35.6374 87.3126 35.3158 87.3464 34.9941H87.2195C87.0671 34.9941 86.9063 35.0365 86.7371 35.1211C86.5678 35.1888 86.3985 35.2734 86.2292 35.375C86.0769 35.4596 85.9246 35.5443 85.7722 35.6289C85.6368 35.6966 85.5183 35.7305 85.4167 35.7305C85.366 35.7305 85.3152 35.722 85.2644 35.7051C85.2136 35.6882 85.1544 35.6797 85.0867 35.6797C85.002 35.6797 84.9005 35.7135 84.782 35.7812C84.6635 35.849 84.5365 35.9251 84.4011 36.0098C84.2488 36.0775 84.0964 36.1452 83.9441 36.2129C83.7917 36.2806 83.6394 36.3145 83.4871 36.3145C83.2501 36.3145 83.0131 36.2129 82.7761 36.0098C82.7423 35.8743 82.7338 35.7474 82.7507 35.6289C82.7507 35.5104 82.7507 35.3835 82.7507 35.248C82.7507 35.1126 82.7253 34.9688 82.6746 34.8164C82.7931 34.5964 82.9539 34.4271 83.157 34.3086C83.3432 34.1732 83.5463 34.0547 83.7664 33.9531C83.9695 33.8346 84.1811 33.7246 84.4011 33.623C84.6212 33.5046 84.8074 33.3522 84.9597 33.166H85.1121C85.349 33.166 85.5606 33.1152 85.7468 33.0137C85.95 32.9121 86.1785 32.8698 86.4324 32.8867C86.517 32.8529 86.5763 32.7259 86.6101 32.5059L86.7117 32.5312C87.0841 32.5312 87.4141 32.4043 87.7019 32.1504C87.8881 31.1009 88.0404 30.043 88.1589 28.9766C88.2774 27.9102 88.3367 26.8438 88.3367 25.7773C88.3367 25.6758 88.3028 25.5742 88.2351 25.4727C88.2013 25.3372 88.1843 25.2103 88.1843 25.0918V24.7109C88.1843 24.5247 88.1928 24.3301 88.2097 24.127C88.2266 23.9238 88.269 23.7207 88.3367 23.5176C88.5059 23.416 88.6837 23.3652 88.8699 23.3652C89.0899 23.3652 89.3015 23.3991 89.5046 23.4668C89.7247 23.5176 89.9363 23.5599 90.1394 23.5938C90.2917 23.7461 90.4018 23.9154 90.4695 24.1016C90.5541 24.2878 90.6049 24.4824 90.6218 24.6855C90.6388 24.8717 90.6388 25.0664 90.6218 25.2695C90.6218 25.4557 90.6218 25.6419 90.6218 25.8281C90.6218 26.2005 90.6641 26.5645 90.7488 26.9199C90.8334 27.2754 90.8757 27.6224 90.8757 27.9609C90.8757 28.0456 90.8419 28.1133 90.7742 28.1641C90.7234 28.1979 90.698 28.3079 90.698 28.4941C90.698 28.6803 90.7149 28.875 90.7488 29.0781C90.7826 29.2812 90.7996 29.4844 90.7996 29.6875C90.7996 29.9245 90.7657 30.1699 90.698 30.4238C90.6303 30.6777 90.571 30.9232 90.5203 31.1602C91.5359 31.0755 92.5769 30.9486 93.6433 30.7793C94.7097 30.61 95.7253 30.3392 96.6902 29.9668C96.7071 29.9329 96.7156 29.8822 96.7156 29.8145C96.7156 29.7129 96.7071 29.6113 96.6902 29.5098C96.6733 29.4082 96.6648 29.2982 96.6648 29.1797C96.6648 28.9766 96.7325 28.8158 96.8679 28.6973C96.7833 28.2233 96.724 27.7493 96.6902 27.2754C96.6563 26.8014 96.6394 26.3275 96.6394 25.8535V24.4062C96.6394 23.9323 96.6309 23.4583 96.614 22.9844C96.7494 22.8997 96.8933 22.8574 97.0457 22.8574C97.2319 22.8574 97.4011 22.9082 97.5535 23.0098C97.7227 23.0944 97.9174 23.1367 98.1375 23.1367C98.2898 23.1367 98.4167 23.1113 98.5183 23.0605C98.7045 23.2298 98.8315 23.4499 98.8992 23.7207C98.9669 23.9915 99.0261 24.2708 99.0769 24.5586C99.1277 24.8464 99.1785 25.1341 99.2292 25.4219C99.297 25.6927 99.4239 25.9128 99.6101 26.082L99.6355 26.1582C99.6355 26.2259 99.6016 26.2767 99.5339 26.3105C99.4662 26.3444 99.4324 26.4121 99.4324 26.5137V26.6152C99.5001 26.8861 99.5509 27.1654 99.5847 27.4531C99.6186 27.7409 99.644 28.0371 99.6609 28.3418C99.6947 28.6296 99.7371 28.9173 99.7878 29.2051C99.8386 29.4759 99.9317 29.7298 100.067 29.9668C100.152 29.9499 100.262 29.9414 100.397 29.9414C100.736 29.9414 100.998 30.0599 101.184 30.2969C101.387 30.5169 101.565 30.7454 101.718 30.9824Z" fill="#EF06BC"/>
<path d="M119.415 26.6914V26.793C119.296 26.8268 119.237 26.9115 119.237 27.0469C119.051 27.1315 118.856 27.1992 118.653 27.25C118.45 27.2839 118.255 27.3431 118.069 27.4277C117.883 27.4108 117.688 27.4023 117.485 27.4023C117.299 27.3854 117.113 27.377 116.927 27.377C116.419 27.377 115.911 27.3939 115.403 27.4277C114.895 27.4616 114.387 27.4616 113.88 27.4277C113.643 27.5632 113.38 27.6732 113.093 27.7578C112.822 27.8255 112.559 27.8594 112.305 27.8594C112.102 27.8594 111.925 27.834 111.772 27.7832C111.366 27.9863 110.917 28.1556 110.427 28.291C109.953 28.4264 109.47 28.5618 108.979 28.6973C108.488 28.8158 108.014 28.9596 107.557 29.1289C107.117 29.2812 106.728 29.5013 106.389 29.7891C106.356 30.026 106.33 30.263 106.313 30.5C106.296 30.7201 106.288 30.9401 106.288 31.1602C106.288 31.3971 106.296 31.6172 106.313 31.8203C106.347 32.0234 106.406 32.2266 106.491 32.4297C106.576 32.4635 106.669 32.4889 106.77 32.5059C106.889 32.5228 106.99 32.5312 107.075 32.5312C107.16 32.5312 107.244 32.5228 107.329 32.5059C107.413 32.472 107.473 32.4128 107.507 32.3281C107.76 32.2943 108.014 32.2858 108.268 32.3027C108.522 32.3027 108.776 32.3027 109.03 32.3027C109.284 32.3027 109.529 32.2943 109.766 32.2773C110.02 32.2604 110.266 32.2181 110.503 32.1504C110.774 32.0827 111.036 32.0404 111.29 32.0234C111.561 32.0065 111.823 31.9896 112.077 31.9727C112.331 31.9557 112.593 31.9303 112.864 31.8965C113.135 31.8457 113.414 31.7526 113.702 31.6172C113.922 31.7018 114.142 31.7441 114.362 31.7441C114.599 31.7441 114.828 31.7611 115.048 31.7949C115.166 31.8796 115.259 31.9727 115.327 32.0742C115.412 32.1758 115.454 32.2943 115.454 32.4297C115.454 32.6667 115.369 32.9036 115.2 33.1406C115.031 33.3776 114.895 33.5977 114.794 33.8008H114.514C114.108 33.8008 113.71 33.86 113.321 33.9785C112.949 34.0801 112.568 34.207 112.178 34.3594C111.806 34.4948 111.425 34.6217 111.036 34.7402C110.663 34.8418 110.274 34.8926 109.868 34.8926C109.8 34.8926 109.758 34.9349 109.741 35.0195C109.741 35.0872 109.724 35.138 109.69 35.1719C109.606 35.1549 109.479 35.1465 109.309 35.1465C108.92 35.1465 108.548 35.1888 108.192 35.2734C107.837 35.3581 107.473 35.4004 107.1 35.4004C106.999 35.4004 106.897 35.4004 106.796 35.4004C106.694 35.3835 106.593 35.3665 106.491 35.3496C106.406 35.485 106.296 35.5781 106.161 35.6289C106.025 35.6628 105.899 35.7305 105.78 35.832C105.729 35.9844 105.695 36.1706 105.678 36.3906C105.678 36.6107 105.67 36.8392 105.653 37.0762C105.653 37.2962 105.636 37.5078 105.602 37.7109C105.568 37.9141 105.501 38.0749 105.399 38.1934C105.416 38.278 105.484 38.3118 105.602 38.2949C105.721 38.2611 105.78 38.3118 105.78 38.4473C105.78 38.5996 105.763 38.7604 105.729 38.9297C105.695 39.099 105.678 39.2682 105.678 39.4375C105.678 39.7591 105.712 40.1146 105.78 40.5039C105.865 40.8763 105.983 41.2233 106.135 41.5449C106.305 41.8665 106.525 42.1374 106.796 42.3574C107.066 42.5605 107.405 42.6621 107.811 42.6621C108.082 42.6621 108.336 42.6113 108.573 42.5098C108.81 42.4082 109.005 42.2389 109.157 42.002L109.284 41.9766C109.352 41.9766 109.411 41.985 109.462 42.002C109.529 42.0189 109.597 42.0273 109.665 42.0273C109.766 42.0273 109.893 41.9681 110.046 41.8496C110.215 41.7142 110.393 41.5618 110.579 41.3926C110.782 41.2233 110.985 41.0625 111.188 40.9102C111.391 40.7409 111.586 40.6224 111.772 40.5547C111.891 40.3177 112.001 40.0807 112.102 39.8438C112.221 39.6068 112.39 39.4206 112.61 39.2852V38.5488C112.779 38.3626 112.957 38.1934 113.143 38.041C113.346 37.8887 113.499 37.694 113.6 37.457C113.685 37.4909 113.761 37.5163 113.829 37.5332C113.913 37.5501 113.998 37.5586 114.083 37.5586C114.167 37.5586 114.252 37.5501 114.337 37.5332C114.438 37.5163 114.531 37.4909 114.616 37.457C114.751 37.6432 114.853 37.8548 114.921 38.0918C115.005 38.3118 115.107 38.5234 115.225 38.7266C115.073 39.0312 114.895 39.3952 114.692 39.8184C114.489 40.2415 114.269 40.6647 114.032 41.0879C113.795 41.5111 113.541 41.9173 113.27 42.3066C113.016 42.679 112.762 42.9668 112.509 43.1699C112.458 43.2207 112.348 43.2799 112.178 43.3477C111.992 43.4831 111.823 43.61 111.671 43.7285C111.518 43.8639 111.374 44.0163 111.239 44.1855C110.748 44.3379 110.274 44.541 109.817 44.7949C109.377 45.0488 108.937 45.2943 108.497 45.5312C108.294 45.4805 108.074 45.4551 107.837 45.4551C107.634 45.4551 107.43 45.4635 107.227 45.4805C107.024 45.5143 106.804 45.5312 106.567 45.5312C106.499 45.4466 106.398 45.3874 106.262 45.3535C106.144 45.3366 106.102 45.252 106.135 45.0996C105.56 45.0658 105.094 44.9049 104.739 44.6172C104.384 44.3464 104.079 44.0078 103.825 43.6016C103.588 43.1953 103.393 42.7552 103.241 42.2812C103.089 41.8073 102.928 41.3503 102.759 40.9102V40.834C102.759 40.7493 102.792 40.6986 102.86 40.6816C102.928 40.6647 102.962 40.6139 102.962 40.5293C102.962 40.4954 102.953 40.4701 102.936 40.4531C102.885 40.2669 102.843 40.1061 102.809 39.9707C102.775 39.8353 102.759 39.6745 102.759 39.4883C102.759 39.2174 102.775 38.9551 102.809 38.7012C102.843 38.4303 102.86 38.1595 102.86 37.8887C102.86 37.6178 102.826 37.3809 102.759 37.1777C102.826 37.0931 102.885 36.9831 102.936 36.8477C102.97 36.6953 102.996 36.543 103.012 36.3906C103.029 36.2383 103.038 36.0859 103.038 35.9336C103.055 35.7812 103.08 35.6458 103.114 35.5273C103.046 35.3411 102.987 35.1803 102.936 35.0449C102.885 34.8926 102.86 34.7148 102.86 34.5117V34.334C103.029 34.0462 103.173 33.75 103.292 33.4453C103.41 33.1406 103.537 32.8275 103.673 32.5059V32.4297C103.673 31.9388 103.656 31.4479 103.622 30.957C103.588 30.4661 103.571 29.9753 103.571 29.4844V29.002C103.571 28.8327 103.58 28.6719 103.596 28.5195C103.732 28.4518 103.833 28.3587 103.901 28.2402C103.969 28.1217 104.07 28.0286 104.206 27.9609H105.044L105.196 27.707C105.247 27.6224 105.281 27.5293 105.298 27.4277C105.484 27.377 105.662 27.3092 105.831 27.2246C106.017 27.123 106.186 27.0215 106.339 26.9199C106.576 26.7845 106.787 26.666 106.973 26.5645C107.177 26.446 107.371 26.3529 107.557 26.2852C107.76 26.2005 107.972 26.1328 108.192 26.082C108.412 26.0312 108.666 25.9889 108.954 25.9551C109.089 25.9551 109.174 25.9297 109.208 25.8789C109.259 25.8281 109.326 25.7689 109.411 25.7012C109.614 25.735 109.817 25.7689 110.02 25.8027C110.223 25.8197 110.427 25.8281 110.63 25.8281C111.036 25.8281 111.417 25.752 111.772 25.5996C112.28 25.5996 112.779 25.5911 113.27 25.5742C113.778 25.5573 114.286 25.5488 114.794 25.5488C115.234 25.5488 115.674 25.5658 116.114 25.5996C116.554 25.6335 116.986 25.6927 117.409 25.7773C117.561 25.7266 117.731 25.7012 117.917 25.7012C118.12 25.7012 118.323 25.7266 118.526 25.7773C118.746 25.8112 118.958 25.8112 119.161 25.7773C119.178 25.9635 119.22 26.1243 119.288 26.2598C119.372 26.3783 119.415 26.5221 119.415 26.6914Z" fill="#EF06BC"/>
<path d="M150.671 38.4219C150.637 38.6758 150.544 38.8704 150.391 39.0059C150.256 39.1413 150.095 39.2682 149.909 39.3867C149.824 39.3698 149.74 39.3613 149.655 39.3613C149.587 39.3444 149.511 39.3359 149.427 39.3359C148.902 39.319 148.402 39.3867 147.928 39.5391C147.471 39.6914 146.997 39.8014 146.507 39.8691C146.337 39.903 146.177 39.9199 146.024 39.9199C145.889 39.903 145.745 39.9115 145.593 39.9453C145.051 40.0299 144.475 40.0977 143.866 40.1484C143.257 40.1992 142.647 40.2669 142.038 40.3516C141.428 40.4193 140.828 40.5124 140.235 40.6309C139.66 40.7324 139.118 40.8848 138.61 41.0879C138.559 41.054 138.509 41.0202 138.458 40.9863C138.407 40.9355 138.348 40.9102 138.28 40.9102C138.111 40.9102 137.95 40.9355 137.798 40.9863C137.645 41.0371 137.493 41.054 137.341 41.0371C137.171 41.1387 136.985 41.2148 136.782 41.2656C136.596 41.2995 136.401 41.3333 136.198 41.3672C136.012 41.3841 135.826 41.418 135.639 41.4688C135.453 41.5195 135.275 41.6126 135.106 41.748C134.971 41.6803 134.802 41.6465 134.598 41.6465C134.412 41.6296 134.285 41.5618 134.218 41.4434C133.828 41.6296 133.413 41.748 132.973 41.7988C132.55 41.8496 132.119 41.8665 131.678 41.8496C131.391 41.8327 131.061 41.7904 130.688 41.7227C130.316 41.6549 129.943 41.5618 129.571 41.4434C129.199 41.3079 128.852 41.1556 128.53 40.9863C128.208 40.8001 127.963 40.5801 127.794 40.3262C127.675 40.1569 127.591 39.9707 127.54 39.7676C127.489 39.5645 127.371 39.4121 127.184 39.3105C127.235 38.9212 127.294 38.5404 127.362 38.168C127.43 37.7956 127.497 37.4147 127.565 37.0254C127.904 36.7376 128.225 36.4329 128.53 36.1113C128.835 35.7897 129.122 35.4512 129.393 35.0957C129.715 34.9434 130.011 34.7572 130.282 34.5371C130.57 34.3171 130.849 34.097 131.12 33.877C131.408 33.64 131.687 33.4115 131.958 33.1914C132.246 32.9714 132.55 32.7767 132.872 32.6074C132.923 32.4889 132.99 32.3958 133.075 32.3281C133.177 32.2435 133.278 32.1673 133.38 32.0996C133.481 32.015 133.574 31.9303 133.659 31.8457C133.744 31.7441 133.803 31.6257 133.837 31.4902C134.429 31.1348 134.945 30.6862 135.385 30.1445C135.826 29.6029 136.113 28.9935 136.249 28.3164C135.961 28.0794 135.631 27.9271 135.259 27.8594C134.903 27.7747 134.531 27.7155 134.141 27.6816C133.803 27.6647 133.447 27.6647 133.075 27.6816C132.719 27.6986 132.356 27.6901 131.983 27.6562C131.611 27.7747 131.221 27.8509 130.815 27.8848C130.426 27.9186 130.037 27.9525 129.647 27.9863C129.258 28.0033 128.869 28.054 128.479 28.1387C128.107 28.2064 127.743 28.3418 127.387 28.5449C127.32 28.5449 127.252 28.5365 127.184 28.5195C127.134 28.5026 127.074 28.4941 127.007 28.4941C126.465 28.4772 125.957 28.5872 125.483 28.8242C125.009 29.0443 124.544 29.2643 124.087 29.4844C124.053 29.5521 124.036 29.6029 124.036 29.6367C124.036 29.7383 124.053 29.8398 124.087 29.9414C124.137 30.026 124.163 30.1191 124.163 30.2207C124.146 30.2376 124.137 30.2546 124.137 30.2715C124.137 30.2884 124.129 30.3053 124.112 30.3223C124.095 30.4069 124.07 30.4831 124.036 30.5508C124.019 30.6185 123.994 30.6947 123.96 30.7793C123.774 31.321 123.672 31.8542 123.655 32.3789C123.638 32.819 123.638 33.2507 123.655 33.6738C123.672 34.097 123.672 34.5286 123.655 34.9688C123.621 35.5104 123.537 36.0182 123.401 36.4922C123.486 36.8984 123.562 37.3301 123.63 37.7871C123.697 38.2272 123.782 38.6673 123.884 39.1074C123.985 39.5475 124.104 39.9792 124.239 40.4023C124.391 40.8086 124.586 41.1979 124.823 41.5703C124.806 41.6042 124.815 41.6296 124.848 41.6465C124.882 41.6634 124.916 41.6719 124.95 41.6719H125.153C125.238 41.6719 125.272 41.7057 125.255 41.7734C125.288 41.8242 125.314 41.875 125.331 41.9258C125.348 41.9596 125.382 41.9935 125.432 42.0273C125.466 42.0781 125.466 42.1458 125.432 42.2305C125.415 42.569 125.331 42.8822 125.178 43.1699C125.026 43.4577 124.933 43.7708 124.899 44.1094C124.696 44.1602 124.51 44.1855 124.341 44.1855C124.053 44.1686 123.799 44.084 123.579 43.9316C123.359 43.7962 123.156 43.627 122.969 43.4238C122.783 43.2207 122.606 43.0176 122.436 42.8145C122.267 42.5944 122.081 42.4082 121.878 42.2559C121.759 41.7819 121.641 41.2572 121.522 40.6816C121.421 40.1061 121.243 39.6152 120.989 39.209C121.057 39.0566 121.091 38.8704 121.091 38.6504C121.107 38.3118 121.074 37.9818 120.989 37.6602C120.921 37.3216 120.904 36.9831 120.938 36.6445C120.938 36.4583 120.955 36.2721 120.989 36.0859C121.04 35.8997 121.074 35.7135 121.091 35.5273C121.107 35.2396 121.074 34.9603 120.989 34.6895C120.921 34.4186 120.896 34.1393 120.913 33.8516C120.93 33.7161 120.955 33.5892 120.989 33.4707C121.04 33.3353 121.107 33.2168 121.192 33.1152C121.107 32.9121 121.082 32.7174 121.116 32.5312C121.133 32.2435 121.167 31.9727 121.218 31.7188C121.268 31.4648 121.302 31.2109 121.319 30.957C121.319 30.8216 121.311 30.6947 121.294 30.5762C121.277 30.4408 121.251 30.3138 121.218 30.1953L120.989 30.1191C120.887 30.1191 120.786 30.1445 120.684 30.1953C120.6 30.2461 120.524 30.3053 120.456 30.373C120.388 30.4408 120.329 30.5 120.278 30.5508C120.227 30.5846 120.177 30.6016 120.126 30.6016C120.092 30.6016 120.05 30.6016 119.999 30.6016C119.965 30.5846 119.931 30.5762 119.897 30.5762C119.863 30.5762 119.796 30.61 119.694 30.6777C119.609 30.7454 119.499 30.8216 119.364 30.9062C119.246 30.974 119.127 31.0501 119.009 31.1348C118.89 31.2025 118.797 31.2448 118.729 31.2617C118.543 31.2279 118.391 31.1686 118.272 31.084C118.171 30.9824 118.069 30.8893 117.968 30.8047C117.883 30.7031 117.79 30.6185 117.688 30.5508C117.587 30.4661 117.46 30.4323 117.307 30.4492C117.257 30.3477 117.231 30.2376 117.231 30.1191C117.214 30.0007 117.214 29.8822 117.231 29.7637V29.3574C117.35 29.1374 117.51 28.9596 117.714 28.8242C117.9 28.6719 118.103 28.5449 118.323 28.4434L118.983 28.1387C119.203 28.0371 119.406 27.9102 119.593 27.7578H119.821C120.126 27.7747 120.388 27.7155 120.608 27.5801C120.845 27.4447 121.065 27.2923 121.268 27.123C121.471 26.9368 121.675 26.7507 121.878 26.5645C122.098 26.3783 122.335 26.2344 122.589 26.1328C122.775 26.2174 122.969 26.2936 123.173 26.3613C123.376 26.4121 123.587 26.446 123.807 26.4629C124.027 26.4629 124.256 26.429 124.493 26.3613C124.73 26.2936 124.916 26.1667 125.052 25.9805C125.136 26.0143 125.204 26.0397 125.255 26.0566C125.322 26.0566 125.399 26.0566 125.483 26.0566C125.737 26.0736 125.991 26.0397 126.245 25.9551C126.499 25.8535 126.744 25.735 126.981 25.5996C127.32 25.6165 127.65 25.5996 127.971 25.5488C128.31 25.4811 128.64 25.4134 128.962 25.3457C129.3 25.278 129.63 25.2188 129.952 25.168C130.29 25.1003 130.629 25.0749 130.968 25.0918C131.526 25.1087 132.076 25.0579 132.618 24.9395C133.16 24.821 133.71 24.7786 134.268 24.8125C134.658 24.8294 135.038 24.8633 135.411 24.9141C135.8 24.9479 136.19 24.9564 136.579 24.9395C136.799 25.041 136.994 25.1341 137.163 25.2188C137.349 25.2865 137.578 25.3034 137.848 25.2695C138.39 25.7266 138.881 26.2598 139.321 26.8691V27.3008C139.304 27.6901 139.236 28.071 139.118 28.4434C138.999 28.8158 138.856 29.1882 138.686 29.5605C138.534 29.916 138.365 30.2715 138.178 30.627C137.992 30.9655 137.815 31.304 137.645 31.6426C136.545 32.6413 135.445 33.6315 134.344 34.6133C133.244 35.5951 132.11 36.543 130.942 37.457C130.908 37.6263 130.858 37.7786 130.79 37.9141C130.739 38.0495 130.705 38.1934 130.688 38.3457C130.688 38.4303 130.697 38.498 130.714 38.5488C130.832 38.5827 130.934 38.6504 131.018 38.752C131.12 38.8366 131.154 38.9551 131.12 39.1074H131.348C131.433 39.1074 131.475 39.1413 131.475 39.209L131.882 39.2344C132.525 39.2682 133.168 39.2513 133.811 39.1836C134.455 39.1159 135.098 39.0397 135.741 38.9551C136.401 38.8704 137.053 38.7943 137.696 38.7266C138.339 38.6419 138.983 38.5911 139.626 38.5742C139.778 38.5234 139.939 38.4811 140.108 38.4473C140.277 38.4134 140.43 38.3457 140.565 38.2441H140.641C140.76 38.2441 140.844 38.278 140.895 38.3457C140.963 38.4134 141.056 38.4557 141.175 38.4727C141.259 38.4727 141.344 38.4557 141.428 38.4219C141.53 38.388 141.632 38.3626 141.733 38.3457C141.97 38.278 142.216 38.2357 142.469 38.2188C142.74 38.2018 143.003 38.1764 143.257 38.1426C144.238 38.0579 145.212 38.0072 146.177 37.9902C147.141 37.9564 148.106 37.8294 149.071 37.6094C149.156 37.7279 149.274 37.8125 149.427 37.8633C149.579 37.8971 149.74 37.9395 149.909 37.9902C150.078 38.0241 150.231 38.0664 150.366 38.1172C150.518 38.168 150.62 38.2695 150.671 38.4219Z" fill="#EF06BC"/>
<path d="M156.104 39.6406C156.104 39.9284 156.028 40.1823 155.876 40.4023C155.74 40.6055 155.69 40.8594 155.723 41.1641C155.486 41.2995 155.292 41.4772 155.139 41.6973C154.987 41.9173 154.843 42.1458 154.708 42.3828C153.591 43.1107 152.389 43.6947 151.102 44.1348C149.833 44.5918 148.521 44.8203 147.167 44.8203C147.082 44.8203 147.006 44.778 146.938 44.6934C146.871 44.6257 146.803 44.5495 146.735 44.4648C146.667 44.3802 146.591 44.2956 146.507 44.2109C146.439 44.1432 146.354 44.1094 146.253 44.1094C146.134 44.1094 146.041 44.1348 145.973 44.1855C145.973 44.1517 145.973 44.1178 145.973 44.084C145.99 44.0671 145.999 44.0417 145.999 44.0078C145.999 43.8047 145.973 43.5931 145.923 43.373C145.872 43.1699 145.846 42.9668 145.846 42.7637C145.846 42.5267 145.889 42.332 145.973 42.1797H146.278C146.447 42.1797 146.608 42.1712 146.76 42.1543C146.93 42.1204 147.108 42.1035 147.294 42.1035C147.48 42.1035 147.649 42.1543 147.802 42.2559C148.733 42.222 149.613 42.0527 150.442 41.748C151.288 41.4264 152.143 41.1133 153.007 40.8086C153.142 40.6224 153.218 40.4193 153.235 40.1992C153.269 39.9622 153.337 39.7422 153.438 39.5391C152.998 39.1667 152.55 38.8789 152.093 38.6758C151.652 38.4557 151.136 38.3796 150.544 38.4473C150.188 38.2272 149.807 38.1003 149.401 38.0664C149.012 38.0326 148.614 37.9818 148.208 37.9141C148.106 37.8971 147.996 37.8802 147.878 37.8633C147.776 37.8294 147.666 37.8125 147.548 37.8125C147.463 37.8125 147.378 37.8379 147.294 37.8887C147.226 37.9225 147.209 37.9818 147.243 38.0664C147.158 37.931 147.04 37.8548 146.887 37.8379C146.752 37.804 146.634 37.7363 146.532 37.6348C145.99 37.6009 145.516 37.5078 145.11 37.3555C144.704 37.1862 144.255 37 143.764 36.7969C143.629 36.7461 143.494 36.7122 143.358 36.6953C143.24 36.6615 143.121 36.6107 143.003 36.543C142.698 36.3906 142.453 36.1875 142.266 35.9336C142.08 35.6797 141.936 35.4004 141.835 35.0957C141.716 34.7741 141.632 34.444 141.581 34.1055C141.53 33.7669 141.479 33.4538 141.428 33.166C141.581 32.8952 141.725 32.6159 141.86 32.3281C141.979 32.0404 142.08 31.7357 142.165 31.4141C142.266 31.3633 142.368 31.321 142.469 31.2871C142.571 31.2533 142.681 31.2109 142.8 31.1602C142.783 31.1263 142.774 31.084 142.774 31.0332C142.774 30.9486 142.8 30.8639 142.85 30.7793C142.918 30.6947 142.935 30.61 142.901 30.5254C143.274 30.1868 143.629 29.8398 143.968 29.4844C144.323 29.112 144.628 28.7057 144.882 28.2656C145.135 28.181 145.339 28.054 145.491 27.8848C145.643 27.7155 145.796 27.5462 145.948 27.377C146.1 27.1908 146.27 27.0299 146.456 26.8945C146.642 26.7422 146.879 26.6491 147.167 26.6152C147.234 26.4967 147.328 26.4036 147.446 26.3359C147.565 26.2513 147.683 26.1751 147.802 26.1074C147.92 26.0397 148.03 25.9635 148.132 25.8789C148.233 25.7943 148.309 25.6758 148.36 25.5234C148.631 25.5234 148.876 25.4727 149.096 25.3711C149.333 25.2695 149.562 25.1595 149.782 25.041C150.002 24.9225 150.222 24.8125 150.442 24.7109C150.679 24.6094 150.933 24.5586 151.204 24.5586C151.272 24.5586 151.339 24.5671 151.407 24.584C151.475 24.584 151.551 24.5924 151.635 24.6094C151.754 24.7279 151.83 24.8717 151.864 25.041C151.915 25.1934 151.949 25.3626 151.966 25.5488C151.983 25.735 151.991 25.9212 151.991 26.1074C152.008 26.2936 152.042 26.4629 152.093 26.6152C151.94 26.903 151.771 27.1908 151.585 27.4785C151.415 27.7663 151.187 27.9863 150.899 28.1387H150.848C150.73 28.1556 150.62 28.1302 150.518 28.0625C150.417 27.9948 150.298 27.9609 150.163 27.9609C150.078 27.9609 150.01 27.9863 149.96 28.0371L149.833 28.1641C149.799 28.1979 149.748 28.2318 149.68 28.2656C149.63 28.2995 149.553 28.2995 149.452 28.2656C149.215 28.3503 149.122 28.4941 149.173 28.6973C148.851 28.7311 148.58 28.8327 148.36 29.002C148.14 29.1543 147.937 29.332 147.751 29.5352C147.565 29.7214 147.378 29.8991 147.192 30.0684C147.006 30.2207 146.786 30.3053 146.532 30.3223C146.244 30.8301 145.889 31.2786 145.466 31.668C145.059 32.0573 144.721 32.4974 144.45 32.9883C144.501 33.1237 144.535 33.2676 144.552 33.4199C144.568 33.5723 144.594 33.7331 144.628 33.9023C144.78 34.1055 144.958 34.2832 145.161 34.4355C145.381 34.5879 145.593 34.7402 145.796 34.8926H145.872C146.21 34.8926 146.524 34.9603 146.811 35.0957C147.099 35.2142 147.404 35.2734 147.725 35.2734C147.895 35.2734 148.038 35.2396 148.157 35.1719C148.597 35.2734 149.029 35.3581 149.452 35.4258C149.892 35.4935 150.332 35.5443 150.772 35.5781C150.992 35.612 151.212 35.6289 151.432 35.6289C151.669 35.6289 151.889 35.6543 152.093 35.7051C152.279 35.7559 152.465 35.8236 152.651 35.9082C152.837 35.9759 153.024 36.0521 153.21 36.1367C153.599 36.306 153.963 36.4922 154.302 36.6953C154.657 36.8984 154.97 37.1439 155.241 37.4316C155.512 37.7025 155.723 38.0241 155.876 38.3965C156.028 38.752 156.104 39.1667 156.104 39.6406Z" fill="#EF06BC"/>
<path d="M73.0993 150.557C84.1504 139.398 94.9436 124.227 97.1696 108.118C99.8489 88.7292 96.8968 73.0753 86.3942 56.4761C84.6173 53.6677 81.7684 52.126 79.854 49.7096C78.7264 48.2863 83.8469 52.3471 84.6788 53.6071C90.1941 61.9609 95.3719 70.9306 101.994 78.4537C109.325 86.7808 103.267 70.0553 102.048 66.9777C99.6726 60.9812 94.2975 54.6201 88.5386 51.7125C80.6885 47.7491 86.3581 60.8271 87.7881 64.8124C90.1091 71.281 90.4685 92.1543 90.4685 85.2743" stroke="#EF06BC" stroke-width="3" stroke-linecap="round"/>
</svg>
