<svg width="137" height="58" viewBox="0 0 137 58" fill="none" xmlns="http://www.w3.org/2000/svg">
<path d="M39.9026 4.96944C39.9026 5.17836 39.8952 5.38729 39.8803 5.59621C39.8654 5.80514 39.8431 6.01406 39.8134 6.22299C39.7093 6.37222 39.6053 6.50653 39.5012 6.62592C39.412 6.73038 39.3526 6.86469 39.3228 7.02884C39.1593 7.14823 38.9735 7.31238 38.7654 7.52131C38.5721 7.73023 38.4904 7.93916 38.5201 8.14808H38.2079C38.0295 8.4167 37.8214 8.64801 37.5836 8.84202C37.3457 9.03602 37.093 9.22256 36.8254 9.40164L36.045 9.91649C35.7923 10.0806 35.5544 10.2746 35.3315 10.4985C35.2125 10.5134 35.1159 10.5358 35.0416 10.5656C34.9673 10.5955 34.8706 10.603 34.7517 10.588C34.2909 10.8865 33.8078 11.1477 33.3023 11.3715C32.8118 11.5954 32.3138 11.8192 31.8083 12.043C31.3178 12.252 30.8272 12.4758 30.3367 12.7146C29.8461 12.9534 29.3778 13.2294 28.9319 13.5428C28.8873 13.5279 28.8278 13.5204 28.7535 13.5204C28.6197 13.5204 28.4859 13.5428 28.3521 13.5876C28.2183 13.6174 28.0846 13.6324 27.9508 13.6324C27.8913 13.6324 27.8095 13.6249 27.7055 13.61C27.6163 13.5951 27.5494 13.5727 27.5048 13.5428C27.4305 13.4981 27.3636 13.4309 27.3041 13.3414C27.2447 13.2518 27.2001 13.1548 27.1703 13.0504C27.1406 12.931 27.1183 12.8191 27.1034 12.7146C27.0886 12.6101 27.0811 12.5206 27.0811 12.446C27.0811 12.3564 27.0886 12.2594 27.1034 12.155C27.1183 12.0505 27.1406 11.9535 27.1703 11.864C27.6014 11.8341 28.0325 11.7222 28.4636 11.5282C28.9096 11.3342 29.3333 11.1477 29.7346 10.9686C29.8387 10.9238 29.9204 10.8716 29.9799 10.8119C30.0542 10.7373 30.1286 10.6776 30.2029 10.6328C30.2772 10.5731 30.359 10.5209 30.4482 10.4761C30.5374 10.4313 30.6488 10.409 30.7826 10.409H30.8495C31.7861 9.97618 32.7003 9.5061 33.5922 8.99871C34.499 8.49132 35.3984 7.97647 36.2903 7.45415C36.3349 7.31985 36.4018 7.18554 36.491 7.05123C36.595 6.91692 36.6917 6.79007 36.7808 6.67068C36.87 6.53638 36.9518 6.40207 37.0261 6.26776C37.1004 6.13345 37.1376 5.99914 37.1376 5.86483C37.1376 5.59621 37.0113 5.37236 36.7585 5.19328H36.6694C36.491 5.19328 36.3349 5.1709 36.2011 5.12613C36.0673 5.06644 35.9409 5.01421 35.822 4.96944C35.7031 4.90974 35.5693 4.86497 35.4207 4.83513C35.272 4.79036 35.101 4.77543 34.9078 4.79036C34.8335 4.73066 34.7145 4.67843 34.551 4.63366C34.3875 4.58889 34.2537 4.56651 34.1497 4.56651C33.6145 4.56651 33.0868 4.60382 32.5665 4.67843C32.0462 4.73813 31.5259 4.77543 31.0056 4.79036C30.8718 4.86497 30.7455 4.93213 30.6265 4.99182C30.5076 5.05151 30.3664 5.08136 30.2029 5.08136C30.1286 5.08136 30.0617 5.08136 30.0022 5.08136C29.9427 5.06644 29.8758 5.05151 29.8015 5.03659C29.5191 5.15598 29.1995 5.26044 28.8427 5.34998C28.4859 5.42459 28.1292 5.5216 27.7724 5.64098C27.4305 5.74544 27.1109 5.87975 26.8136 6.04391C26.5162 6.20806 26.2858 6.43191 26.1223 6.71545C26.1223 6.79007 26.1372 6.85722 26.1669 6.91692C26.1966 6.96169 26.2115 7.02138 26.2115 7.096V7.18554C26.1223 7.27508 26.0629 7.37954 26.0331 7.49892C26.0034 7.60339 25.9811 7.71531 25.9662 7.8347C25.9514 7.93916 25.9291 8.05108 25.8993 8.17047C25.8845 8.27493 25.8324 8.37939 25.7432 8.48386C25.8027 8.70771 25.8324 8.95394 25.8324 9.22256C25.8324 9.52102 25.8101 9.81949 25.7655 10.118C25.7358 10.4164 25.7209 10.7149 25.7209 11.0133C25.7209 11.2969 25.7507 11.5506 25.8101 11.7744C25.7209 11.864 25.6838 11.9983 25.6986 12.1774C25.7135 12.3564 25.6764 12.4907 25.5872 12.5803C25.5872 12.6997 25.6169 12.7817 25.6764 12.8265C25.7507 12.8713 25.7953 12.9459 25.8101 13.0504C25.7507 13.3041 25.7209 13.5801 25.7209 13.8786C25.7209 14.3114 25.7655 14.7516 25.8547 15.1993C25.9588 15.647 26.0777 16.0872 26.2115 16.52C26.4494 16.4454 26.7021 16.3857 26.9696 16.3409C27.2521 16.2812 27.5197 16.2514 27.7724 16.2514C27.817 16.2514 27.8616 16.2589 27.9062 16.2738C27.9508 16.2738 27.9954 16.2738 28.04 16.2738C28.0697 16.4379 28.1292 16.5872 28.2183 16.7215C28.3075 16.8558 28.3893 17.005 28.4636 17.1692C28.3893 17.2736 28.3224 17.3557 28.2629 17.4154C28.2183 17.49 28.196 17.587 28.196 17.7064C27.9879 17.7213 27.817 17.7736 27.6832 17.8631C27.5494 17.9676 27.4007 18.0795 27.2372 18.1989H27.148C26.8953 18.1989 26.6872 18.2437 26.5237 18.3332C26.3602 18.4377 26.1743 18.5496 25.9662 18.669C25.7878 18.5943 25.6095 18.557 25.4311 18.557C25.2378 18.557 25.0446 18.5943 24.8513 18.669C24.6135 18.5645 24.4202 18.4003 24.2716 18.1765C24.1229 17.9676 23.9966 17.7288 23.8925 17.4602C23.7884 17.2065 23.6918 16.9453 23.6026 16.6767C23.5283 16.4081 23.4391 16.1619 23.335 15.938V15.5799C23.335 15.2366 23.3053 14.9083 23.2458 14.5949C23.2013 14.2666 23.179 13.9308 23.179 13.5876C23.179 13.4533 23.1864 13.3115 23.2013 13.1623C23.231 13.0131 23.2756 12.8713 23.335 12.737C23.3053 12.6027 23.2904 12.4758 23.2904 12.3564V11.9311C23.2904 11.4834 23.3053 11.0357 23.335 10.588C23.3796 10.1403 23.4019 9.69264 23.4019 9.24494C23.4019 8.91663 23.3796 8.58086 23.335 8.23762C23.2607 8.26747 23.1938 8.29732 23.1344 8.32716C23.0749 8.35701 23.008 8.37193 22.9337 8.37193C22.8593 8.37193 22.785 8.36447 22.7107 8.34955C22.6512 8.33463 22.5918 8.3197 22.5323 8.30478C22.3837 8.17047 22.2796 8.00631 22.2201 7.81231C22.1607 7.61831 22.0789 7.43923 21.9749 7.27508C21.9749 6.99153 22.0194 6.76022 22.1086 6.58115C22.183 6.38714 22.2796 6.21553 22.3985 6.06629C22.5174 5.90214 22.6364 5.74544 22.7553 5.59621C22.8891 5.44698 23.0006 5.26044 23.0898 5.03659H23.179C23.4168 5.03659 23.6546 4.96197 23.8925 4.81274C24.1303 4.64859 24.3979 4.56651 24.6952 4.56651C24.7993 4.4322 24.9405 4.32028 25.1189 4.23074C25.2973 4.12627 25.4831 4.0442 25.6764 3.9845C25.8845 3.92481 26.0851 3.8875 26.2784 3.87258C26.4865 3.84273 26.6798 3.82781 26.8582 3.82781C26.9176 3.72335 27.0068 3.65619 27.1257 3.62635C27.2447 3.58158 27.3636 3.54427 27.4825 3.51442C27.6163 3.46965 27.7352 3.43234 27.8393 3.4025C27.9582 3.35773 28.0548 3.28311 28.1292 3.17865C28.2481 3.20849 28.3596 3.22342 28.4636 3.22342C28.6569 3.22342 28.8427 3.20103 29.0211 3.15626C29.1995 3.09657 29.3778 3.03688 29.5562 2.97718C29.7346 2.90257 29.913 2.83541 30.0914 2.77572C30.2846 2.71603 30.4853 2.68618 30.6934 2.68618C30.7678 2.68618 30.8421 2.69364 30.9164 2.70857C30.9907 2.70857 31.0651 2.70857 31.1394 2.70857C31.2583 2.70857 31.3252 2.6638 31.3401 2.57426C31.3698 2.48472 31.4218 2.41756 31.4962 2.37279C31.5408 2.38772 31.6225 2.39518 31.7415 2.39518C32.0388 2.39518 32.3286 2.37279 32.6111 2.32802C32.8935 2.26833 33.1834 2.23848 33.4807 2.23848C33.6145 2.23848 33.7483 2.24595 33.8821 2.26087C34.0159 2.27579 34.1497 2.3131 34.2834 2.37279C34.3132 2.32802 34.3429 2.29072 34.3726 2.26087C34.4024 2.23102 34.4247 2.19372 34.4395 2.14895C35.1679 2.19372 35.8518 2.34295 36.491 2.59664C37.145 2.85034 37.8214 3.07419 38.5201 3.26819C38.6093 3.4025 38.7134 3.52188 38.8323 3.62635L39.2113 3.93973C39.3451 4.0442 39.4715 4.14866 39.5904 4.25312C39.7093 4.35758 39.8134 4.48443 39.9026 4.63366V4.96944Z" fill="#FAA01A"/>
<path d="M69.1578 13.5204C69.1281 13.7443 69.0463 13.9159 68.9125 14.0353C68.7936 14.1547 68.6524 14.2666 68.4889 14.3711C68.4145 14.3561 68.3402 14.3487 68.2659 14.3487C68.2064 14.3338 68.1395 14.3263 68.0652 14.3263C67.6044 14.3114 67.1658 14.3711 66.7496 14.5054C66.3482 14.6397 65.932 14.7367 65.5009 14.7964C65.3522 14.8262 65.211 14.8412 65.0772 14.8412C64.9583 14.8262 64.8319 14.8337 64.6982 14.8635C64.2225 14.9382 63.717 14.9978 63.1819 15.0426C62.6467 15.0874 62.1116 15.1471 61.5764 15.2217C61.0413 15.2814 60.5135 15.3635 59.9932 15.4679C59.4878 15.5575 59.0121 15.6918 58.5662 15.8709C58.5216 15.841 58.477 15.8112 58.4324 15.7813C58.3878 15.7365 58.3357 15.7142 58.2763 15.7142C58.1276 15.7142 57.9864 15.7365 57.8526 15.7813C57.7188 15.8261 57.585 15.841 57.4513 15.8261C57.3026 15.9156 57.1391 15.9828 56.9607 16.0276C56.7972 16.0574 56.6262 16.0872 56.4478 16.1171C56.2843 16.132 56.1208 16.1619 55.9573 16.2066C55.7938 16.2514 55.6377 16.3335 55.489 16.4529C55.3701 16.3932 55.2214 16.3633 55.043 16.3633C54.8795 16.3484 54.768 16.2887 54.7086 16.1842C54.3667 16.3484 54.0025 16.4529 53.616 16.4976C53.2443 16.5424 52.8653 16.5573 52.4788 16.5424C52.226 16.5275 51.9362 16.4902 51.6091 16.4305C51.2821 16.3708 50.9551 16.2887 50.628 16.1842C50.301 16.0649 49.9962 15.9305 49.7138 15.7813C49.4313 15.6172 49.2158 15.4232 49.0671 15.1993C48.9631 15.0501 48.8888 14.8859 48.8442 14.7068C48.7996 14.5278 48.6955 14.3935 48.532 14.3039C48.5766 13.9607 48.6286 13.6249 48.6881 13.2966C48.7475 12.9683 48.807 12.6325 48.8665 12.2893C49.1638 12.0356 49.4462 11.767 49.7138 11.4834C49.9814 11.1999 50.2341 10.9014 50.4719 10.588C50.7544 10.4537 51.0145 10.2896 51.2524 10.0956C51.5051 9.90156 51.7504 9.70756 51.9882 9.51356C52.2409 9.30464 52.4862 9.10317 52.724 8.90917C52.9768 8.71517 53.2443 8.54355 53.5268 8.39432C53.5714 8.28986 53.6308 8.20778 53.7052 8.14808C53.7944 8.07347 53.8835 8.00631 53.9727 7.94662C54.0619 7.872 54.1437 7.79739 54.218 7.72277C54.2923 7.63323 54.3444 7.52877 54.3741 7.40938C54.8944 7.096 55.3478 6.70053 55.7343 6.22299C56.1208 5.74544 56.3735 5.20821 56.4924 4.61128C56.2397 4.40235 55.9498 4.26804 55.6228 4.20835C55.3106 4.13374 54.9836 4.0815 54.6417 4.05166C54.3444 4.03673 54.0322 4.03673 53.7052 4.05166C53.393 4.06658 53.0734 4.05912 52.7463 4.02927C52.4193 4.13374 52.0774 4.20089 51.7206 4.23074C51.3787 4.26058 51.0368 4.29043 50.6949 4.32028C50.353 4.3352 50.0111 4.37997 49.6692 4.45458C49.3421 4.51428 49.0225 4.63366 48.7104 4.81274C48.6509 4.81274 48.5914 4.80528 48.532 4.79036C48.4874 4.77543 48.4354 4.76797 48.3759 4.76797C47.9002 4.75305 47.4542 4.85005 47.038 5.05898C46.6218 5.25298 46.213 5.44698 45.8116 5.64098C45.7819 5.70067 45.767 5.74544 45.767 5.77529C45.767 5.86483 45.7819 5.95437 45.8116 6.04391C45.8562 6.11853 45.8785 6.2006 45.8785 6.29014C45.8636 6.30507 45.8562 6.31999 45.8562 6.33491C45.8562 6.34983 45.8488 6.36476 45.8339 6.37968C45.819 6.4543 45.7967 6.52145 45.767 6.58115C45.7521 6.64084 45.7298 6.70799 45.7001 6.78261C45.5366 7.26015 45.4474 7.73023 45.4325 8.19285C45.4177 8.58086 45.4177 8.9614 45.4325 9.33448C45.4474 9.70756 45.4474 10.0881 45.4325 10.4761C45.4028 10.9537 45.3285 11.4013 45.2096 11.8192C45.2839 12.1774 45.3508 12.5579 45.4102 12.9608C45.4697 13.3488 45.544 13.7368 45.6332 14.1248C45.7224 14.5128 45.8265 14.8934 45.9454 15.2665C46.0792 15.6246 46.2501 15.9679 46.4583 16.2962C46.4434 16.326 46.4508 16.3484 46.4805 16.3633C46.5103 16.3782 46.54 16.3857 46.5697 16.3857H46.7481C46.8225 16.3857 46.8522 16.4156 46.8373 16.4752C46.8671 16.52 46.8894 16.5648 46.9042 16.6096C46.9191 16.6394 46.9488 16.6693 46.9934 16.6991C47.0231 16.7439 47.0231 16.8036 46.9934 16.8782C46.9785 17.1766 46.9042 17.4527 46.7704 17.7064C46.6366 17.9601 46.5549 18.2362 46.5251 18.5347C46.3468 18.5794 46.1832 18.6018 46.0346 18.6018C45.7819 18.5869 45.5589 18.5123 45.3656 18.378C45.1724 18.2586 44.994 18.1093 44.8305 17.9303C44.667 17.7512 44.5109 17.5721 44.3622 17.393C44.2136 17.199 44.05 17.0349 43.8717 16.9006C43.7676 16.4827 43.6635 16.0201 43.5595 15.5127C43.4703 15.0053 43.3142 14.5725 43.0912 14.2144C43.1507 14.0801 43.1804 13.9159 43.1804 13.7219C43.1953 13.4234 43.1656 13.1324 43.0912 12.8489C43.0318 12.5504 43.0169 12.252 43.0466 11.9535C43.0466 11.7894 43.0615 11.6252 43.0912 11.461C43.1358 11.2969 43.1656 11.1327 43.1804 10.9686C43.1953 10.7149 43.1656 10.4686 43.0912 10.2299C43.0318 9.9911 43.0095 9.74487 43.0243 9.49118C43.0392 9.37179 43.0615 9.25987 43.0912 9.1554C43.1358 9.03602 43.1953 8.93155 43.2696 8.84202C43.1953 8.66294 43.173 8.49132 43.2027 8.32716C43.2176 8.07347 43.2473 7.8347 43.2919 7.61085C43.3365 7.387 43.3662 7.16315 43.3811 6.9393C43.3811 6.81992 43.3737 6.70799 43.3588 6.60353C43.3439 6.48414 43.3216 6.37222 43.2919 6.26776L43.0912 6.2006C43.002 6.2006 42.9128 6.22299 42.8237 6.26776C42.7493 6.31253 42.6824 6.36476 42.623 6.42445C42.5635 6.48414 42.5115 6.53638 42.4669 6.58115C42.4223 6.61099 42.3777 6.62592 42.3331 6.62592C42.3034 6.62592 42.2662 6.62592 42.2216 6.62592C42.1919 6.61099 42.1621 6.60353 42.1324 6.60353C42.1027 6.60353 42.0432 6.63338 41.954 6.69307C41.8797 6.75276 41.7831 6.81992 41.6641 6.89453C41.5601 6.95423 41.456 7.02138 41.352 7.096C41.2479 7.15569 41.1661 7.193 41.1067 7.20792C40.9432 7.17807 40.8094 7.12584 40.7053 7.05123C40.6161 6.96169 40.5269 6.87961 40.4377 6.80499C40.3634 6.71545 40.2817 6.64084 40.1925 6.58115C40.1033 6.50653 39.9918 6.47668 39.858 6.49161C39.8134 6.40207 39.7911 6.30507 39.7911 6.2006C39.7762 6.09614 39.7762 5.99168 39.7911 5.88722V5.52906C39.8952 5.33506 40.0364 5.17836 40.2148 5.05898C40.3783 4.92467 40.5567 4.81274 40.7499 4.7232L41.3297 4.45458C41.5229 4.36505 41.7013 4.25312 41.8648 4.11881H42.0655C42.3331 4.13374 42.5635 4.0815 42.7568 3.96212C42.9649 3.84273 43.1581 3.70842 43.3365 3.55919C43.5149 3.39504 43.6933 3.23088 43.8717 3.06672C44.0649 2.90257 44.273 2.77572 44.496 2.68618C44.6595 2.7608 44.8305 2.82795 45.0089 2.88765C45.1873 2.93242 45.3731 2.96226 45.5663 2.97718C45.7596 2.97718 45.9603 2.94734 46.1684 2.88765C46.3765 2.82795 46.54 2.71603 46.6589 2.55187C46.7333 2.58172 46.7927 2.6041 46.8373 2.61903C46.8968 2.61903 46.9637 2.61903 47.038 2.61903C47.261 2.63395 47.484 2.6041 47.707 2.52949C47.9299 2.43995 48.1455 2.33549 48.3536 2.2161C48.6509 2.23102 48.9408 2.2161 49.2232 2.17133C49.5205 2.11164 49.8104 2.05194 50.0929 1.99225C50.3902 1.93256 50.68 1.88033 50.9625 1.83556C51.2598 1.77586 51.5571 1.75348 51.8544 1.7684C52.345 1.78333 52.8281 1.73856 53.3038 1.63409C53.7795 1.52963 54.2626 1.49232 54.7532 1.52217C55.0951 1.53709 55.4296 1.56694 55.7566 1.61171C56.0985 1.64156 56.4404 1.64902 56.7823 1.63409C56.9756 1.72363 57.1465 1.80571 57.2952 1.88033C57.4587 1.94002 57.6594 1.95494 57.8972 1.9251C58.3729 2.32802 58.804 2.79811 59.1905 3.33534V3.71588C59.1756 4.05912 59.1162 4.39489 59.0121 4.7232C58.9081 5.05151 58.7817 5.37983 58.6331 5.70814C58.4993 6.02152 58.3506 6.33491 58.1871 6.6483C58.0236 6.94676 57.8675 7.24523 57.7188 7.54369C56.7526 8.42416 55.7863 9.29717 54.8201 10.1627C53.8538 11.0283 52.8578 11.864 51.8321 12.6698C51.8024 12.8191 51.7578 12.9534 51.6983 13.0728C51.6537 13.1921 51.624 13.319 51.6091 13.4533C51.6091 13.5279 51.6166 13.5876 51.6314 13.6324C51.7355 13.6622 51.8247 13.7219 51.899 13.8115C51.9882 13.8861 52.0179 13.9905 51.9882 14.1248H52.1889C52.2632 14.1248 52.3004 14.1547 52.3004 14.2144L52.6571 14.2368C53.222 14.2666 53.7869 14.2517 54.3518 14.192C54.9167 14.1323 55.4816 14.0651 56.0465 13.9905C56.6262 13.9159 57.1985 13.8488 57.7634 13.7891C58.3283 13.7144 58.8932 13.6697 59.4581 13.6548C59.5919 13.61 59.7331 13.5727 59.8818 13.5428C60.0304 13.513 60.1642 13.4533 60.2831 13.3638H60.35C60.4541 13.3638 60.5284 13.3936 60.573 13.4533C60.6325 13.513 60.7142 13.5503 60.8183 13.5652C60.8926 13.5652 60.9669 13.5503 61.0413 13.5204C61.1305 13.4906 61.2196 13.4682 61.3088 13.4533C61.517 13.3936 61.7325 13.3563 61.9555 13.3414C62.1933 13.3264 62.4237 13.3041 62.6467 13.2742C63.5089 13.1996 64.3637 13.1548 65.211 13.1399C66.0583 13.1101 66.9057 12.9981 67.753 12.8041C67.8273 12.9086 67.9314 12.9832 68.0652 13.028C68.199 13.0578 68.3402 13.0951 68.4889 13.1399C68.6375 13.1698 68.7713 13.2071 68.8902 13.2518C69.024 13.2966 69.1132 13.3861 69.1578 13.5204Z" fill="#FAA01A"/>
<path d="M76.9399 3.17865V3.26819C76.8358 3.29803 76.7838 3.37265 76.7838 3.49204C76.6203 3.56665 76.4493 3.62635 76.2709 3.67111C76.0925 3.70096 75.9216 3.75319 75.7581 3.82781C75.5945 3.81289 75.4236 3.80542 75.2452 3.80542C75.0817 3.7905 74.9182 3.78304 74.7546 3.78304C74.3087 3.78304 73.8627 3.79796 73.4167 3.82781C72.9708 3.85766 72.5248 3.85766 72.0789 3.82781C71.8707 3.94719 71.6403 4.0442 71.3876 4.11881C71.1498 4.1785 70.9193 4.20835 70.6964 4.20835C70.518 4.20835 70.3619 4.18597 70.2281 4.1412C69.8713 4.32028 69.4774 4.46951 69.0463 4.58889C68.6301 4.70828 68.2064 4.82767 67.7753 4.94705C67.3442 5.05151 66.928 5.17836 66.5266 5.32759C66.1401 5.4619 65.7982 5.6559 65.5009 5.9096C65.4712 6.11853 65.4489 6.32745 65.434 6.53638C65.4191 6.73038 65.4117 6.92438 65.4117 7.11838C65.4117 7.32731 65.4191 7.52131 65.434 7.70039C65.4637 7.87947 65.5158 8.05855 65.5901 8.23762C65.6644 8.26747 65.7462 8.28986 65.8354 8.30478C65.9394 8.3197 66.0286 8.32716 66.1029 8.32716C66.1773 8.32716 66.2516 8.3197 66.3259 8.30478C66.4003 8.27493 66.4523 8.2227 66.482 8.14808C66.705 8.11824 66.928 8.11078 67.151 8.1257C67.3739 8.1257 67.5969 8.1257 67.8199 8.1257C68.0429 8.1257 68.2584 8.11824 68.4666 8.10332C68.6895 8.08839 68.9051 8.05108 69.1132 7.99139C69.351 7.9317 69.5815 7.89439 69.8044 7.87947C70.0423 7.86454 70.2727 7.84962 70.4957 7.8347C70.7187 7.81977 70.9491 7.79739 71.1869 7.76754C71.4248 7.72277 71.6701 7.64069 71.9228 7.52131C72.116 7.59592 72.3093 7.63323 72.5025 7.63323C72.7106 7.63323 72.9113 7.64816 73.1046 7.678C73.2086 7.75262 73.2904 7.8347 73.3499 7.92424C73.4242 8.01378 73.4613 8.11824 73.4613 8.23762C73.4613 8.44655 73.387 8.65547 73.2384 8.8644C73.0897 9.07333 72.9708 9.26733 72.8816 9.44641H72.6363C72.2795 9.44641 71.9302 9.49864 71.5883 9.6031C71.2613 9.69264 70.9268 9.80456 70.5849 9.93887C70.2578 10.0583 69.9234 10.1702 69.5815 10.2746C69.2544 10.3642 68.9125 10.409 68.5557 10.409C68.4963 10.409 68.4591 10.4463 68.4443 10.5209C68.4443 10.5806 68.4294 10.6253 68.3997 10.6552C68.3253 10.6403 68.2138 10.6328 68.0652 10.6328C67.7233 10.6328 67.3962 10.6701 67.0841 10.7447C66.7719 10.8193 66.4523 10.8567 66.1252 10.8567C66.036 10.8567 65.9469 10.8567 65.8577 10.8567C65.7685 10.8417 65.6793 10.8268 65.5901 10.8119C65.5158 10.9313 65.4191 11.0133 65.3002 11.0581C65.1813 11.088 65.0698 11.1477 64.9657 11.2372C64.9211 11.3715 64.8914 11.5357 64.8765 11.7297C64.8765 11.9237 64.8691 12.1251 64.8542 12.3341C64.8542 12.5281 64.8394 12.7146 64.8097 12.8937C64.7799 13.0728 64.7205 13.2145 64.6313 13.319C64.6461 13.3936 64.7056 13.4234 64.8097 13.4085C64.9137 13.3787 64.9657 13.4234 64.9657 13.5428C64.9657 13.6771 64.9509 13.8189 64.9211 13.9681C64.8914 14.1174 64.8765 14.2666 64.8765 14.4158C64.8765 14.6994 64.9063 15.0128 64.9657 15.356C65.0401 15.6843 65.1441 15.9902 65.2779 16.2738C65.4266 16.5573 65.6198 16.7961 65.8577 16.9901C66.0955 17.1692 66.3928 17.2587 66.7496 17.2587C66.9874 17.2587 67.2104 17.2139 67.4185 17.1244C67.6267 17.0349 67.7976 16.8856 67.9314 16.6767L68.0429 16.6543C68.1023 16.6543 68.1544 16.6618 68.199 16.6767C68.2584 16.6916 68.3179 16.6991 68.3774 16.6991C68.4666 16.6991 68.578 16.6469 68.7118 16.5424C68.8605 16.423 69.0166 16.2887 69.1801 16.1395C69.3585 15.9902 69.5369 15.8485 69.7152 15.7142C69.8936 15.5649 70.0646 15.4605 70.2281 15.4008C70.3322 15.1918 70.4288 14.9829 70.518 14.774C70.622 14.5651 70.7707 14.4009 70.964 14.2815V13.6324C71.1126 13.4682 71.2687 13.319 71.4322 13.1847C71.6106 13.0504 71.7444 12.8787 71.8336 12.6698C71.9079 12.6997 71.9748 12.7221 72.0343 12.737C72.1086 12.7519 72.1829 12.7594 72.2572 12.7594C72.3316 12.7594 72.4059 12.7519 72.4802 12.737C72.5694 12.7221 72.6512 12.6997 72.7255 12.6698C72.8444 12.834 72.9336 13.0205 72.9931 13.2294C73.0674 13.4234 73.1566 13.61 73.2607 13.7891C73.1269 14.0577 72.9708 14.3785 72.7924 14.7516C72.614 15.1247 72.4208 15.4978 72.2126 15.8709C72.0045 16.2439 71.7815 16.6021 71.5437 16.9453C71.3207 17.2736 71.0977 17.5273 70.8748 17.7064C70.8302 17.7512 70.7335 17.8034 70.5849 17.8631C70.4214 17.9825 70.2727 18.0944 70.1389 18.1989C70.0051 18.3183 69.8788 18.4526 69.7598 18.6018C69.3288 18.7361 68.9125 18.9152 68.5111 19.139C68.1246 19.3629 67.7381 19.5793 67.3516 19.7882C67.1733 19.7434 66.98 19.7211 66.7719 19.7211C66.5935 19.7211 66.4151 19.7285 66.2367 19.7434C66.0583 19.7733 65.8651 19.7882 65.657 19.7882C65.5975 19.7136 65.5083 19.6614 65.3894 19.6315C65.2853 19.6166 65.2482 19.542 65.2779 19.4077C64.7725 19.3778 64.3637 19.236 64.0515 18.9824C63.7393 18.7436 63.4718 18.4451 63.2488 18.087C63.0407 17.7288 62.8697 17.3408 62.7359 16.9229C62.6021 16.5051 62.4609 16.1022 62.3123 15.7142V15.647C62.3123 15.5724 62.342 15.5276 62.4014 15.5127C62.4609 15.4978 62.4906 15.453 62.4906 15.3784C62.4906 15.3485 62.4832 15.3262 62.4683 15.3112C62.4237 15.1471 62.3866 15.0053 62.3569 14.8859C62.3271 14.7665 62.3123 14.6248 62.3123 14.4606C62.3123 14.2218 62.3271 13.9905 62.3569 13.7667C62.3866 13.5279 62.4014 13.2891 62.4014 13.0504C62.4014 12.8116 62.3717 12.6027 62.3123 12.4236C62.3717 12.349 62.4237 12.252 62.4683 12.1326C62.4981 11.9983 62.5204 11.864 62.5352 11.7297C62.5501 11.5954 62.5575 11.461 62.5575 11.3267C62.5724 11.1924 62.5947 11.073 62.6244 10.9686C62.565 10.8044 62.5129 10.6626 62.4683 10.5433C62.4237 10.409 62.4014 10.2523 62.4014 10.0732V9.91649C62.5501 9.66279 62.6765 9.40164 62.7805 9.13302C62.8846 8.8644 62.9961 8.58832 63.115 8.30478V8.23762C63.115 7.80485 63.1001 7.37208 63.0704 6.9393C63.0407 6.50653 63.0258 6.07376 63.0258 5.64098V5.21567C63.0258 5.06644 63.0332 4.92467 63.0481 4.79036C63.167 4.73066 63.2562 4.64859 63.3157 4.54412C63.3751 4.43966 63.4643 4.35758 63.5833 4.29789H64.3191L64.4529 4.07404C64.4975 3.99943 64.5272 3.91735 64.5421 3.82781C64.7056 3.78304 64.8617 3.72335 65.0103 3.64873C65.1739 3.55919 65.3225 3.46965 65.4563 3.38011C65.6644 3.26073 65.8502 3.15626 66.0138 3.06672C66.1921 2.96226 66.3631 2.88018 66.5266 2.82049C66.705 2.74587 66.8908 2.68618 67.0841 2.64141C67.2773 2.59664 67.5003 2.55933 67.753 2.52949C67.8719 2.52949 67.9463 2.5071 67.976 2.46233C68.0206 2.41756 68.08 2.36533 68.1544 2.30564C68.3328 2.33549 68.5111 2.36533 68.6895 2.39518C68.8679 2.4101 69.0463 2.41756 69.2247 2.41756C69.5815 2.41756 69.9159 2.35041 70.2281 2.2161C70.6741 2.2161 71.1126 2.20864 71.5437 2.19372C71.9897 2.17879 72.4356 2.17133 72.8816 2.17133C73.2681 2.17133 73.6546 2.18625 74.0411 2.2161C74.4276 2.24595 74.8067 2.29818 75.1783 2.37279C75.3121 2.32802 75.4607 2.30564 75.6243 2.30564C75.8027 2.30564 75.981 2.32802 76.1594 2.37279C76.3527 2.40264 76.5385 2.40264 76.7169 2.37279C76.7317 2.53695 76.7689 2.67872 76.8284 2.79811C76.9027 2.90257 76.9399 3.02942 76.9399 3.17865Z" fill="#FAA01A"/>
<path d="M95.0683 3.02195C95.0088 3.21596 94.9122 3.39504 94.7784 3.55919L94.3993 4.02927C94.2804 4.1785 94.1764 4.34266 94.0872 4.52174C94.0128 4.68589 93.9905 4.8799 94.0203 5.10375C93.9905 5.10375 93.9534 5.10375 93.9088 5.10375C93.8642 5.08882 93.827 5.08136 93.7973 5.08136C93.5594 5.08136 93.3736 5.14105 93.2398 5.26044C93.1209 5.3649 92.9574 5.45444 92.7493 5.52906C92.7195 5.43952 92.6824 5.35744 92.6378 5.28282C92.5932 5.19328 92.5263 5.13359 92.4371 5.10375C92.0803 5.17836 91.7235 5.23805 91.3668 5.28282C91.01 5.31267 90.6532 5.35744 90.2965 5.41713C90.1329 5.44698 89.9694 5.49175 89.8059 5.55144C89.6424 5.59621 89.4714 5.64098 89.2931 5.68575C89.2039 5.7156 89.1072 5.73052 89.0032 5.73052C88.8991 5.7156 88.7951 5.7156 88.691 5.73052C88.3342 5.74544 87.9477 5.77529 87.5315 5.82006C87.1153 5.84991 86.7436 5.96183 86.4166 6.15583C86.2679 6.12599 86.1118 6.1036 85.9483 6.08868C85.7848 6.07376 85.6213 6.06629 85.4578 6.06629C85.101 6.06629 84.7071 6.1036 84.276 6.17822C83.8597 6.23791 83.4881 6.36476 83.161 6.55876C83.0867 6.52891 83.005 6.50653 82.9158 6.49161C82.8414 6.47668 82.7523 6.46922 82.6482 6.46922C82.6185 6.46922 82.5962 6.47668 82.5813 6.49161C82.5664 6.49161 82.5441 6.49161 82.5144 6.49161C82.4995 6.62592 82.5144 6.76022 82.559 6.89453C82.6185 7.01392 82.7151 7.11092 82.8489 7.18554C82.7894 7.34969 82.7597 7.52877 82.7597 7.72277C82.7597 7.97647 82.7746 8.23016 82.8043 8.48386C82.8489 8.73755 82.8712 8.99125 82.8712 9.24494C82.8712 9.52848 82.834 9.75233 82.7597 9.91649C82.9083 10.3642 82.9827 10.8417 82.9827 11.3491C82.9827 11.5282 82.9678 11.7073 82.9381 11.8864C82.9232 12.0505 82.9158 12.2296 82.9158 12.4236C82.9158 12.5877 82.9752 12.7221 83.0942 12.8265C83.2131 12.9161 83.2725 13.0429 83.2725 13.2071C83.2725 13.2668 83.2577 13.3264 83.2279 13.3861C83.4361 13.3414 83.6367 13.2817 83.83 13.2071C84.0232 13.1175 84.2239 13.0728 84.432 13.0728C84.551 13.0728 84.6625 13.0951 84.7665 13.1399C84.8854 13.1847 84.9895 13.2444 85.0787 13.319C85.0638 13.3936 85.049 13.4757 85.0341 13.5652C85.0341 13.6548 85.0341 13.7443 85.0341 13.8338C85.0341 13.998 85.0341 14.1547 85.0341 14.3039C85.049 14.4382 85.0638 14.5875 85.0787 14.7516C84.9598 14.9605 84.8186 15.1471 84.655 15.3112C84.5064 15.4754 84.4023 15.6843 84.3429 15.938C84.1199 15.938 83.9192 15.9902 83.7408 16.0947C83.5773 16.1842 83.4212 16.2887 83.2725 16.4081C83.1239 16.5126 82.9752 16.617 82.8266 16.7215C82.6779 16.811 82.5144 16.8558 82.336 16.8558C82.113 16.8558 81.9569 16.8259 81.8678 16.7663C81.7786 16.6916 81.7117 16.617 81.6671 16.5424C81.6225 16.4678 81.5779 16.4006 81.5333 16.3409C81.5036 16.2812 81.4292 16.2589 81.3103 16.2738C81.2806 16.0798 81.2211 15.9007 81.1319 15.7365C81.0427 15.5575 80.9461 15.3859 80.842 15.2217C80.7528 15.0575 80.6562 14.8934 80.5522 14.7292C80.463 14.5502 80.3961 14.3711 80.3515 14.192C80.2623 13.804 80.2251 13.4011 80.24 12.9832C80.2549 12.5654 80.188 12.1624 80.0393 11.7744C80.069 11.5655 80.0913 11.3566 80.1062 11.1477C80.1211 10.9238 80.1285 10.7074 80.1285 10.4985C80.1285 10.0806 80.1136 9.67025 80.0839 9.26733C80.069 8.84948 80.0542 8.42416 80.0393 7.99139C79.9352 7.85708 79.8684 7.70785 79.8386 7.54369C79.8238 7.36461 79.8089 7.193 79.794 7.02884C79.7494 6.98407 79.6974 6.9393 79.6379 6.89453C79.5933 6.84976 79.5636 6.79007 79.5487 6.71545C79.4298 6.68561 79.3406 6.67068 79.2812 6.67068C79.0731 6.67068 78.8947 6.72292 78.746 6.82738C78.6122 6.91692 78.4859 6.96169 78.3669 6.96169C78.248 6.96169 78.1365 6.94676 78.0325 6.91692C77.9284 6.88707 77.8244 6.87215 77.7203 6.87215C77.6311 6.87215 77.5791 6.89453 77.5642 6.9393C77.5642 6.96915 77.5345 6.999 77.475 7.02884C77.4304 7.05869 77.3264 7.08854 77.1628 7.11838C76.9993 7.14823 76.8135 7.17807 76.6054 7.20792C76.4121 7.22284 76.2189 7.23777 76.0256 7.25269C75.8473 7.26761 75.7283 7.27508 75.6689 7.27508C75.431 7.27508 75.2526 7.23031 75.1337 7.14077C74.9999 7.0363 74.8438 6.92438 74.6654 6.80499C74.6952 6.71545 74.71 6.65576 74.71 6.62592C74.71 6.47668 74.6654 6.3573 74.5763 6.26776C74.4871 6.16329 74.4425 6.07376 74.4425 5.99914C74.4425 5.83498 74.5094 5.70814 74.6432 5.6186C74.7621 5.52906 74.829 5.38729 74.8438 5.19328C75.1857 5.04405 75.5351 4.93213 75.8918 4.85751C76.2486 4.7829 76.6128 4.7232 76.9845 4.67843C77.3561 4.63366 77.7203 4.58143 78.0771 4.52174C78.4487 4.46205 78.8129 4.36505 79.1697 4.23074C79.2737 4.24566 79.3704 4.26058 79.4596 4.27551C79.5636 4.27551 79.6677 4.27551 79.7717 4.27551C80.2177 4.27551 80.6562 4.23074 81.0873 4.1412C81.5333 4.03673 81.9867 3.9845 82.4475 3.9845C82.5664 3.9845 82.6854 3.99196 82.8043 4.00689C82.9232 4.02181 83.0421 4.0442 83.161 4.07404C83.7557 3.9845 84.3429 3.8875 84.9226 3.78304C85.5172 3.67858 86.1267 3.58904 86.7511 3.51442C87.0484 3.48457 87.3382 3.46219 87.6207 3.44727C87.918 3.41742 88.2153 3.38011 88.5126 3.33534C88.6167 3.32042 88.691 3.29803 88.7356 3.26819C88.7951 3.22342 88.8248 3.14134 88.8248 3.02195C88.9586 3.08165 89.1072 3.11149 89.2708 3.11149C89.5235 3.11149 89.7687 3.06672 90.0066 2.97718C90.2444 2.88765 90.4897 2.84288 90.7424 2.84288C90.8019 2.84288 90.8539 2.85034 90.8985 2.86526C90.9431 2.86526 90.9877 2.86526 91.0323 2.86526C91.1364 2.86526 91.1884 2.82049 91.1884 2.73095C91.2033 2.62649 91.2776 2.55933 91.4114 2.52949C91.5154 2.49964 91.6641 2.47726 91.8573 2.46233C92.0506 2.44741 92.2513 2.43249 92.4594 2.41756C92.6824 2.38772 92.8831 2.35787 93.0614 2.32802C93.2547 2.28325 93.3959 2.22356 93.4851 2.14895L93.6412 1.90271C93.9088 1.91764 94.102 2.03702 94.2209 2.26087C94.3547 2.46979 94.4291 2.7011 94.4439 2.9548C94.5034 3.01449 94.5852 3.04434 94.6892 3.04434C94.8081 3.02942 94.9122 3.02195 95.0014 3.02195H95.0683Z" fill="#FAA01A"/>
<path d="M111.145 3.02195C111.086 3.21596 110.989 3.39504 110.855 3.55919L110.476 4.02927C110.357 4.1785 110.253 4.34266 110.164 4.52174C110.09 4.68589 110.068 4.8799 110.097 5.10375C110.068 5.10375 110.03 5.10375 109.986 5.10375C109.941 5.08882 109.904 5.08136 109.874 5.08136C109.636 5.08136 109.451 5.14105 109.317 5.26044C109.198 5.3649 109.034 5.45444 108.826 5.52906C108.797 5.43952 108.759 5.35744 108.715 5.28282C108.67 5.19328 108.603 5.13359 108.514 5.10375C108.157 5.17836 107.801 5.23805 107.444 5.28282C107.087 5.31267 106.73 5.35744 106.373 5.41713C106.21 5.44698 106.046 5.49175 105.883 5.55144C105.719 5.59621 105.548 5.64098 105.37 5.68575C105.281 5.7156 105.184 5.73052 105.08 5.73052C104.976 5.7156 104.872 5.7156 104.768 5.73052C104.411 5.74544 104.025 5.77529 103.608 5.82006C103.192 5.84991 102.821 5.96183 102.494 6.15583C102.345 6.12599 102.189 6.1036 102.025 6.08868C101.862 6.07376 101.698 6.06629 101.535 6.06629C101.178 6.06629 100.784 6.1036 100.353 6.17822C99.9367 6.23791 99.5651 6.36476 99.238 6.55876C99.1637 6.52891 99.0819 6.50653 98.9928 6.49161C98.9184 6.47668 98.8292 6.46922 98.7252 6.46922C98.6954 6.46922 98.6731 6.47668 98.6583 6.49161C98.6434 6.49161 98.6211 6.49161 98.5914 6.49161C98.5765 6.62592 98.5914 6.76022 98.636 6.89453C98.6954 7.01392 98.7921 7.11092 98.9259 7.18554C98.8664 7.34969 98.8367 7.52877 98.8367 7.72277C98.8367 7.97647 98.8515 8.23016 98.8813 8.48386C98.9259 8.73755 98.9482 8.99125 98.9482 9.24494C98.9482 9.52848 98.911 9.75233 98.8367 9.91649C98.9853 10.3642 99.0597 10.8417 99.0597 11.3491C99.0597 11.5282 99.0448 11.7073 99.0151 11.8864C99.0002 12.0505 98.9928 12.2296 98.9928 12.4236C98.9928 12.5877 99.0522 12.7221 99.1711 12.8265C99.2901 12.9161 99.3495 13.0429 99.3495 13.2071C99.3495 13.2668 99.3347 13.3264 99.3049 13.3861C99.513 13.3414 99.7137 13.2817 99.907 13.2071C100.1 13.1175 100.301 13.0728 100.509 13.0728C100.628 13.0728 100.739 13.0951 100.844 13.1399C100.962 13.1847 101.066 13.2444 101.156 13.319C101.141 13.3936 101.126 13.4757 101.111 13.5652C101.111 13.6548 101.111 13.7443 101.111 13.8338C101.111 13.998 101.111 14.1547 101.111 14.3039C101.126 14.4382 101.141 14.5875 101.156 14.7516C101.037 14.9605 100.896 15.1471 100.732 15.3112C100.583 15.4754 100.479 15.6843 100.42 15.938C100.197 15.938 99.9962 15.9902 99.8178 16.0947C99.6543 16.1842 99.4982 16.2887 99.3495 16.4081C99.2009 16.5126 99.0522 16.617 98.9036 16.7215C98.7549 16.811 98.5914 16.8558 98.413 16.8558C98.19 16.8558 98.0339 16.8259 97.9447 16.7663C97.8556 16.6916 97.7887 16.617 97.7441 16.5424C97.6995 16.4678 97.6549 16.4006 97.6103 16.3409C97.5805 16.2812 97.5062 16.2589 97.3873 16.2738C97.3576 16.0798 97.2981 15.9007 97.2089 15.7365C97.1197 15.5575 97.0231 15.3859 96.919 15.2217C96.8298 15.0575 96.7332 14.8934 96.6292 14.7292C96.54 14.5502 96.4731 14.3711 96.4285 14.192C96.3393 13.804 96.3021 13.4011 96.317 12.9832C96.3318 12.5654 96.2649 12.1624 96.1163 11.7744C96.146 11.5655 96.1683 11.3566 96.1832 11.1477C96.1981 10.9238 96.2055 10.7074 96.2055 10.4985C96.2055 10.0806 96.1906 9.67025 96.1609 9.26733C96.146 8.84948 96.1312 8.42416 96.1163 7.99139C96.0122 7.85708 95.9453 7.70785 95.9156 7.54369C95.9007 7.36461 95.8859 7.193 95.871 7.02884C95.8264 6.98407 95.7744 6.9393 95.7149 6.89453C95.6703 6.84976 95.6406 6.79007 95.6257 6.71545C95.5068 6.68561 95.4176 6.67068 95.3582 6.67068C95.15 6.67068 94.9716 6.72292 94.823 6.82738C94.6892 6.91692 94.5629 6.96169 94.4439 6.96169C94.325 6.96169 94.2135 6.94676 94.1095 6.91692C94.0054 6.88707 93.9013 6.87215 93.7973 6.87215C93.7081 6.87215 93.6561 6.89453 93.6412 6.9393C93.6412 6.96915 93.6115 6.999 93.552 7.02884C93.5074 7.05869 93.4033 7.08854 93.2398 7.11838C93.0763 7.14823 92.8905 7.17807 92.6824 7.20792C92.4891 7.22284 92.2959 7.23777 92.1026 7.25269C91.9242 7.26761 91.8053 7.27508 91.7458 7.27508C91.508 7.27508 91.3296 7.23031 91.2107 7.14077C91.0769 7.0363 90.9208 6.92438 90.7424 6.80499C90.7722 6.71545 90.787 6.65576 90.787 6.62592C90.787 6.47668 90.7424 6.3573 90.6532 6.26776C90.564 6.16329 90.5194 6.07376 90.5194 5.99914C90.5194 5.83498 90.5863 5.70814 90.7201 5.6186C90.8391 5.52906 90.906 5.38729 90.9208 5.19328C91.2627 5.04405 91.6121 4.93213 91.9688 4.85751C92.3256 4.7829 92.6898 4.7232 93.0614 4.67843C93.4331 4.63366 93.7973 4.58143 94.1541 4.52174C94.5257 4.46205 94.8899 4.36505 95.2467 4.23074C95.3507 4.24566 95.4473 4.26058 95.5365 4.27551C95.6406 4.27551 95.7447 4.27551 95.8487 4.27551C96.2947 4.27551 96.7332 4.23074 97.1643 4.1412C97.6103 4.03673 98.0637 3.9845 98.5245 3.9845C98.6434 3.9845 98.7623 3.99196 98.8813 4.00689C99.0002 4.02181 99.1191 4.0442 99.238 4.07404C99.8327 3.9845 100.42 3.8875 101 3.78304C101.594 3.67858 102.204 3.58904 102.828 3.51442C103.125 3.48457 103.415 3.46219 103.698 3.44727C103.995 3.41742 104.292 3.38011 104.59 3.33534C104.694 3.32042 104.768 3.29803 104.813 3.26819C104.872 3.22342 104.902 3.14134 104.902 3.02195C105.036 3.08165 105.184 3.11149 105.348 3.11149C105.6 3.11149 105.846 3.06672 106.084 2.97718C106.321 2.88765 106.567 2.84288 106.819 2.84288C106.879 2.84288 106.931 2.85034 106.976 2.86526C107.02 2.86526 107.065 2.86526 107.109 2.86526C107.213 2.86526 107.265 2.82049 107.265 2.73095C107.28 2.62649 107.355 2.55933 107.488 2.52949C107.592 2.49964 107.741 2.47726 107.934 2.46233C108.128 2.44741 108.328 2.43249 108.536 2.41756C108.759 2.38772 108.96 2.35787 109.138 2.32802C109.332 2.28325 109.473 2.22356 109.562 2.14895L109.718 1.90271C109.986 1.91764 110.179 2.03702 110.298 2.26087C110.432 2.46979 110.506 2.7011 110.521 2.9548C110.58 3.01449 110.662 3.04434 110.766 3.04434C110.885 3.02942 110.989 3.02195 111.078 3.02195H111.145Z" fill="#FAA01A"/>
<path d="M119.819 2.01464C119.819 2.14895 119.76 2.26087 119.641 2.35041C119.537 2.43995 119.485 2.5071 119.485 2.55187C119.485 2.64141 119.5 2.70857 119.529 2.75334C119.559 2.78318 119.574 2.82049 119.574 2.86526V2.97718C119.425 3.12642 119.314 3.29057 119.24 3.46965C119.165 3.63381 119.106 3.81289 119.061 4.00689C119.017 4.18597 118.972 4.37251 118.927 4.56651C118.898 4.76051 118.853 4.94705 118.794 5.12613C118.719 5.30521 118.623 5.4619 118.504 5.59621C118.385 5.7156 118.288 5.85737 118.214 6.02152C118.095 6.29014 118.006 6.56622 117.946 6.84976C117.887 7.1333 117.76 7.39446 117.567 7.63323V7.74516C117.552 7.84962 117.582 7.93916 117.656 8.01378C117.374 8.38686 117.151 8.83455 116.987 9.35687C116.824 9.86426 116.69 10.4015 116.586 10.9686C116.482 11.5207 116.393 12.0804 116.318 12.6474C116.244 13.1996 116.155 13.6995 116.051 14.1472C116.125 14.4755 116.237 14.7889 116.385 15.0874C116.549 15.3709 116.705 15.6694 116.854 15.9828C117.151 16.0574 117.433 16.1619 117.701 16.2962C117.983 16.4305 118.184 16.6469 118.303 16.9453C118.273 17.2438 118.177 17.4751 118.013 17.6393C117.85 17.8034 117.649 17.975 117.411 18.1541C117.248 18.0944 117.114 18.0422 117.01 17.9974C116.906 17.9676 116.75 17.9676 116.541 17.9974C116.259 17.7736 115.991 17.5945 115.739 17.4602C115.501 17.3259 115.285 17.0946 115.092 16.7663C115.062 16.7215 115.018 16.6991 114.958 16.6991H114.758C114.683 16.52 114.594 16.3335 114.49 16.1395C114.386 15.9305 114.282 15.7216 114.178 15.5127C114.074 15.2889 113.985 15.0725 113.91 14.8635C113.836 14.6397 113.799 14.4382 113.799 14.2591C113.799 13.4981 113.866 12.7444 113.999 11.9983C114.148 11.2372 114.222 10.4686 114.222 9.69264V9.46879C113.925 9.54341 113.628 9.64787 113.33 9.78218C113.048 9.91649 112.758 10.021 112.461 10.0956C112.357 10.1254 112.297 10.1776 112.282 10.2523C112.268 10.3269 112.223 10.3866 112.149 10.4313C112 10.4463 111.859 10.4612 111.725 10.4761C111.591 10.4761 111.465 10.4761 111.346 10.4761C111.093 10.4761 110.826 10.4686 110.543 10.4537C110.276 10.4239 110.008 10.3716 109.74 10.297C109.473 10.2224 109.22 10.118 108.982 9.98364C108.759 9.84933 108.559 9.67772 108.38 9.46879C108.351 9.48371 108.313 9.49864 108.269 9.51356C108.224 9.52848 108.18 9.53594 108.135 9.53594C108.09 9.53594 108.046 9.52848 108.001 9.51356C107.957 9.49864 107.919 9.48371 107.89 9.46879C107.771 9.30464 107.674 9.12556 107.6 8.93155L107.377 8.34955C107.303 8.15555 107.221 7.96901 107.132 7.78993C107.042 7.61085 106.923 7.44669 106.775 7.29746C106.73 7.02884 106.708 6.76769 106.708 6.51399C106.708 6.24537 106.73 5.98422 106.775 5.73052C106.805 5.47683 106.857 5.22313 106.931 4.96944C106.871 4.79036 106.834 4.60382 106.819 4.40981C106.79 4.21581 106.775 4.02181 106.775 3.82781C106.775 3.60396 106.797 3.37265 106.842 3.13388C106.886 2.89511 106.961 2.67872 107.065 2.48472C107.169 2.27579 107.317 2.10418 107.511 1.96987C107.689 1.83556 107.912 1.7684 108.18 1.7684C108.477 1.7684 108.752 1.85048 109.005 2.01464C109.257 2.16387 109.503 2.32056 109.74 2.48472C109.77 2.6638 109.793 2.84288 109.807 3.02195C109.822 3.18611 109.83 3.36519 109.83 3.55919C109.83 3.91735 109.807 4.28297 109.763 4.65605C109.733 5.01421 109.718 5.37983 109.718 5.75291C109.718 6.14091 109.763 6.50653 109.852 6.84976C109.956 7.17807 110.134 7.49146 110.387 7.78993H110.476C110.595 7.775 110.699 7.79739 110.788 7.85708C110.878 7.91677 110.982 7.94662 111.101 7.94662C111.205 7.94662 111.286 7.90931 111.346 7.8347C111.405 7.74516 111.48 7.70039 111.569 7.70039C111.658 7.70039 111.725 7.71531 111.77 7.74516C111.814 7.775 111.851 7.78993 111.881 7.78993C112.045 7.78993 112.23 7.73023 112.439 7.61085C112.647 7.49146 112.78 7.35715 112.84 7.20792C112.899 7.25269 112.974 7.27508 113.063 7.27508C113.182 7.27508 113.293 7.23777 113.397 7.16315C113.501 7.08854 113.635 7.05123 113.799 7.05123C113.888 7.05123 113.918 6.999 113.888 6.89453C113.873 6.77515 113.903 6.70053 113.977 6.67068C114.156 6.59607 114.349 6.49161 114.557 6.3573C114.78 6.20806 114.958 6.11853 115.092 6.08868C115.166 5.89468 115.256 5.7156 115.36 5.55144C115.479 5.37236 115.597 5.20821 115.716 5.05898C115.761 4.71574 115.85 4.38743 115.984 4.07404C116.118 3.76065 116.259 3.44727 116.408 3.13388C116.556 2.82049 116.698 2.5071 116.831 2.19372C116.965 1.88033 117.054 1.55202 117.099 1.20878C117.262 1.04463 117.389 0.865547 117.478 0.671545C117.582 0.477543 117.671 0.283541 117.746 0.0895394C117.894 0.0447697 118.08 0.0223848 118.303 0.0223848C118.526 0.00746162 118.719 0 118.883 0H119.262C119.306 0.0895394 119.366 0.171617 119.44 0.246233L119.663 0.470082C119.529 0.679007 119.462 0.887932 119.462 1.09686C119.462 1.26101 119.5 1.42517 119.574 1.58932C119.648 1.73856 119.73 1.88033 119.819 2.01464Z" fill="#FAA01A"/>
<path d="M21.1164 29.8459C21.1164 29.9802 21.0866 30.107 21.0272 30.2264L20.8711 30.5622C20.8265 30.6667 20.7819 30.7786 20.7373 30.898C20.6927 31.0174 20.6778 31.1591 20.6927 31.3233C20.4846 31.5621 20.2765 31.7934 20.0684 32.0172C19.8602 32.2411 19.6744 32.4948 19.5109 32.7783C19.3474 32.7634 19.221 32.8007 19.1318 32.8902C19.0575 32.9798 18.998 33.0992 18.9535 33.2484C18.6413 33.3528 18.3663 33.517 18.1284 33.7409C17.8906 33.9498 17.6825 34.1811 17.5041 34.4348C16.7162 34.7631 15.9804 35.166 15.2965 35.6436C14.6127 36.1211 13.9884 36.6807 13.4235 37.3224C13.6911 37.3224 13.9512 37.3523 14.2039 37.412C14.4715 37.4717 14.7317 37.5388 14.9844 37.6134C15.252 37.6731 15.5121 37.7328 15.7648 37.7925C16.0175 37.8373 16.2777 37.8447 16.5452 37.8149C16.7385 37.994 16.954 38.1432 17.1919 38.2626C17.4446 38.382 17.6899 38.4939 17.9277 38.5984C18.1804 38.7028 18.4183 38.8222 18.6413 38.9565C18.8791 39.0908 19.0872 39.255 19.2656 39.449C19.2656 39.4788 19.2582 39.5087 19.2433 39.5385C19.2433 39.5535 19.2433 39.5758 19.2433 39.6057C19.2433 39.7251 19.2731 39.8445 19.3325 39.9638C19.392 40.0683 19.4217 40.1802 19.4217 40.2996C19.3474 40.419 19.2805 40.5458 19.221 40.6802C19.1616 40.8145 19.0872 40.9338 18.998 41.0383C18.9237 41.1428 18.8345 41.2323 18.7305 41.3069C18.6264 41.3815 18.4852 41.4263 18.3068 41.4412C18.2325 41.6949 18.1136 41.8964 17.95 42.0456C17.7865 42.1799 17.6007 42.3068 17.3926 42.4262C17.1993 42.5306 17.0061 42.6426 16.8128 42.7619C16.6196 42.8664 16.4561 43.0082 16.3223 43.1873C15.8763 43.2917 15.4378 43.441 15.0067 43.635C14.5904 43.814 14.2188 44.0752 13.8918 44.4184C13.6688 44.4483 13.4384 44.4856 13.2005 44.5303C12.9775 44.5602 12.7546 44.5751 12.5316 44.5751C12.2194 44.5751 11.9667 44.5154 11.7734 44.396C11.5802 44.2617 11.4687 44.023 11.439 43.6797C11.4836 43.5753 11.5505 43.4857 11.6396 43.4111L11.9295 43.1873C12.0336 43.1126 12.1228 43.038 12.1971 42.9634C12.2863 42.8739 12.3532 42.7694 12.3978 42.65C12.4275 42.65 12.4647 42.6575 12.5093 42.6724C12.5539 42.6724 12.5985 42.6724 12.6431 42.6724C12.8215 42.6724 12.9627 42.6351 13.0667 42.5605C13.1708 42.4859 13.2674 42.4113 13.3566 42.3366C13.4607 42.262 13.5722 42.1949 13.6911 42.1352C13.81 42.0755 13.9661 42.0531 14.1593 42.068C14.2634 41.874 14.4195 41.7322 14.6276 41.6427C14.8357 41.5382 15.0513 41.4487 15.2743 41.3741C15.4972 41.2845 15.7053 41.1875 15.8986 41.0831C16.1067 40.9637 16.2479 40.7921 16.3223 40.5682C16.2479 40.4488 16.1513 40.3593 16.0324 40.2996C15.9135 40.225 15.7797 40.1653 15.631 40.1205L15.2074 39.9862C15.0736 39.9415 14.9546 39.8892 14.8506 39.8295C14.6871 39.8743 14.531 39.8967 14.3823 39.8967C14.0701 39.8967 13.7654 39.8668 13.4681 39.8071C13.1708 39.7475 12.866 39.7176 12.5539 39.7176C12.2714 39.7176 12.0261 39.7549 11.818 39.8295C11.7437 39.8146 11.6619 39.7922 11.5728 39.7624C11.4984 39.7325 11.4241 39.7027 11.3498 39.6728C11.0079 39.8071 10.6511 39.8743 10.2795 39.8743H8.83008C8.71115 39.8743 8.59223 39.8892 8.47331 39.9191C8.30979 40.2175 8.22803 40.5384 8.22803 40.8816C8.22803 41.1353 8.26519 41.3815 8.33952 41.6203C8.41385 41.8442 8.48817 42.0829 8.5625 42.3366C8.85981 42.6053 9.13482 42.9261 9.38753 43.2992C9.64025 43.6573 9.7666 44.0528 9.7666 44.4856C9.7666 44.59 9.75917 44.6721 9.7443 44.7318C9.59565 44.6273 9.4024 44.5751 9.16455 44.5751C8.95643 44.5751 8.75575 44.605 8.5625 44.6647C8.38411 44.7243 8.19086 44.7691 7.98275 44.799C7.81923 44.7243 7.64827 44.6497 7.46989 44.5751C7.2915 44.4856 7.12055 44.3811 6.95703 44.2617C6.83811 44.008 6.71918 43.7693 6.60026 43.5454C6.48134 43.3066 6.33268 43.0828 6.1543 42.8739V42.7843C6.1543 42.262 6.1097 41.7472 6.02051 41.2398C5.94618 40.7324 5.90902 40.2175 5.90902 39.6952C5.90902 39.4565 5.91645 39.2177 5.93131 38.9789C5.96105 38.7252 6.03537 38.4939 6.1543 38.285C6.1097 37.9268 6.0874 37.5537 6.0874 37.1657C6.0874 36.3897 6.132 35.6137 6.22119 34.8377C6.31038 34.0617 6.35498 33.2708 6.35498 32.4649C6.35498 32.3008 6.34755 32.1366 6.33268 31.9725C6.33268 31.8083 6.32525 31.6441 6.31038 31.48H6.22119C6.02794 31.48 5.84212 31.5098 5.66374 31.5695C5.48535 31.6143 5.30697 31.6665 5.12858 31.7262C4.9502 31.7859 4.76438 31.8456 4.57113 31.9053C4.37788 31.9501 4.18462 31.9725 3.99137 31.9725C3.87245 32.0321 3.77582 32.0918 3.7015 32.1515C3.62717 32.2112 3.55284 32.2635 3.47852 32.3082C3.40419 32.353 3.32243 32.3903 3.23324 32.4201C3.12918 32.45 3.01025 32.4575 2.87646 32.4425C2.71294 32.547 2.58659 32.6291 2.4974 32.6888C2.39334 32.7335 2.25212 32.7858 2.07373 32.8455C1.98454 32.8753 1.91021 32.9201 1.85075 32.9798L1.67236 33.1365C1.6129 33.1812 1.54601 33.226 1.47168 33.2708C1.39735 33.3155 1.30073 33.3379 1.1818 33.3379C1.07775 33.3379 1.00342 33.3305 0.958822 33.3155C0.869629 33.2409 0.795302 33.1514 0.73584 33.0469C0.661513 32.9425 0.594618 32.8455 0.535156 32.7559C0.460829 32.6515 0.386502 32.5619 0.312174 32.4873C0.222982 32.3978 0.118924 32.3306 0 32.2858C0.0594618 32.2112 0.0891927 32.1515 0.0891927 32.1068C0.0743273 32.0471 0.0668945 31.9799 0.0668945 31.9053C0.0668945 31.8605 0.0743273 31.8307 0.0891927 31.8158C0.16352 31.5471 0.297309 31.3382 0.49056 31.189C0.683811 31.0248 0.89936 30.898 1.13721 30.8084C1.37505 30.704 1.62033 30.6144 1.87305 30.5398C2.11089 30.4652 2.33388 30.3757 2.54199 30.2712C3.12174 30.2861 3.64947 30.2339 4.12516 30.1145C4.60086 29.9802 5.09142 29.7937 5.59684 29.5549C5.68604 29.5997 5.77523 29.622 5.86442 29.622C5.93875 29.622 6.01307 29.6146 6.0874 29.5997L6.31038 29.5549C6.48877 29.4057 6.68202 29.3087 6.89014 29.2639C7.09825 29.2191 7.30637 29.1818 7.51449 29.152C7.7226 29.1221 7.92329 29.0923 8.11654 29.0624C8.30979 29.0177 8.48074 28.9356 8.62939 28.8162H8.71859C9.07536 28.8162 9.43213 28.7565 9.7889 28.6371C10.1605 28.5177 10.5173 28.473 10.8592 28.5028C11.1565 28.3386 11.4315 28.2342 11.6842 28.1894C11.937 28.1446 12.2268 28.1223 12.5539 28.1223C12.6282 28.1223 12.7174 28.0924 12.8215 28.0327C12.9255 27.9581 13.0519 27.9208 13.2005 27.9208C13.2303 27.9208 13.2526 27.9283 13.2674 27.9432C13.2971 27.9432 13.3269 27.9432 13.3566 27.9432C13.4904 27.9432 13.5796 27.8984 13.6242 27.8089C13.6836 27.7193 13.8249 27.6746 14.0479 27.6746C14.1519 27.6746 14.2485 27.682 14.3377 27.6969C14.4269 27.6969 14.5161 27.6969 14.6053 27.6969C14.7094 27.6969 14.7763 27.6596 14.806 27.585C14.8357 27.4955 14.9026 27.4582 15.0067 27.4731C15.0513 27.5328 15.1256 27.5626 15.2297 27.5626C15.3337 27.5477 15.4155 27.5403 15.4749 27.5403C15.579 27.5403 15.6385 27.5701 15.6533 27.6298C15.8912 27.4806 16.1513 27.3836 16.4338 27.3388C16.7311 27.294 17.0135 27.2716 17.2811 27.2716C17.3851 27.2716 17.4892 27.2791 17.5933 27.294C17.6973 27.294 17.8088 27.3015 17.9277 27.3164C18.0615 27.2269 18.2176 27.1821 18.396 27.1821C18.5001 27.1821 18.6636 27.2269 18.8866 27.3164C19.1244 27.4059 19.3697 27.5104 19.6224 27.6298C19.8751 27.7492 20.1055 27.876 20.3136 28.0103C20.5218 28.1446 20.6481 28.2566 20.6927 28.3461C20.7224 28.376 20.7373 28.4431 20.7373 28.5476C20.7522 28.652 20.7745 28.7416 20.8042 28.8162C20.8785 28.9953 20.9454 29.1669 21.0049 29.331C21.0792 29.4803 21.1164 29.6519 21.1164 29.8459ZM18.6413 30.0921C18.6413 30.0623 18.6338 30.0324 18.619 30.0026C18.619 29.9578 18.619 29.9205 18.619 29.8907C18.5447 29.8011 18.4406 29.734 18.3068 29.6892C18.1879 29.6444 18.0541 29.6071 17.9054 29.5773C17.7716 29.5474 17.6304 29.525 17.4818 29.5101C17.348 29.4803 17.2291 29.443 17.125 29.3982C16.8128 29.5027 16.4709 29.5549 16.0993 29.5549C15.7574 29.5549 15.4526 29.5027 15.1851 29.3982C15.0513 29.5325 14.8803 29.637 14.6722 29.7116C14.4641 29.7862 14.2411 29.8459 14.0033 29.8907C13.7803 29.9205 13.5499 29.9429 13.312 29.9578C13.089 29.9578 12.8883 29.9578 12.71 29.9578C12.6505 29.9578 12.5464 30.0026 12.3978 30.0921C12.2491 30.1817 12.1153 30.2264 11.9964 30.2264C11.9072 30.2264 11.8255 30.1891 11.7511 30.1145C11.6174 30.219 11.4315 30.3085 11.1937 30.3831C10.9558 30.4577 10.7106 30.5249 10.4578 30.5846C10.2051 30.6294 9.94499 30.6816 9.67741 30.7413C9.4247 30.801 9.20915 30.8607 9.03076 30.9204C8.85238 31.3084 8.75575 31.7337 8.74089 32.1963C8.72602 32.644 8.71859 33.0842 8.71859 33.517C8.71859 33.7707 8.70372 34.0169 8.67399 34.2557C8.64426 34.4945 8.62939 34.7407 8.62939 34.9944C8.62939 35.1138 8.63683 35.2406 8.65169 35.3749C8.66656 35.4943 8.71115 35.6137 8.78548 35.7331C8.66656 35.8226 8.5848 35.942 8.5402 36.0913C8.51047 36.2256 8.49561 36.3599 8.49561 36.4942C8.49561 36.6583 8.51047 36.8076 8.5402 36.9419C8.56993 37.0762 8.59966 37.203 8.62939 37.3224C9.10509 37.2777 9.53619 37.1881 9.92269 37.0538C10.3241 36.9195 10.6957 36.7553 11.0376 36.5613C11.3944 36.3673 11.7363 36.1435 12.0633 35.8898C12.3904 35.6361 12.7323 35.3675 13.089 35.0839C13.2377 35.0541 13.3566 35.0093 13.4458 34.9496C13.5499 34.8899 13.6762 34.8601 13.8249 34.8601C13.8843 34.6512 13.9958 34.5094 14.1593 34.4348C14.3229 34.3452 14.4492 34.2184 14.5384 34.0542C14.7168 34.0095 14.8655 33.9498 14.9844 33.8752C15.1182 33.7856 15.2445 33.7035 15.3634 33.6289C15.4824 33.5394 15.6087 33.4573 15.7425 33.3827C15.8912 33.3081 16.0547 33.2633 16.2331 33.2484C16.4858 32.9499 16.7459 32.6515 17.0135 32.353C17.296 32.0545 17.623 31.8158 17.9946 31.6367C18.0541 31.4874 18.121 31.3606 18.1953 31.2561C18.2696 31.1367 18.3365 31.0248 18.396 30.9204C18.4703 30.801 18.5298 30.6816 18.5744 30.5622C18.619 30.4279 18.6413 30.2712 18.6413 30.0921Z" fill="#FAA01A"/>
<path d="M49.9256 41.7322C49.8959 41.9561 49.8141 42.1277 49.6803 42.2471C49.5614 42.3665 49.4202 42.4784 49.2567 42.5829C49.1823 42.5679 49.108 42.5605 49.0337 42.5605C48.9742 42.5456 48.9073 42.5381 48.833 42.5381C48.3722 42.5232 47.9336 42.5829 47.5174 42.7172C47.116 42.8515 46.6998 42.9485 46.2687 43.0082C46.1201 43.038 45.9788 43.0529 45.8451 43.0529C45.7261 43.038 45.5998 43.0455 45.466 43.0753C44.9903 43.15 44.4849 43.2096 43.9497 43.2544C43.4146 43.2992 42.8794 43.3589 42.3442 43.4335C41.8091 43.4932 41.2814 43.5753 40.7611 43.6797C40.2556 43.7693 39.7799 43.9036 39.334 44.0827C39.2894 44.0528 39.2448 44.023 39.2002 43.9931C39.1556 43.9483 39.1036 43.926 39.0441 43.926C38.8955 43.926 38.7542 43.9483 38.6204 43.9931C38.4867 44.0379 38.3529 44.0528 38.2191 44.0379C38.0704 44.1274 37.9069 44.1946 37.7285 44.2393C37.565 44.2692 37.394 44.299 37.2157 44.3289C37.0521 44.3438 36.8886 44.3737 36.7251 44.4184C36.5616 44.4632 36.4055 44.5453 36.2568 44.6647C36.1379 44.605 35.9893 44.5751 35.8109 44.5751C35.6474 44.5602 35.5359 44.5005 35.4764 44.396C35.1345 44.5602 34.7703 44.6647 34.3838 44.7094C34.0122 44.7542 33.6331 44.7691 33.2466 44.7542C32.9939 44.7393 32.704 44.702 32.377 44.6423C32.0499 44.5826 31.7229 44.5005 31.3958 44.396C31.0688 44.2767 30.7641 44.1423 30.4816 43.9931C30.1992 43.829 29.9836 43.635 29.835 43.4111C29.7309 43.2619 29.6566 43.0977 29.612 42.9186C29.5674 42.7396 29.4633 42.6053 29.2998 42.5157C29.3444 42.1725 29.3964 41.8367 29.4559 41.5084C29.5154 41.1801 29.5748 40.8443 29.6343 40.5011C29.9316 40.2474 30.214 39.9788 30.4816 39.6952C30.7492 39.4117 31.0019 39.1132 31.2397 38.7998C31.5222 38.6655 31.7823 38.5014 32.0202 38.3074C32.2729 38.1134 32.5182 37.9194 32.756 37.7254C33.0087 37.5164 33.254 37.315 33.4919 37.121C33.7446 36.927 34.0122 36.7553 34.2946 36.6061C34.3392 36.5017 34.3987 36.4196 34.473 36.3599C34.5622 36.2853 34.6514 36.2181 34.7406 36.1584C34.8298 36.0838 34.9115 36.0092 34.9858 35.9346C35.0602 35.845 35.1122 35.7406 35.1419 35.6212C35.6622 35.3078 36.1156 34.9123 36.5021 34.4348C36.8886 33.9572 37.1413 33.42 37.2603 32.8231C37.0075 32.6142 36.7177 32.4798 36.3906 32.4201C36.0784 32.3455 35.7514 32.2933 35.4095 32.2635C35.1122 32.2485 34.8 32.2485 34.473 32.2635C34.1608 32.2784 33.8412 32.2709 33.5142 32.2411C33.1871 32.3455 32.8452 32.4127 32.4884 32.4425C32.1465 32.4724 31.8046 32.5022 31.4627 32.5321C31.1208 32.547 30.7789 32.5918 30.437 32.6664C30.11 32.7261 29.7904 32.8455 29.4782 33.0245C29.4187 33.0245 29.3593 33.0171 29.2998 33.0022C29.2552 32.9872 29.2032 32.9798 29.1437 32.9798C28.668 32.9648 28.2221 33.0618 27.8058 33.2708C27.3896 33.4648 26.9808 33.6588 26.5794 33.8528C26.5497 33.9125 26.5348 33.9572 26.5348 33.9871C26.5348 34.0766 26.5497 34.1662 26.5794 34.2557C26.624 34.3303 26.6463 34.4124 26.6463 34.5019C26.6315 34.5169 26.624 34.5318 26.624 34.5467C26.624 34.5616 26.6166 34.5766 26.6017 34.5915C26.5869 34.6661 26.5646 34.7332 26.5348 34.7929C26.52 34.8526 26.4977 34.9198 26.4679 34.9944C26.3044 35.4719 26.2152 35.942 26.2004 36.4047C26.1855 36.7927 26.1855 37.1732 26.2004 37.5463C26.2152 37.9194 26.2152 38.2999 26.2004 38.6879C26.1706 39.1654 26.0963 39.6131 25.9774 40.031C26.0517 40.3892 26.1186 40.7697 26.1781 41.1726C26.2375 41.5606 26.3118 41.9486 26.401 42.3366C26.4902 42.7246 26.5943 43.1052 26.7132 43.4783C26.847 43.8364 27.018 44.1797 27.2261 44.508C27.2112 44.5378 27.2186 44.5602 27.2484 44.5751C27.2781 44.59 27.3078 44.5975 27.3376 44.5975H27.516C27.5903 44.5975 27.62 44.6273 27.6051 44.687C27.6349 44.7318 27.6572 44.7766 27.672 44.8214C27.6869 44.8512 27.7166 44.881 27.7612 44.9109C27.791 44.9557 27.791 45.0154 27.7612 45.09C27.7464 45.3884 27.672 45.6645 27.5382 45.9182C27.4045 46.1719 27.3227 46.448 27.293 46.7464C27.1146 46.7912 26.9511 46.8136 26.8024 46.8136C26.5497 46.7987 26.3267 46.7241 26.1335 46.5898C25.9402 46.4704 25.7618 46.3211 25.5983 46.1421C25.4348 45.963 25.2787 45.7839 25.13 45.6048C24.9814 45.4108 24.8179 45.2467 24.6395 45.1124C24.5354 44.6945 24.4314 44.2319 24.3273 43.7245C24.2381 43.2171 24.082 42.7843 23.859 42.4262C23.9185 42.2919 23.9482 42.1277 23.9482 41.9337C23.9631 41.6352 23.9334 41.3442 23.859 41.0607C23.7996 40.7622 23.7847 40.4638 23.8145 40.1653C23.8145 40.0011 23.8293 39.837 23.859 39.6728C23.9036 39.5087 23.9334 39.3445 23.9482 39.1804C23.9631 38.9267 23.9334 38.6804 23.859 38.4417C23.7996 38.2029 23.7773 37.9567 23.7922 37.703C23.807 37.5836 23.8293 37.4717 23.859 37.3672C23.9036 37.2478 23.9631 37.1433 24.0374 37.0538C23.9631 36.8747 23.9408 36.7031 23.9705 36.539C23.9854 36.2853 24.0151 36.0465 24.0597 35.8226C24.1043 35.5988 24.1341 35.3749 24.1489 35.1511C24.1489 35.0317 24.1415 34.9198 24.1266 34.8153C24.1118 34.6959 24.0895 34.584 24.0597 34.4796L23.859 34.4124C23.7699 34.4124 23.6807 34.4348 23.5915 34.4796C23.5171 34.5243 23.4502 34.5766 23.3908 34.6362C23.3313 34.6959 23.2793 34.7482 23.2347 34.7929C23.1901 34.8228 23.1455 34.8377 23.1009 34.8377C23.0712 34.8377 23.034 34.8377 22.9894 34.8377C22.9597 34.8228 22.93 34.8153 22.9002 34.8153C22.8705 34.8153 22.811 34.8452 22.7218 34.9049C22.6475 34.9646 22.5509 35.0317 22.432 35.1063C22.3279 35.166 22.2239 35.2332 22.1198 35.3078C22.0157 35.3675 21.934 35.4048 21.8745 35.4197C21.711 35.3899 21.5772 35.3376 21.4731 35.263C21.384 35.1735 21.2948 35.0914 21.2056 35.0168C21.1312 34.9272 21.0495 34.8526 20.9603 34.7929C20.8711 34.7183 20.7596 34.6885 20.6258 34.7034C20.5812 34.6139 20.5589 34.5169 20.5589 34.4124C20.5441 34.3079 20.5441 34.2035 20.5589 34.099V33.7409C20.663 33.5469 20.8042 33.3902 20.9826 33.2708C21.1461 33.1365 21.3245 33.0245 21.5177 32.935L22.0975 32.6664C22.2907 32.5768 22.4691 32.4649 22.6327 32.3306H22.8333C23.1009 32.3455 23.3313 32.2933 23.5246 32.1739C23.7327 32.0545 23.9259 31.9202 24.1043 31.771C24.2827 31.6068 24.4611 31.4427 24.6395 31.2785C24.8327 31.1144 25.0409 30.9875 25.2638 30.898C25.4274 30.9726 25.5983 31.0397 25.7767 31.0994C25.9551 31.1442 26.1409 31.1741 26.3341 31.189C26.5274 31.189 26.7281 31.1591 26.9362 31.0994C27.1443 31.0397 27.3078 30.9278 27.4268 30.7637C27.5011 30.7935 27.5605 30.8159 27.6051 30.8308C27.6646 30.8308 27.7315 30.8308 27.8058 30.8308C28.0288 30.8457 28.2518 30.8159 28.4748 30.7413C28.6978 30.6517 28.9133 30.5473 29.1214 30.4279C29.4187 30.4428 29.7086 30.4279 29.991 30.3831C30.2884 30.3234 30.5782 30.2637 30.8607 30.204C31.158 30.1444 31.4479 30.0921 31.7303 30.0474C32.0276 29.9877 32.3249 29.9653 32.6222 29.9802C33.1128 29.9951 33.5959 29.9504 34.0716 29.8459C34.5473 29.7414 35.0304 29.7041 35.521 29.734C35.8629 29.7489 36.1974 29.7787 36.5244 29.8235C36.8663 29.8534 37.2082 29.8608 37.5501 29.8459C37.7434 29.9354 37.9143 30.0175 38.063 30.0921C38.2265 30.1518 38.4272 30.1667 38.665 30.1369C39.1407 30.5398 39.5718 31.0099 39.9583 31.5471V31.9277C39.9435 32.2709 39.884 32.6067 39.7799 32.935C39.6759 33.2633 39.5495 33.5916 39.4009 33.9199C39.2671 34.2333 39.1184 34.5467 38.9549 34.8601C38.7914 35.1586 38.6353 35.457 38.4867 35.7555C37.5204 36.636 36.5541 37.509 35.5879 38.3745C34.6216 39.2401 33.6257 40.0758 32.5999 40.8816C32.5702 41.0309 32.5256 41.1652 32.4661 41.2845C32.4216 41.4039 32.3918 41.5308 32.377 41.6651C32.377 41.7397 32.3844 41.7994 32.3993 41.8442C32.5033 41.874 32.5925 41.9337 32.6668 42.0232C32.756 42.0979 32.7858 42.2023 32.756 42.3366H32.9567C33.031 42.3366 33.0682 42.3665 33.0682 42.4262L33.425 42.4486C33.9899 42.4784 34.5547 42.4635 35.1196 42.4038C35.6845 42.3441 36.2494 42.2769 36.8143 42.2023C37.394 42.1277 37.9664 42.0606 38.5312 42.0009C39.0961 41.9262 39.661 41.8815 40.2259 41.8666C40.3597 41.8218 40.5009 41.7845 40.6496 41.7546C40.7982 41.7248 40.932 41.6651 41.0509 41.5756H41.1178C41.2219 41.5756 41.2962 41.6054 41.3408 41.6651C41.4003 41.7248 41.482 41.7621 41.5861 41.777C41.6604 41.777 41.7348 41.7621 41.8091 41.7322C41.8983 41.7024 41.9875 41.68 42.0767 41.6651C42.2848 41.6054 42.5003 41.5681 42.7233 41.5532C42.9612 41.5382 43.1916 41.5159 43.4146 41.486C44.2767 41.4114 45.1315 41.3666 45.9788 41.3517C46.8262 41.3219 47.6735 41.2099 48.5208 41.0159C48.5952 41.1204 48.6992 41.195 48.833 41.2398C48.9668 41.2696 49.108 41.3069 49.2567 41.3517C49.4053 41.3815 49.5391 41.4189 49.658 41.4636C49.7918 41.5084 49.881 41.5979 49.9256 41.7322Z" fill="#FAA01A"/>
<path d="M57.7077 32.6664C57.6185 32.8007 57.5665 32.9499 57.5516 33.1141C57.5367 33.2782 57.5293 33.4275 57.5293 33.5618C57.5293 33.7409 57.5293 33.9199 57.5293 34.099C57.5442 34.2632 57.5516 34.4273 57.5516 34.5915V34.9272C57.5219 35.0317 57.4773 35.1362 57.4178 35.2406C57.3583 35.3451 57.3137 35.4496 57.284 35.554C57.0759 36.1062 56.9718 36.6583 56.9718 37.2105V37.2553C56.8975 37.4344 56.8232 37.5985 56.7489 37.7477C56.6894 37.897 56.6299 38.0462 56.5705 38.1954C56.511 38.3297 56.4664 38.479 56.4367 38.6431C56.407 38.7924 56.3995 38.9714 56.4144 39.1804C56.2063 39.7027 55.9313 40.1802 55.5894 40.613C55.2474 41.0309 54.913 41.4636 54.5859 41.9113C54.2738 42.0307 53.9839 42.1874 53.7163 42.3814C53.4636 42.5754 53.2183 42.7918 52.9805 43.0306C52.5196 43.1798 52.0662 43.3514 51.6203 43.5454C51.1743 43.7394 50.7729 44.0006 50.4162 44.3289C50.1337 44.3587 49.8513 44.4035 49.5688 44.4632C49.2864 44.5229 49.0114 44.6124 48.7438 44.7318H48.4762C48.3424 44.7318 48.2458 44.702 48.1864 44.6423C47.9931 44.7467 47.7924 44.8214 47.5843 44.8661C47.3762 44.896 47.1681 44.9109 46.96 44.9109C46.6924 44.9109 46.4248 44.896 46.1572 44.8661C45.9045 44.8214 45.6444 44.7766 45.3768 44.7318C45.2281 44.5229 45.02 44.3662 44.7524 44.2617C44.4849 44.1423 44.247 44.0304 44.0389 43.926C43.6078 43.329 43.2956 42.7545 43.1024 42.2023C42.9091 41.6352 42.7084 41.001 42.5003 40.2996C42.5301 40.0907 42.5821 39.8892 42.6564 39.6952C42.7307 39.4863 42.7605 39.2624 42.7456 39.0237C43.0132 38.2477 43.3625 37.5463 43.7936 36.9195C44.2396 36.2778 44.745 35.666 45.3099 35.0839C45.3099 34.9944 45.3248 34.9198 45.3545 34.8601C45.3991 34.8004 45.4065 34.7109 45.3768 34.5915C45.3917 34.6064 45.4214 34.6139 45.466 34.6139C45.5849 34.6139 45.6592 34.584 45.689 34.5243C45.7187 34.4497 45.7261 34.3676 45.7113 34.2781C46.2464 33.9349 46.7295 33.5394 47.1606 33.0917C47.6066 32.644 48.112 32.2709 48.6769 31.9725C48.7215 31.8381 48.7958 31.7262 48.8999 31.6367C49.004 31.5471 49.0857 31.4427 49.1452 31.3233C49.6209 31.189 50.052 30.9875 50.4385 30.7189C50.825 30.4503 51.2338 30.2115 51.6649 30.0026C51.9027 29.8683 52.1257 29.7787 52.3338 29.734C52.5568 29.6743 52.7947 29.6146 53.0474 29.5549C53.1366 29.525 53.2183 29.5027 53.2926 29.4877C53.367 29.4728 53.4487 29.4653 53.5379 29.4653C53.8055 29.4653 54.0656 29.5176 54.3184 29.622C54.5711 29.7116 54.8312 29.7563 55.0988 29.7563C55.1731 29.7563 55.2326 29.7563 55.2772 29.7563C55.3366 29.7414 55.3961 29.7265 55.4556 29.7116C55.7083 30.025 56.0279 30.2637 56.4144 30.4279C56.5036 30.6517 56.6076 30.8457 56.7266 31.0099C56.8604 31.1741 56.9941 31.3382 57.1279 31.5024C57.2617 31.6516 57.3806 31.8232 57.4847 32.0172C57.6036 32.1963 57.678 32.4127 57.7077 32.6664ZM55.4779 33.8304C55.4779 33.7558 55.4704 33.6886 55.4556 33.6289C55.3069 33.5842 55.1657 33.5245 55.0319 33.4499C54.8981 33.3752 54.7495 33.3379 54.5859 33.3379C54.4819 33.3379 54.3778 33.3603 54.2738 33.4051C54.2589 33.3006 54.2143 33.226 54.14 33.1812C54.0805 33.1365 54.0062 33.0992 53.917 33.0693C53.8427 33.0245 53.7609 32.9947 53.6717 32.9798C53.5974 32.9499 53.5305 32.9052 53.471 32.8455C53.4264 32.7261 53.3744 32.6067 53.3149 32.4873C53.2703 32.353 53.1812 32.256 53.0474 32.1963C52.9136 32.3306 52.7575 32.4425 52.5791 32.5321C52.4007 32.6067 52.2149 32.6813 52.0216 32.7559C51.8433 32.8305 51.6649 32.9201 51.4865 33.0245C51.323 33.129 51.1817 33.2558 51.0628 33.4051H50.6615C50.5723 33.5692 50.4459 33.6961 50.2824 33.7856C50.1189 33.8602 49.9776 33.9722 49.8587 34.1214C49.6209 34.2408 49.3979 34.39 49.1898 34.5691C48.9965 34.7332 48.8033 34.9123 48.61 35.1063C48.4168 35.2854 48.2235 35.4719 48.0303 35.666C47.8519 35.86 47.6586 36.039 47.4505 36.2032C47.2573 36.621 47.0417 36.9867 46.8039 37.3C46.5809 37.5985 46.3653 37.9044 46.1572 38.2178C45.964 38.5312 45.793 38.8744 45.6444 39.2475C45.5106 39.6057 45.4437 40.0534 45.4437 40.5906V40.8145C45.4437 40.8891 45.4511 40.9637 45.466 41.0383C45.6592 41.2472 45.8153 41.4711 45.9342 41.7099C46.068 41.9486 46.2836 42.1202 46.5809 42.2247C46.8782 42.3441 47.1904 42.3963 47.5174 42.3814C47.8593 42.3665 48.1864 42.4038 48.4985 42.4933C49.2121 42.359 49.8959 42.1426 50.55 41.8442C51.2189 41.5308 51.8507 41.1577 52.4453 40.7249C52.5345 40.6503 52.6386 40.5757 52.7575 40.5011C52.8764 40.4115 52.973 40.322 53.0474 40.2325C53.1217 40.1578 53.1812 40.0758 53.2257 39.9862C53.2852 39.8967 53.3447 39.8146 53.4041 39.74C53.5231 39.546 53.6568 39.352 53.8055 39.158C53.9542 38.964 54.1102 38.7849 54.2738 38.6208C54.3481 38.2924 54.4447 37.979 54.5636 37.6806C54.6826 37.3672 54.8015 37.0613 54.9204 36.7628C55.0393 36.4643 55.136 36.1584 55.2103 35.845C55.2995 35.5316 55.3441 35.2033 55.3441 34.8601C55.3441 34.7855 55.3366 34.7034 55.3218 34.6139C55.3218 34.5243 55.3143 34.4422 55.2995 34.3676C55.4184 34.2035 55.4779 34.0244 55.4779 33.8304Z" fill="#FAA01A"/>
<path d="M78.445 31.2337C78.3855 31.4278 78.2889 31.6068 78.1551 31.771L77.776 32.2411C77.6571 32.3903 77.5531 32.5545 77.4639 32.7335C77.3895 32.8977 77.3672 33.0917 77.397 33.3155C77.3672 33.3155 77.3301 33.3155 77.2855 33.3155C77.2409 33.3006 77.2037 33.2932 77.174 33.2932C76.9361 33.2932 76.7503 33.3528 76.6165 33.4722C76.4976 33.5767 76.3341 33.6662 76.126 33.7409C76.0962 33.6513 76.0591 33.5692 76.0145 33.4946C75.9699 33.4051 75.903 33.3454 75.8138 33.3155C75.457 33.3902 75.1003 33.4499 74.7435 33.4946C74.3867 33.5245 74.0299 33.5692 73.6732 33.6289C73.5097 33.6588 73.3461 33.7035 73.1826 33.7632C73.0191 33.808 72.8481 33.8528 72.6698 33.8975C72.5806 33.9274 72.4839 33.9423 72.3799 33.9423C72.2758 33.9274 72.1718 33.9274 72.0677 33.9423C71.7109 33.9572 71.3244 33.9871 70.9082 34.0319C70.492 34.0617 70.1203 34.1736 69.7933 34.3676C69.6446 34.3378 69.4885 34.3154 69.325 34.3005C69.1615 34.2856 68.998 34.2781 68.8345 34.2781C68.4777 34.2781 68.0838 34.3154 67.6527 34.39C67.2364 34.4497 66.8648 34.5766 66.5378 34.7706C66.4634 34.7407 66.3817 34.7183 66.2925 34.7034C66.2182 34.6885 66.129 34.681 66.0249 34.681C65.9952 34.681 65.9729 34.6885 65.958 34.7034C65.9431 34.7034 65.9208 34.7034 65.8911 34.7034C65.8762 34.8377 65.8911 34.972 65.9357 35.1063C65.9952 35.2257 66.0918 35.3227 66.2256 35.3973C66.1661 35.5615 66.1364 35.7406 66.1364 35.9346C66.1364 36.1883 66.1513 36.442 66.181 36.6957C66.2256 36.9493 66.2479 37.203 66.2479 37.4567C66.2479 37.7403 66.2107 37.9641 66.1364 38.1283C66.285 38.576 66.3594 39.0535 66.3594 39.5609C66.3594 39.74 66.3445 39.9191 66.3148 40.0981C66.2999 40.2623 66.2925 40.4414 66.2925 40.6354C66.2925 40.7995 66.3519 40.9338 66.4709 41.0383C66.5898 41.1279 66.6493 41.2547 66.6493 41.4189C66.6493 41.4785 66.6344 41.5382 66.6047 41.5979C66.8128 41.5532 67.0135 41.4935 67.2067 41.4189C67.4 41.3293 67.6006 41.2845 67.8088 41.2845C67.9277 41.2845 68.0392 41.3069 68.1432 41.3517C68.2622 41.3965 68.3662 41.4562 68.4554 41.5308C68.4405 41.6054 68.4257 41.6875 68.4108 41.777C68.4108 41.8666 68.4108 41.9561 68.4108 42.0456C68.4108 42.2098 68.4108 42.3665 68.4108 42.5157C68.4257 42.65 68.4405 42.7993 68.4554 42.9634C68.3365 43.1723 68.1953 43.3589 68.0317 43.523C67.8831 43.6872 67.779 43.8961 67.7196 44.1498C67.4966 44.1498 67.2959 44.202 67.1175 44.3065C66.954 44.396 66.7979 44.5005 66.6493 44.6199C66.5006 44.7243 66.3519 44.8288 66.2033 44.9333C66.0546 45.0228 65.8911 45.0676 65.7127 45.0676C65.4897 45.0676 65.3337 45.0377 65.2445 44.978C65.1553 44.9034 65.0884 44.8288 65.0438 44.7542C64.9992 44.6796 64.9546 44.6124 64.91 44.5527C64.8803 44.493 64.8059 44.4707 64.687 44.4856C64.6573 44.2916 64.5978 44.1125 64.5086 43.9483C64.4194 43.7693 64.3228 43.5976 64.2188 43.4335C64.1296 43.2693 64.0329 43.1052 63.9289 42.941C63.8397 42.7619 63.7728 42.5829 63.7282 42.4038C63.639 42.0158 63.6018 41.6129 63.6167 41.195C63.6316 40.7772 63.5647 40.3742 63.416 39.9862C63.4457 39.7773 63.468 39.5684 63.4829 39.3595C63.4978 39.1356 63.5052 38.9192 63.5052 38.7103C63.5052 38.2924 63.4903 37.882 63.4606 37.4791C63.4457 37.0613 63.4309 36.636 63.416 36.2032C63.312 36.0689 63.2451 35.9196 63.2153 35.7555C63.2005 35.5764 63.1856 35.4048 63.1707 35.2406C63.1261 35.1959 63.0741 35.1511 63.0146 35.1063C62.9701 35.0616 62.9403 35.0019 62.9255 34.9272C62.8065 34.8974 62.7173 34.8825 62.6579 34.8825C62.4498 34.8825 62.2714 34.9347 62.1227 35.0392C61.9889 35.1287 61.8626 35.1735 61.7437 35.1735C61.6247 35.1735 61.5132 35.1586 61.4092 35.1287C61.3051 35.0989 61.2011 35.0839 61.097 35.0839C61.0078 35.0839 60.9558 35.1063 60.9409 35.1511C60.9409 35.1809 60.9112 35.2108 60.8517 35.2406C60.8071 35.2705 60.7031 35.3003 60.5396 35.3302C60.376 35.36 60.1902 35.3899 59.9821 35.4197C59.7888 35.4346 59.5956 35.4496 59.4023 35.4645C59.224 35.4794 59.105 35.4869 59.0456 35.4869C58.8077 35.4869 58.6293 35.4421 58.5104 35.3526C58.3766 35.2481 58.2205 35.1362 58.0422 35.0168C58.0719 34.9272 58.0868 34.8676 58.0868 34.8377C58.0868 34.6885 58.0422 34.5691 57.953 34.4796C57.8638 34.3751 57.8192 34.2856 57.8192 34.2109C57.8192 34.0468 57.8861 33.9199 58.0199 33.8304C58.1388 33.7409 58.2057 33.5991 58.2205 33.4051C58.5624 33.2558 58.9118 33.1439 59.2686 33.0693C59.6253 32.9947 59.9895 32.935 60.3612 32.8902C60.7328 32.8455 61.097 32.7932 61.4538 32.7335C61.8254 32.6738 62.1896 32.5768 62.5464 32.4425C62.6504 32.4575 62.7471 32.4724 62.8363 32.4873C62.9403 32.4873 63.0444 32.4873 63.1484 32.4873C63.5944 32.4873 64.0329 32.4425 64.464 32.353C64.91 32.2485 65.3634 32.1963 65.8242 32.1963C65.9431 32.1963 66.0621 32.2038 66.181 32.2187C66.2999 32.2336 66.4188 32.256 66.5378 32.2858C67.1324 32.1963 67.7196 32.0993 68.2993 31.9948C68.8939 31.8904 69.5034 31.8008 70.1278 31.7262C70.4251 31.6964 70.715 31.674 70.9974 31.6591C71.2947 31.6292 71.592 31.5919 71.8893 31.5471C71.9934 31.5322 72.0677 31.5098 72.1123 31.48C72.1718 31.4352 72.2015 31.3531 72.2015 31.2337C72.3353 31.2934 72.4839 31.3233 72.6475 31.3233C72.9002 31.3233 73.1455 31.2785 73.3833 31.189C73.6211 31.0994 73.8664 31.0547 74.1191 31.0547C74.1786 31.0547 74.2306 31.0621 74.2752 31.0771C74.3198 31.0771 74.3644 31.0771 74.409 31.0771C74.5131 31.0771 74.5651 31.0323 74.5651 30.9427C74.58 30.8383 74.6543 30.7711 74.7881 30.7413C74.8921 30.7114 75.0408 30.6891 75.234 30.6741C75.4273 30.6592 75.628 30.6443 75.8361 30.6294C76.0591 30.5995 76.2598 30.5697 76.4381 30.5398C76.6314 30.4951 76.7726 30.4354 76.8618 30.3607L77.0179 30.1145C77.2855 30.1294 77.4787 30.2488 77.5977 30.4727C77.7314 30.6816 77.8058 30.9129 77.8206 31.1666C77.8801 31.2263 77.9619 31.2561 78.0659 31.2561C78.1848 31.2412 78.2889 31.2337 78.3781 31.2337H78.445Z" fill="#FAA01A"/>
<path d="M89.2373 35.1735C89.1778 35.3227 89.1184 35.4645 89.0589 35.5988C88.9995 35.7331 88.9549 35.8823 88.9251 36.0465C88.8211 36.1211 88.7021 36.1808 88.5684 36.2256C88.4494 36.2554 88.3231 36.2927 88.1893 36.3375C88.0555 36.3673 87.9291 36.4121 87.8102 36.4718C87.7062 36.5166 87.6244 36.5912 87.5649 36.6957C87.5203 36.9195 87.498 37.1284 87.498 37.3224C87.498 37.5761 87.5426 37.7925 87.6318 37.9716C87.5872 38.1059 87.5575 38.2477 87.5426 38.3969C87.5278 38.5461 87.5203 38.6879 87.5203 38.8222C87.5203 39.3147 87.5798 39.8071 87.6987 40.2996C87.8176 40.7772 87.8845 41.2622 87.8994 41.7546C87.8994 41.8292 87.892 41.9113 87.8771 42.0009C87.8623 42.0904 87.8548 42.1725 87.8548 42.2471C87.8548 42.5605 87.9737 42.7694 88.2116 42.8739C88.167 42.9485 88.1447 43.0156 88.1447 43.0753C88.1447 43.1947 88.1596 43.2992 88.1893 43.3887C88.219 43.4783 88.2265 43.5753 88.2116 43.6797C88.2859 43.829 88.3602 43.9633 88.4346 44.0827C88.5089 44.1871 88.5609 44.3214 88.5907 44.4856C88.4866 44.6945 88.3602 44.8885 88.2116 45.0676C88.0629 45.2317 87.9589 45.4407 87.8994 45.6944C87.84 45.6794 87.7731 45.672 87.6987 45.672C87.5947 45.672 87.5129 45.6944 87.4535 45.7391C87.394 45.7839 87.342 45.8361 87.2974 45.8958C87.2676 45.9704 87.2305 46.0376 87.1859 46.0973C87.1413 46.1719 87.0818 46.2241 87.0075 46.254H86.9406C86.8663 46.2689 86.7994 46.2614 86.7399 46.2316C86.6953 46.2167 86.6507 46.2092 86.6061 46.2092C86.5764 46.2092 86.5169 46.2241 86.4277 46.254C86.3088 46.1048 86.2271 45.9257 86.1825 45.7167C86.1379 45.5227 86.1156 45.3287 86.1156 45.1347C86.1156 44.9258 86.1453 44.7393 86.2048 44.5751C86.0412 44.4408 85.9372 44.2393 85.8926 43.9707C85.8628 43.7021 85.8257 43.4783 85.7811 43.2992C85.6622 42.747 85.5209 42.2098 85.3574 41.6875C85.2088 41.1652 85.1196 40.6279 85.0898 40.0758C85.075 39.8668 85.0675 39.6654 85.0675 39.4714V38.3074C85.0675 38.1134 85.075 37.9268 85.0898 37.7477C85.0898 37.6134 85.0973 37.4866 85.1121 37.3672C85.1419 37.2329 85.1567 37.0986 85.1567 36.9643C85.1567 36.7852 85.0973 36.6136 84.9784 36.4494C83.9229 36.4942 82.9195 36.6882 81.9681 37.0314C81.0316 37.3597 80.0951 37.7552 79.1585 38.2178C79.0991 38.5611 79.0619 38.8968 79.047 39.2251C79.0322 39.5535 79.0247 39.8892 79.0247 40.2325V41.2174C79.0247 41.5905 79.0396 41.9039 79.0693 42.1576C79.1437 42.5903 79.3592 42.9261 79.716 43.1649C80.0876 43.3887 80.4593 43.5603 80.8309 43.6797C80.816 43.9036 80.7714 44.0976 80.6971 44.2617C80.6228 44.411 80.5261 44.5527 80.4072 44.687C80.3032 44.8064 80.1842 44.9258 80.0505 45.0452C79.9167 45.1646 79.7829 45.2989 79.6491 45.4481C79.5302 45.3735 79.4112 45.3213 79.2923 45.2914C79.1734 45.2616 79.047 45.2467 78.9132 45.2467C78.7795 45.2317 78.6457 45.2168 78.5119 45.2019C78.3781 45.187 78.2443 45.1571 78.1105 45.1124L77.62 44.4408C77.4564 44.217 77.278 43.9931 77.0848 43.7693V43.5678C77.0848 43.1649 77.0105 42.7769 76.8618 42.4038C76.7132 42.0307 76.6017 41.6502 76.5273 41.2622C76.5719 41.1279 76.6017 40.9935 76.6165 40.8592C76.6314 40.7249 76.6388 40.5832 76.6388 40.4339C76.6388 40.1355 76.624 39.8445 76.5942 39.5609C76.5794 39.2774 76.5868 38.9938 76.6165 38.7103H76.505C76.3713 38.7103 76.23 38.7476 76.0814 38.8222C75.9327 38.8819 75.7841 38.9565 75.6354 39.0461C75.5016 39.1207 75.3678 39.1953 75.234 39.2699C75.1151 39.3296 75.0111 39.3595 74.9219 39.3595C74.8773 39.3595 74.8327 39.352 74.7881 39.3371C74.7435 39.3221 74.6915 39.3147 74.632 39.3147C74.5577 39.3147 74.4685 39.3445 74.3644 39.4042C74.2604 39.4639 74.1489 39.5311 74.0299 39.6057C73.8962 39.6654 73.7624 39.7251 73.6286 39.7848C73.4948 39.8445 73.361 39.8743 73.2272 39.8743C73.0191 39.8743 72.811 39.7848 72.6029 39.6057C72.5731 39.4863 72.5657 39.3744 72.5806 39.2699C72.5806 39.1654 72.5806 39.0535 72.5806 38.9341C72.5806 38.8148 72.5583 38.6879 72.5137 38.5536C72.6177 38.3596 72.7589 38.2104 72.9373 38.1059C73.1009 37.9865 73.2792 37.882 73.4725 37.7925C73.6509 37.688 73.8367 37.591 74.0299 37.5015C74.2232 37.397 74.3867 37.2627 74.5205 37.0986H74.6543C74.8624 37.0986 75.0482 37.0538 75.2118 36.9643C75.3901 36.8747 75.5908 36.8374 75.8138 36.8523C75.8881 36.8225 75.9402 36.7106 75.9699 36.5166L76.0591 36.539C76.3861 36.539 76.676 36.427 76.9287 36.2032C77.0922 35.2779 77.226 34.3452 77.3301 33.4051C77.4341 32.4649 77.4862 31.5248 77.4862 30.5846C77.4862 30.4951 77.4564 30.4055 77.397 30.316C77.3672 30.1966 77.3524 30.0847 77.3524 29.9802V29.6444C77.3524 29.4803 77.3598 29.3087 77.3747 29.1296C77.3895 28.9505 77.4267 28.7714 77.4862 28.5923C77.6348 28.5028 77.7909 28.458 77.9544 28.458C78.1477 28.458 78.3335 28.4879 78.5119 28.5476C78.7051 28.5923 78.891 28.6296 79.0693 28.6595C79.2031 28.7938 79.2998 28.943 79.3592 29.1072C79.4335 29.2713 79.4781 29.443 79.493 29.622C79.5079 29.7862 79.5079 29.9578 79.493 30.1369C79.493 30.301 79.493 30.4652 79.493 30.6294C79.493 30.9577 79.5302 31.2785 79.6045 31.5919C79.6788 31.9053 79.716 32.2112 79.716 32.5097C79.716 32.5843 79.6862 32.644 79.6268 32.6888C79.5822 32.7186 79.5599 32.8156 79.5599 32.9798C79.5599 33.1439 79.5748 33.3155 79.6045 33.4946C79.6342 33.6737 79.6491 33.8528 79.6491 34.0319C79.6491 34.2408 79.6194 34.4572 79.5599 34.681C79.5004 34.9049 79.4484 35.1213 79.4038 35.3302C80.2957 35.2556 81.21 35.1436 82.1465 34.9944C83.083 34.8452 83.9749 34.6064 84.8223 34.2781C84.8371 34.2482 84.8446 34.2035 84.8446 34.1438C84.8446 34.0542 84.8371 33.9647 84.8223 33.8752C84.8074 33.7856 84.8 33.6886 84.8 33.5842C84.8 33.4051 84.8594 33.2633 84.9784 33.1588C84.904 32.741 84.852 32.3231 84.8223 31.9053C84.7925 31.4874 84.7777 31.0696 84.7777 30.6517V29.3758C84.7777 28.958 84.7702 28.5401 84.7554 28.1223C84.8743 28.0476 85.0006 28.0103 85.1344 28.0103C85.298 28.0103 85.4466 28.0551 85.5804 28.1446C85.7291 28.2193 85.9 28.2566 86.0933 28.2566C86.2271 28.2566 86.3385 28.2342 86.4277 28.1894C86.5913 28.3386 86.7027 28.5326 86.7622 28.7714C86.8217 29.0102 86.8737 29.2564 86.9183 29.5101C86.9629 29.7638 87.0075 30.0175 87.0521 30.2712C87.1115 30.51 87.223 30.704 87.3866 30.8532L87.4089 30.9204C87.4089 30.9801 87.3791 31.0248 87.3197 31.0547C87.2602 31.0845 87.2305 31.1442 87.2305 31.2337V31.3233C87.2899 31.5621 87.3345 31.8083 87.3643 32.062C87.394 32.3157 87.4163 32.5768 87.4312 32.8455C87.4609 33.0992 87.498 33.3528 87.5426 33.6065C87.5872 33.8453 87.669 34.0692 87.7879 34.2781C87.8623 34.2632 87.9589 34.2557 88.0778 34.2557C88.3751 34.2557 88.6055 34.3602 88.769 34.5691C88.9474 34.7631 89.1035 34.9646 89.2373 35.1735Z" fill="#FAA01A"/>
<path d="M104.779 31.3904V31.48C104.675 31.5098 104.623 31.5844 104.623 31.7038C104.46 31.7784 104.289 31.8381 104.11 31.8829C103.932 31.9128 103.761 31.965 103.597 32.0396C103.434 32.0247 103.263 32.0172 103.084 32.0172C102.921 32.0023 102.757 31.9948 102.594 31.9948C102.148 31.9948 101.702 32.0098 101.256 32.0396C100.81 32.0695 100.364 32.0695 99.9181 32.0396C99.71 32.159 99.4796 32.256 99.2269 32.3306C98.989 32.3903 98.7586 32.4201 98.5356 32.4201C98.3573 32.4201 98.2012 32.3978 98.0674 32.353C97.7106 32.5321 97.3167 32.6813 96.8856 32.8007C96.4693 32.9201 96.0457 33.0395 95.6146 33.1588C95.1835 33.2633 94.7673 33.3902 94.3659 33.5394C93.9794 33.6737 93.6375 33.8677 93.3402 34.1214C93.3104 34.3303 93.2881 34.5392 93.2733 34.7482C93.2584 34.9422 93.251 35.1362 93.251 35.3302C93.251 35.5391 93.2584 35.7331 93.2733 35.9122C93.303 36.0913 93.355 36.2703 93.4294 36.4494C93.5037 36.4793 93.5854 36.5017 93.6746 36.5166C93.7787 36.5315 93.8679 36.539 93.9422 36.539C94.0165 36.539 94.0909 36.5315 94.1652 36.5166C94.2395 36.4867 94.2916 36.4345 94.3213 36.3599C94.5443 36.33 94.7673 36.3226 94.9902 36.3375C95.2132 36.3375 95.4362 36.3375 95.6592 36.3375C95.8822 36.3375 96.0977 36.33 96.3058 36.3151C96.5288 36.3002 96.7444 36.2629 96.9525 36.2032C97.1903 36.1435 97.4207 36.1062 97.6437 36.0913C97.8816 36.0763 98.112 36.0614 98.335 36.0465C98.5579 36.0316 98.7884 36.0092 99.0262 35.9793C99.2641 35.9346 99.5093 35.8525 99.762 35.7331C99.9553 35.8077 100.149 35.845 100.342 35.845C100.55 35.845 100.751 35.86 100.944 35.8898C101.048 35.9644 101.13 36.0465 101.189 36.136C101.263 36.2256 101.301 36.33 101.301 36.4494C101.301 36.6583 101.226 36.8673 101.078 37.0762C100.929 37.2851 100.81 37.4791 100.721 37.6582H100.476C100.119 37.6582 99.7695 37.7104 99.4276 37.8149C99.1005 37.9044 98.7661 38.0164 98.4242 38.1507C98.0971 38.2701 97.7626 38.382 97.4207 38.4864C97.0937 38.576 96.7518 38.6208 96.395 38.6208C96.3356 38.6208 96.2984 38.6581 96.2835 38.7327C96.2835 38.7924 96.2687 38.8371 96.2389 38.867C96.1646 38.8521 96.0531 38.8446 95.9045 38.8446C95.5626 38.8446 95.2355 38.8819 94.9233 38.9565C94.6112 39.0311 94.2916 39.0684 93.9645 39.0684C93.8753 39.0684 93.7861 39.0684 93.6969 39.0684C93.6077 39.0535 93.5186 39.0386 93.4294 39.0237C93.355 39.1431 93.2584 39.2251 93.1395 39.2699C93.0206 39.2998 92.9091 39.3595 92.805 39.449C92.7604 39.5833 92.7307 39.7475 92.7158 39.9415C92.7158 40.1355 92.7084 40.3369 92.6935 40.5458C92.6935 40.7398 92.6787 40.9264 92.6489 41.1055C92.6192 41.2845 92.5597 41.4263 92.4705 41.5308C92.4854 41.6054 92.5449 41.6352 92.6489 41.6203C92.753 41.5905 92.805 41.6352 92.805 41.7546C92.805 41.8889 92.7901 42.0307 92.7604 42.1799C92.7307 42.3292 92.7158 42.4784 92.7158 42.6276C92.7158 42.9112 92.7456 43.2246 92.805 43.5678C92.8793 43.8961 92.9834 44.202 93.1172 44.4856C93.2658 44.7691 93.4591 45.0079 93.6969 45.2019C93.9348 45.381 94.2321 45.4705 94.5889 45.4705C94.8267 45.4705 95.0497 45.4257 95.2578 45.3362C95.4659 45.2467 95.6369 45.0974 95.7707 44.8885L95.8822 44.8661C95.9416 44.8661 95.9937 44.8736 96.0382 44.8885C96.0977 44.9034 96.1572 44.9109 96.2166 44.9109C96.3058 44.9109 96.4173 44.8587 96.5511 44.7542C96.6998 44.6348 96.8559 44.5005 97.0194 44.3513C97.1978 44.202 97.3761 44.0603 97.5545 43.926C97.7329 43.7767 97.9039 43.6723 98.0674 43.6126C98.1714 43.4036 98.2681 43.1947 98.3573 42.9858C98.4613 42.7769 98.61 42.6127 98.8032 42.4933V41.8442C98.9519 41.68 99.108 41.5308 99.2715 41.3965C99.4499 41.2622 99.5837 41.0905 99.6729 40.8816C99.7472 40.9115 99.8141 40.9338 99.8735 40.9488C99.9479 40.9637 100.022 40.9712 100.097 40.9712C100.171 40.9712 100.245 40.9637 100.319 40.9488C100.409 40.9338 100.49 40.9115 100.565 40.8816C100.684 41.0458 100.773 41.2323 100.832 41.4412C100.907 41.6352 100.996 41.8218 101.1 42.0009C100.966 42.2695 100.81 42.5903 100.632 42.9634C100.453 43.3365 100.26 43.7096 100.052 44.0827C99.8438 44.4557 99.6208 44.8139 99.383 45.1571C99.16 45.4854 98.937 45.7391 98.714 45.9182C98.6694 45.963 98.5728 46.0152 98.4242 46.0749C98.2606 46.1943 98.112 46.3062 97.9782 46.4107C97.8444 46.5301 97.718 46.6644 97.5991 46.8136C97.168 46.9479 96.7518 47.127 96.3504 47.3508C95.9639 47.5747 95.5774 47.7911 95.1909 48C95.0125 47.9552 94.8193 47.9328 94.6112 47.9328C94.4328 47.9328 94.2544 47.9403 94.076 47.9552C93.8976 47.9851 93.7044 48 93.4963 48C93.4368 47.9254 93.3476 47.8732 93.2287 47.8433C93.1246 47.8284 93.0875 47.7538 93.1172 47.6195C92.6118 47.5896 92.203 47.4478 91.8908 47.1941C91.5786 46.9554 91.311 46.6569 91.0881 46.2988C90.8799 45.9406 90.709 45.5526 90.5752 45.1347C90.4414 44.7169 90.3002 44.314 90.1515 43.926V43.8588C90.1515 43.7842 90.1813 43.7394 90.2407 43.7245C90.3002 43.7096 90.3299 43.6648 90.3299 43.5902C90.3299 43.5603 90.3225 43.538 90.3076 43.523C90.263 43.3589 90.2259 43.2171 90.1961 43.0977C90.1664 42.9783 90.1515 42.8366 90.1515 42.6724C90.1515 42.4336 90.1664 42.2023 90.1961 41.9785C90.2259 41.7397 90.2407 41.5009 90.2407 41.2622C90.2407 41.0234 90.211 40.8145 90.1515 40.6354C90.211 40.5608 90.263 40.4638 90.3076 40.3444C90.3373 40.2101 90.3596 40.0758 90.3745 39.9415C90.3894 39.8071 90.3968 39.6728 90.3968 39.5385C90.4117 39.4042 90.434 39.2848 90.4637 39.1804C90.4042 39.0162 90.3522 38.8744 90.3076 38.7551C90.263 38.6208 90.2407 38.4641 90.2407 38.285V38.1283C90.3894 37.8746 90.5157 37.6134 90.6198 37.3448C90.7238 37.0762 90.8353 36.8001 90.9543 36.5166V36.4494C90.9543 36.0166 90.9394 35.5839 90.9097 35.1511C90.8799 34.7183 90.8651 34.2856 90.8651 33.8528V33.4275C90.8651 33.2782 90.8725 33.1365 90.8874 33.0022C91.0063 32.9425 91.0955 32.8604 91.1549 32.7559C91.2144 32.6515 91.3036 32.5694 91.4225 32.5097H92.1584L92.2922 32.2858C92.3368 32.2112 92.3665 32.1291 92.3813 32.0396C92.5449 31.9948 92.701 31.9351 92.8496 31.8605C93.0131 31.771 93.1618 31.6814 93.2956 31.5919C93.5037 31.4725 93.6895 31.3681 93.853 31.2785C94.0314 31.1741 94.2024 31.092 94.3659 31.0323C94.5443 30.9577 94.7301 30.898 94.9233 30.8532C95.1166 30.8084 95.3396 30.7711 95.5923 30.7413C95.7112 30.7413 95.7855 30.7189 95.8153 30.6741C95.8599 30.6294 95.9193 30.5771 95.9937 30.5174C96.172 30.5473 96.3504 30.5771 96.5288 30.607C96.7072 30.6219 96.8856 30.6294 97.064 30.6294C97.4207 30.6294 97.7552 30.5622 98.0674 30.4279C98.5133 30.4279 98.9519 30.4204 99.383 30.4055C99.8289 30.3906 100.275 30.3831 100.721 30.3831C101.107 30.3831 101.494 30.398 101.88 30.4279C102.267 30.4577 102.646 30.51 103.018 30.5846C103.151 30.5398 103.3 30.5174 103.464 30.5174C103.642 30.5174 103.82 30.5398 103.999 30.5846C104.192 30.6144 104.378 30.6144 104.556 30.5846C104.571 30.7487 104.608 30.8905 104.668 31.0099C104.742 31.1144 104.779 31.2412 104.779 31.3904Z" fill="#FAA01A"/>
<path d="M132.228 41.7322C132.198 41.9561 132.117 42.1277 131.983 42.2471C131.864 42.3665 131.723 42.4784 131.559 42.5829C131.485 42.5679 131.411 42.5605 131.336 42.5605C131.277 42.5456 131.21 42.5381 131.136 42.5381C130.675 42.5232 130.236 42.5829 129.82 42.7172C129.419 42.8515 129.002 42.9485 128.571 43.0082C128.423 43.038 128.281 43.0529 128.148 43.0529C128.029 43.038 127.902 43.0455 127.769 43.0753C127.293 43.15 126.787 43.2096 126.252 43.2544C125.717 43.2992 125.182 43.3589 124.647 43.4335C124.112 43.4932 123.584 43.5753 123.064 43.6797C122.558 43.7693 122.083 43.9036 121.637 44.0827C121.592 44.0528 121.547 44.023 121.503 43.9931C121.458 43.9483 121.406 43.926 121.347 43.926C121.198 43.926 121.057 43.9483 120.923 43.9931C120.789 44.0379 120.655 44.0528 120.522 44.0379C120.373 44.1274 120.209 44.1946 120.031 44.2393C119.868 44.2692 119.697 44.299 119.518 44.3289C119.355 44.3438 119.191 44.3737 119.028 44.4184C118.864 44.4632 118.708 44.5453 118.559 44.6647C118.44 44.605 118.292 44.5751 118.113 44.5751C117.95 44.5602 117.838 44.5005 117.779 44.396C117.437 44.5602 117.073 44.6647 116.686 44.7094C116.315 44.7542 115.936 44.7691 115.549 44.7542C115.296 44.7393 115.007 44.702 114.68 44.6423C114.352 44.5826 114.025 44.5005 113.698 44.396C113.371 44.2767 113.067 44.1423 112.784 43.9931C112.502 43.829 112.286 43.635 112.138 43.4111C112.033 43.2619 111.959 43.0977 111.915 42.9186C111.87 42.7396 111.766 42.6053 111.602 42.5157C111.647 42.1725 111.699 41.8367 111.758 41.5084C111.818 41.1801 111.877 40.8443 111.937 40.5011C112.234 40.2474 112.517 39.9788 112.784 39.6952C113.052 39.4117 113.304 39.1132 113.542 38.7998C113.825 38.6655 114.085 38.5014 114.323 38.3074C114.575 38.1134 114.821 37.9194 115.059 37.7254C115.311 37.5164 115.557 37.315 115.794 37.121C116.047 36.927 116.315 36.7553 116.597 36.6061C116.642 36.5017 116.701 36.4196 116.776 36.3599C116.865 36.2853 116.954 36.2181 117.043 36.1584C117.132 36.0838 117.214 36.0092 117.288 35.9346C117.363 35.845 117.415 35.7406 117.444 35.6212C117.965 35.3078 118.418 34.9123 118.805 34.4348C119.191 33.9572 119.444 33.42 119.563 32.8231C119.31 32.6142 119.02 32.4798 118.693 32.4201C118.381 32.3455 118.054 32.2933 117.712 32.2635C117.415 32.2485 117.103 32.2485 116.776 32.2635C116.463 32.2784 116.144 32.2709 115.817 32.2411C115.49 32.3455 115.148 32.4127 114.791 32.4425C114.449 32.4724 114.107 32.5022 113.765 32.5321C113.423 32.547 113.081 32.5918 112.74 32.6664C112.413 32.7261 112.093 32.8455 111.781 33.0245C111.721 33.0245 111.662 33.0171 111.602 33.0022C111.558 32.9872 111.506 32.9798 111.446 32.9798C110.971 32.9648 110.525 33.0618 110.108 33.2708C109.692 33.4648 109.283 33.6588 108.882 33.8528C108.852 33.9125 108.837 33.9572 108.837 33.9871C108.837 34.0766 108.852 34.1662 108.882 34.2557C108.927 34.3303 108.949 34.4124 108.949 34.5019C108.934 34.5169 108.927 34.5318 108.927 34.5467C108.927 34.5616 108.919 34.5766 108.904 34.5915C108.889 34.6661 108.867 34.7332 108.837 34.7929C108.823 34.8526 108.8 34.9198 108.771 34.9944C108.607 35.4719 108.518 35.942 108.503 36.4047C108.488 36.7927 108.488 37.1732 108.503 37.5463C108.518 37.9194 108.518 38.2999 108.503 38.6879C108.473 39.1654 108.399 39.6131 108.28 40.031C108.354 40.3892 108.421 40.7697 108.481 41.1726C108.54 41.5606 108.614 41.9486 108.704 42.3366C108.793 42.7246 108.897 43.1052 109.016 43.4783C109.15 43.8364 109.321 44.1797 109.529 44.508C109.514 44.5378 109.521 44.5602 109.551 44.5751C109.581 44.59 109.61 44.5975 109.64 44.5975H109.819C109.893 44.5975 109.923 44.6273 109.908 44.687C109.937 44.7318 109.96 44.7766 109.975 44.8214C109.989 44.8512 110.019 44.881 110.064 44.9109C110.094 44.9557 110.094 45.0154 110.064 45.09C110.049 45.3884 109.975 45.6645 109.841 45.9182C109.707 46.1719 109.625 46.448 109.596 46.7464C109.417 46.7912 109.254 46.8136 109.105 46.8136C108.852 46.7987 108.629 46.7241 108.436 46.5898C108.243 46.4704 108.064 46.3211 107.901 46.1421C107.737 45.963 107.581 45.7839 107.433 45.6048C107.284 45.4108 107.12 45.2467 106.942 45.1124C106.838 44.6945 106.734 44.2319 106.63 43.7245C106.541 43.2171 106.385 42.7843 106.162 42.4262C106.221 42.2919 106.251 42.1277 106.251 41.9337C106.266 41.6352 106.236 41.3442 106.162 41.0607C106.102 40.7622 106.087 40.4638 106.117 40.1653C106.117 40.0011 106.132 39.837 106.162 39.6728C106.206 39.5087 106.236 39.3445 106.251 39.1804C106.266 38.9267 106.236 38.6804 106.162 38.4417C106.102 38.2029 106.08 37.9567 106.095 37.703C106.11 37.5836 106.132 37.4717 106.162 37.3672C106.206 37.2478 106.266 37.1433 106.34 37.0538C106.266 36.8747 106.243 36.7031 106.273 36.539C106.288 36.2853 106.318 36.0465 106.362 35.8226C106.407 35.5988 106.437 35.3749 106.451 35.1511C106.451 35.0317 106.444 34.9198 106.429 34.8153C106.414 34.6959 106.392 34.584 106.362 34.4796L106.162 34.4124C106.072 34.4124 105.983 34.4348 105.894 34.4796C105.82 34.5243 105.753 34.5766 105.693 34.6362C105.634 34.6959 105.582 34.7482 105.537 34.7929C105.493 34.8228 105.448 34.8377 105.403 34.8377C105.374 34.8377 105.337 34.8377 105.292 34.8377C105.262 34.8228 105.233 34.8153 105.203 34.8153C105.173 34.8153 105.114 34.8452 105.024 34.9049C104.95 34.9646 104.853 35.0317 104.735 35.1063C104.63 35.166 104.526 35.2332 104.422 35.3078C104.318 35.3675 104.237 35.4048 104.177 35.4197C104.014 35.3899 103.88 35.3376 103.776 35.263C103.687 35.1735 103.597 35.0914 103.508 35.0168C103.434 34.9272 103.352 34.8526 103.263 34.7929C103.174 34.7183 103.062 34.6885 102.928 34.7034C102.884 34.6139 102.861 34.5169 102.861 34.4124C102.847 34.3079 102.847 34.2035 102.861 34.099V33.7409C102.966 33.5469 103.107 33.3902 103.285 33.2708C103.449 33.1365 103.627 33.0245 103.82 32.935L104.4 32.6664C104.593 32.5768 104.772 32.4649 104.935 32.3306H105.136C105.403 32.3455 105.634 32.2933 105.827 32.1739C106.035 32.0545 106.229 31.9202 106.407 31.771C106.585 31.6068 106.764 31.4427 106.942 31.2785C107.135 31.1144 107.343 30.9875 107.566 30.898C107.73 30.9726 107.901 31.0397 108.079 31.0994C108.258 31.1442 108.443 31.1741 108.637 31.189C108.83 31.189 109.031 31.1591 109.239 31.0994C109.447 31.0397 109.61 30.9278 109.729 30.7637C109.804 30.7935 109.863 30.8159 109.908 30.8308C109.967 30.8308 110.034 30.8308 110.108 30.8308C110.331 30.8457 110.554 30.8159 110.777 30.7413C111 30.6517 111.216 30.5473 111.424 30.4279C111.721 30.4428 112.011 30.4279 112.294 30.3831C112.591 30.3234 112.881 30.2637 113.163 30.204C113.461 30.1444 113.75 30.0921 114.033 30.0474C114.33 29.9877 114.627 29.9653 114.925 29.9802C115.415 29.9951 115.898 29.9504 116.374 29.8459C116.85 29.7414 117.333 29.7041 117.824 29.734C118.165 29.7489 118.5 29.7787 118.827 29.8235C119.169 29.8534 119.511 29.8608 119.853 29.8459C120.046 29.9354 120.217 30.0175 120.366 30.0921C120.529 30.1518 120.73 30.1667 120.968 30.1369C121.443 30.5398 121.874 31.0099 122.261 31.5471V31.9277C122.246 32.2709 122.187 32.6067 122.083 32.935C121.978 33.2633 121.852 33.5916 121.703 33.9199C121.57 34.2333 121.421 34.5467 121.257 34.8601C121.094 35.1586 120.938 35.457 120.789 35.7555C119.823 36.636 118.857 37.509 117.89 38.3745C116.924 39.2401 115.928 40.0758 114.903 40.8816C114.873 41.0309 114.828 41.1652 114.769 41.2845C114.724 41.4039 114.694 41.5308 114.68 41.6651C114.68 41.7397 114.687 41.7994 114.702 41.8442C114.806 41.874 114.895 41.9337 114.969 42.0232C115.059 42.0979 115.088 42.2023 115.059 42.3366H115.259C115.334 42.3366 115.371 42.3665 115.371 42.4262L115.728 42.4486C116.292 42.4784 116.857 42.4635 117.422 42.4038C117.987 42.3441 118.552 42.2769 119.117 42.2023C119.697 42.1277 120.269 42.0606 120.834 42.0009C121.399 41.9262 121.964 41.8815 122.528 41.8666C122.662 41.8218 122.803 41.7845 122.952 41.7546C123.101 41.7248 123.235 41.6651 123.354 41.5756H123.42C123.524 41.5756 123.599 41.6054 123.643 41.6651C123.703 41.7248 123.785 41.7621 123.889 41.777C123.963 41.777 124.037 41.7621 124.112 41.7322C124.201 41.7024 124.29 41.68 124.379 41.6651C124.587 41.6054 124.803 41.5681 125.026 41.5532C125.264 41.5382 125.494 41.5159 125.717 41.486C126.579 41.4114 127.434 41.3666 128.281 41.3517C129.129 41.3219 129.976 41.2099 130.823 41.0159C130.898 41.1204 131.002 41.195 131.136 41.2398C131.269 41.2696 131.411 41.3069 131.559 41.3517C131.708 41.3815 131.842 41.4189 131.961 41.4636C132.094 41.5084 132.184 41.5979 132.228 41.7322Z" fill="#FAA01A"/>
<path d="M137 42.8067C137 43.0604 136.933 43.2843 136.799 43.4783C136.68 43.6573 136.636 43.8812 136.666 44.1498C136.457 44.2692 136.286 44.4259 136.153 44.6199C136.019 44.8139 135.893 45.0154 135.774 45.2243C134.792 45.866 133.737 46.3808 132.607 46.7688C131.492 47.1718 130.34 47.3732 129.151 47.3732C129.077 47.3732 129.01 47.3359 128.95 47.2613C128.891 47.2016 128.831 47.1345 128.772 47.0598C128.713 46.9852 128.646 46.9106 128.571 46.836C128.512 46.7763 128.438 46.7464 128.348 46.7464C128.244 46.7464 128.162 46.7688 128.103 46.8136C128.103 46.7838 128.103 46.7539 128.103 46.7241C128.118 46.7091 128.125 46.6868 128.125 46.6569C128.125 46.4778 128.103 46.2913 128.058 46.0973C128.014 45.9182 127.992 45.7391 127.992 45.5601C127.992 45.3511 128.029 45.1795 128.103 45.0452H128.371C128.519 45.0452 128.66 45.0377 128.794 45.0228C128.943 44.993 129.099 44.978 129.263 44.978C129.426 44.978 129.575 45.0228 129.708 45.1124C130.526 45.0825 131.299 44.9333 132.028 44.6647C132.771 44.3811 133.521 44.105 134.28 43.8364C134.399 43.6723 134.465 43.4932 134.48 43.2992C134.51 43.0903 134.57 42.8963 134.659 42.7172C134.272 42.3889 133.878 42.1352 133.477 41.9561C133.09 41.7621 132.637 41.6949 132.117 41.7546C131.805 41.5606 131.47 41.4487 131.113 41.4189C130.771 41.389 130.422 41.3442 130.065 41.2845C129.976 41.2696 129.879 41.2547 129.775 41.2398C129.686 41.2099 129.59 41.195 129.486 41.195C129.411 41.195 129.337 41.2174 129.263 41.2622C129.203 41.292 129.188 41.3442 129.218 41.4189C129.144 41.2995 129.04 41.2323 128.906 41.2174C128.787 41.1875 128.683 41.1279 128.594 41.0383C128.118 41.0085 127.702 40.9264 127.345 40.7921C126.988 40.6428 126.594 40.4787 126.163 40.2996C126.044 40.2548 125.925 40.225 125.806 40.2101C125.702 40.1802 125.598 40.1355 125.494 40.0758C125.227 39.9415 125.011 39.7624 124.847 39.5385C124.684 39.3147 124.558 39.0684 124.468 38.7998C124.364 38.5163 124.29 38.2253 124.245 37.9268C124.201 37.6284 124.156 37.3523 124.112 37.0986C124.245 36.8598 124.372 36.6136 124.491 36.3599C124.595 36.1062 124.684 35.8376 124.758 35.554C124.847 35.5093 124.937 35.4719 125.026 35.4421C125.115 35.4123 125.212 35.3749 125.316 35.3302C125.301 35.3003 125.293 35.263 125.293 35.2183C125.293 35.1436 125.316 35.069 125.36 34.9944C125.42 34.9198 125.435 34.8452 125.405 34.7706C125.732 34.4721 126.044 34.1662 126.341 33.8528C126.654 33.5245 126.921 33.1663 127.144 32.7783C127.367 32.7037 127.546 32.5918 127.679 32.4425C127.813 32.2933 127.947 32.1441 128.081 31.9948C128.215 31.8307 128.363 31.6889 128.527 31.5695C128.69 31.4352 128.898 31.3531 129.151 31.3233C129.21 31.2188 129.292 31.1367 129.396 31.0771C129.5 31.0024 129.604 30.9353 129.708 30.8756C129.813 30.8159 129.909 30.7487 129.998 30.6741C130.088 30.5995 130.154 30.4951 130.199 30.3607C130.437 30.3607 130.652 30.316 130.846 30.2264C131.054 30.1369 131.255 30.0399 131.448 29.9354C131.641 29.831 131.834 29.734 132.028 29.6444C132.236 29.5549 132.459 29.5101 132.696 29.5101C132.756 29.5101 132.815 29.5176 132.875 29.5325C132.934 29.5325 133.001 29.54 133.076 29.5549C133.18 29.6593 133.246 29.7862 133.276 29.9354C133.321 30.0697 133.351 30.219 133.365 30.3831C133.38 30.5473 133.388 30.7114 133.388 30.8756C133.403 31.0397 133.432 31.189 133.477 31.3233C133.343 31.577 133.194 31.8307 133.031 32.0844C132.882 32.3381 132.682 32.5321 132.429 32.6664H132.384C132.28 32.6813 132.184 32.6589 132.094 32.5992C132.005 32.5395 131.901 32.5097 131.782 32.5097C131.708 32.5097 131.648 32.5321 131.604 32.5768L131.492 32.6888C131.463 32.7186 131.418 32.7485 131.359 32.7783C131.314 32.8082 131.247 32.8082 131.158 32.7783C130.95 32.8529 130.868 32.9798 130.913 33.1588C130.63 33.1887 130.392 33.2782 130.199 33.4275C130.006 33.5618 129.827 33.7185 129.664 33.8975C129.5 34.0617 129.337 34.2184 129.173 34.3676C129.01 34.5019 128.817 34.5766 128.594 34.5915C128.341 35.0392 128.029 35.4346 127.657 35.7779C127.3 36.1211 127.003 36.5091 126.765 36.9419C126.81 37.0613 126.839 37.1881 126.854 37.3224C126.869 37.4567 126.891 37.5985 126.921 37.7477C127.055 37.9268 127.211 38.0835 127.389 38.2178C127.583 38.3521 127.769 38.4864 127.947 38.6208H128.014C128.311 38.6208 128.586 38.6804 128.839 38.7998C129.092 38.9043 129.359 38.9565 129.642 38.9565C129.79 38.9565 129.917 38.9267 130.021 38.867C130.407 38.9565 130.786 39.0311 131.158 39.0908C131.544 39.1505 131.931 39.1953 132.317 39.2251C132.511 39.255 132.704 39.2699 132.897 39.2699C133.105 39.2699 133.299 39.2923 133.477 39.3371C133.64 39.3818 133.804 39.4415 133.967 39.5161C134.131 39.5758 134.294 39.643 134.458 39.7176C134.8 39.8668 135.12 40.031 135.417 40.2101C135.729 40.3892 136.004 40.6055 136.242 40.8592C136.48 41.098 136.666 41.3815 136.799 41.7099C136.933 42.0232 137 42.3889 137 42.8067Z" fill="#FAA01A"/>
<path d="M5.22266 48.555C10.8218 49.0994 18.2648 50.4447 23.471 47.5676C24.2042 47.1624 25.4532 46.5136 25.6286 45.5929C25.7449 44.9821 25.6038 45.0379 25.7932 45.7574C27.2343 51.2337 34.257 53.7155 39.3788 52.4863C42.0685 51.8408 43.5443 50.2093 45.7054 48.811C46.9379 48.0135 44.8742 47.1018 46.3636 48.6464C49.9746 52.3912 54.9825 54.0382 60.0773 54.1502C62.1044 54.1947 62.6236 52.1496 63.6246 50.5481C64.4104 49.2907 64.3876 48.4404 65.5079 49.5607C68.707 52.7598 75.3981 53.6948 79.6056 53.8211C80.9808 53.8623 84.2713 54.5885 84.5791 52.7423C84.679 52.1424 85.5079 47.8748 85.859 48.2259C86.4987 48.8656 86.7065 49.6109 87.5046 50.1641C90.8457 52.4797 94.9788 53.4072 98.9144 54.1136C100.805 54.453 102.931 54.7494 104.82 54.205C107.779 53.3527 108.937 50.0382 109.227 47.2385C109.266 46.8636 109.484 47.5109 109.629 47.7139C110.745 49.2765 111.865 50.1457 113.487 51.2795C115.688 52.817 119.017 55.6861 121.898 55.6861C122.489 55.6861 123.086 53.6765 123.38 53.1628" stroke="url(#paint0_linear_308_499)" stroke-width="3" stroke-linecap="round"/>
<defs>
<linearGradient id="paint0_linear_308_499" x1="10.1305" y1="45.2112" x2="128.638" y2="50.4949" gradientUnits="userSpaceOnUse">
<stop stop-color="#FF7070"/>
<stop offset="1" stop-color="#FAA01A"/>
</linearGradient>
</defs>
</svg>
